<svg xmlns="http://www.w3.org/2000/svg" xmlns:xlink="http://www.w3.org/1999/xlink" viewBox="0 0 640 480"><defs><style>.cls-1,.cls-101,.cls-12,.cls-13,.cls-15,.cls-17{fill:none;}.cls-2{isolation:isolate;}.cls-3{clip-path:url(#clip-path);}.cls-4{clip-path:url(#clip-path-2);}.cls-5{fill:#121316;}.cls-6{fill:#2c4183;}.cls-7{fill:#fecad0;}.cls-8{fill:#018786;}.cls-9{fill:#3700b3;}.cls-10{fill:#6200ee;}.cls-11{fill:#ee84aa;}.cls-12,.cls-17{stroke:#e45e8e;stroke-miterlimit:9;}.cls-12,.cls-13,.cls-15,.cls-17{stroke-linecap:round;}.cls-12,.cls-15{stroke-width:0.52px;}.cls-13,.cls-15{stroke:#171d51;stroke-linejoin:round;}.cls-101,.cls-13{stroke-width:0.79px;}.cls-14{fill:#bb86fc;}.cls-16{fill:#1f3251;}.cls-17{stroke-width:0.45px;}.cls-18{fill:#325ecb;}.cls-19{fill:#077572;}.cls-20{clip-path:url(#clip-path-3);}.cls-21{opacity:0.25;mix-blend-mode:overlay;}.cls-22{clip-path:url(#clip-path-4);}.cls-23{fill:#fff;}.cls-24{clip-path:url(#clip-path-5);}.cls-25{clip-path:url(#clip-path-6);}.cls-26{clip-path:url(#clip-path-7);}.cls-27{clip-path:url(#clip-path-8);}.cls-28{clip-path:url(#clip-path-9);}.cls-29{clip-path:url(#clip-path-10);}.cls-30{clip-path:url(#clip-path-11);}.cls-31{clip-path:url(#clip-path-12);}.cls-32{clip-path:url(#clip-path-13);}.cls-33{clip-path:url(#clip-path-14);}.cls-34{clip-path:url(#clip-path-15);}.cls-35{clip-path:url(#clip-path-16);}.cls-36{clip-path:url(#clip-path-17);}.cls-37{clip-path:url(#clip-path-18);}.cls-38{clip-path:url(#clip-path-19);}.cls-39{clip-path:url(#clip-path-20);}.cls-40{clip-path:url(#clip-path-21);}.cls-41{clip-path:url(#clip-path-22);}.cls-42{clip-path:url(#clip-path-23);}.cls-43{clip-path:url(#clip-path-24);}.cls-44{clip-path:url(#clip-path-25);}.cls-45{clip-path:url(#clip-path-26);}.cls-46{clip-path:url(#clip-path-27);}.cls-47{clip-path:url(#clip-path-28);}.cls-48{clip-path:url(#clip-path-29);}.cls-49{clip-path:url(#clip-path-30);}.cls-50{clip-path:url(#clip-path-31);}.cls-51{clip-path:url(#clip-path-32);}.cls-52{clip-path:url(#clip-path-33);}.cls-53{clip-path:url(#clip-path-34);}.cls-54{clip-path:url(#clip-path-35);}.cls-55{clip-path:url(#clip-path-36);}.cls-56{clip-path:url(#clip-path-37);}.cls-57{clip-path:url(#clip-path-38);}.cls-58{clip-path:url(#clip-path-39);}.cls-59{clip-path:url(#clip-path-40);}.cls-60{clip-path:url(#clip-path-41);}.cls-61{clip-path:url(#clip-path-42);}.cls-62{clip-path:url(#clip-path-43);}.cls-63{clip-path:url(#clip-path-44);}.cls-64{clip-path:url(#clip-path-45);}.cls-65{clip-path:url(#clip-path-46);}.cls-66{clip-path:url(#clip-path-47);}.cls-67{clip-path:url(#clip-path-48);}.cls-68{clip-path:url(#clip-path-49);}.cls-69{clip-path:url(#clip-path-50);}.cls-70{clip-path:url(#clip-path-51);}.cls-71{clip-path:url(#clip-path-52);}.cls-72{clip-path:url(#clip-path-53);}.cls-73{clip-path:url(#clip-path-54);}.cls-74{clip-path:url(#clip-path-55);}.cls-75{clip-path:url(#clip-path-56);}.cls-76{clip-path:url(#clip-path-57);}.cls-77{clip-path:url(#clip-path-58);}.cls-78{clip-path:url(#clip-path-59);}.cls-79{clip-path:url(#clip-path-60);}.cls-80{clip-path:url(#clip-path-61);}.cls-81{clip-path:url(#clip-path-62);}.cls-82{clip-path:url(#clip-path-63);}.cls-83{clip-path:url(#clip-path-64);}.cls-84{clip-path:url(#clip-path-65);}.cls-85{clip-path:url(#clip-path-66);}.cls-86{clip-path:url(#clip-path-67);}.cls-87{clip-path:url(#clip-path-68);}.cls-88{clip-path:url(#clip-path-69);}.cls-89{clip-path:url(#clip-path-70);}.cls-90{clip-path:url(#clip-path-71);}.cls-91{clip-path:url(#clip-path-72);}.cls-92{clip-path:url(#clip-path-73);}.cls-93{clip-path:url(#clip-path-74);}.cls-94{clip-path:url(#clip-path-75);}.cls-95{fill:#fbb8c2;}.cls-96{clip-path:url(#clip-path-77);}.cls-97{clip-path:url(#clip-path-78);}.cls-98{fill:#3207a8;}.cls-99{clip-path:url(#clip-path-79);}.cls-100{fill:#4e12c4;}.cls-101{stroke:#587cf8;stroke-miterlimit:10;}.cls-102{fill:#e5eafd;}.cls-103{fill:#7389bb;}.cls-104{fill:#151719;}</style><clipPath id="clip-path"><polyline class="cls-1" points="-292.95 622.19 987.05 622.19 987.05 -97.81 -292.95 -97.81"/></clipPath><clipPath id="clip-path-2"><polyline class="cls-1" points="-292.95 -97.81 987.05 -97.81 987.05 622.19 -292.95 622.19"/></clipPath><clipPath id="clip-path-3"><path class="cls-1" d="M357.1,129.9l-7.16,3.3A29.39,29.39,0,0,0,333,163.31l3.36,28.83,12.38-7.26-1.65,45a3.16,3.16,0,0,0,3.62,3.24l57.42-8.44a2.86,2.86,0,0,0,2.41-3.21l-5.34-39.78L417,169.79l-12.41-25a28.44,28.44,0,0,0-20.1-15.28c-.53-.1-1.08-.19-1.63-.26l-2.19-.3H363.07l-2.49-.67Z"/></clipPath><clipPath id="clip-path-4"><rect class="cls-1" x="333.74" y="218.76" width="4.16" height="4.16"/></clipPath><clipPath id="clip-path-5"><rect class="cls-1" x="346.05" y="218.76" width="4.16" height="4.16"/></clipPath><clipPath id="clip-path-6"><rect class="cls-1" x="358.35" y="218.76" width="4.16" height="4.16"/></clipPath><clipPath id="clip-path-7"><rect class="cls-1" x="370.66" y="218.76" width="4.16" height="4.16"/></clipPath><clipPath id="clip-path-8"><rect class="cls-1" x="382.97" y="218.76" width="4.16" height="4.16"/></clipPath><clipPath id="clip-path-9"><rect class="cls-1" x="395.27" y="218.76" width="4.16" height="4.16"/></clipPath><clipPath id="clip-path-10"><rect class="cls-1" x="407.58" y="218.76" width="4.16" height="4.16"/></clipPath><clipPath id="clip-path-11"><rect class="cls-1" x="419.89" y="218.76" width="4.16" height="4.16"/></clipPath><clipPath id="clip-path-12"><rect class="cls-1" x="333.74" y="207.27" width="4.16" height="4.16"/></clipPath><clipPath id="clip-path-13"><rect class="cls-1" x="346.05" y="207.27" width="4.16" height="4.16"/></clipPath><clipPath id="clip-path-14"><rect class="cls-1" x="358.35" y="207.27" width="4.16" height="4.16"/></clipPath><clipPath id="clip-path-15"><rect class="cls-1" x="370.66" y="207.27" width="4.16" height="4.16"/></clipPath><clipPath id="clip-path-16"><rect class="cls-1" x="382.97" y="207.27" width="4.16" height="4.16"/></clipPath><clipPath id="clip-path-17"><rect class="cls-1" x="395.27" y="207.27" width="4.16" height="4.16"/></clipPath><clipPath id="clip-path-18"><rect class="cls-1" x="407.58" y="207.27" width="4.16" height="4.16"/></clipPath><clipPath id="clip-path-19"><rect class="cls-1" x="419.89" y="207.27" width="4.16" height="4.16"/></clipPath><clipPath id="clip-path-20"><rect class="cls-1" x="333.74" y="195.79" width="4.16" height="4.16"/></clipPath><clipPath id="clip-path-21"><rect class="cls-1" x="346.05" y="195.79" width="4.16" height="4.16"/></clipPath><clipPath id="clip-path-22"><rect class="cls-1" x="358.35" y="195.79" width="4.16" height="4.16"/></clipPath><clipPath id="clip-path-23"><rect class="cls-1" x="370.66" y="195.79" width="4.16" height="4.16"/></clipPath><clipPath id="clip-path-24"><rect class="cls-1" x="382.97" y="195.79" width="4.16" height="4.16"/></clipPath><clipPath id="clip-path-25"><rect class="cls-1" x="395.27" y="195.79" width="4.16" height="4.16"/></clipPath><clipPath id="clip-path-26"><rect class="cls-1" x="407.58" y="195.79" width="4.16" height="4.16"/></clipPath><clipPath id="clip-path-27"><rect class="cls-1" x="419.89" y="195.79" width="4.16" height="4.16"/></clipPath><clipPath id="clip-path-28"><rect class="cls-1" x="333.74" y="184.31" width="4.16" height="4.16"/></clipPath><clipPath id="clip-path-29"><rect class="cls-1" x="346.05" y="184.31" width="4.16" height="4.16"/></clipPath><clipPath id="clip-path-30"><rect class="cls-1" x="358.35" y="184.31" width="4.16" height="4.16"/></clipPath><clipPath id="clip-path-31"><rect class="cls-1" x="370.66" y="184.31" width="4.16" height="4.16"/></clipPath><clipPath id="clip-path-32"><rect class="cls-1" x="382.97" y="184.31" width="4.16" height="4.16"/></clipPath><clipPath id="clip-path-33"><rect class="cls-1" x="395.27" y="184.31" width="4.16" height="4.16"/></clipPath><clipPath id="clip-path-34"><rect class="cls-1" x="407.58" y="184.31" width="4.16" height="4.16"/></clipPath><clipPath id="clip-path-35"><rect class="cls-1" x="419.89" y="184.31" width="4.16" height="4.16"/></clipPath><clipPath id="clip-path-36"><rect class="cls-1" x="333.74" y="172.83" width="4.16" height="4.16"/></clipPath><clipPath id="clip-path-37"><rect class="cls-1" x="346.05" y="172.83" width="4.16" height="4.16"/></clipPath><clipPath id="clip-path-38"><rect class="cls-1" x="358.35" y="172.83" width="4.16" height="4.16"/></clipPath><clipPath id="clip-path-39"><rect class="cls-1" x="370.66" y="172.83" width="4.16" height="4.16"/></clipPath><clipPath id="clip-path-40"><rect class="cls-1" x="382.97" y="172.83" width="4.16" height="4.16"/></clipPath><clipPath id="clip-path-41"><rect class="cls-1" x="395.27" y="172.83" width="4.16" height="4.16"/></clipPath><clipPath id="clip-path-42"><rect class="cls-1" x="407.58" y="172.83" width="4.16" height="4.16"/></clipPath><clipPath id="clip-path-43"><rect class="cls-1" x="419.89" y="172.83" width="4.16" height="4.16"/></clipPath><clipPath id="clip-path-44"><rect class="cls-1" x="333.74" y="161.34" width="4.16" height="4.16"/></clipPath><clipPath id="clip-path-45"><rect class="cls-1" x="346.05" y="161.34" width="4.16" height="4.16"/></clipPath><clipPath id="clip-path-46"><rect class="cls-1" x="358.35" y="161.34" width="4.16" height="4.16"/></clipPath><clipPath id="clip-path-47"><rect class="cls-1" x="370.66" y="161.34" width="4.16" height="4.16"/></clipPath><clipPath id="clip-path-48"><rect class="cls-1" x="382.97" y="161.34" width="4.16" height="4.16"/></clipPath><clipPath id="clip-path-49"><rect class="cls-1" x="395.27" y="161.34" width="4.16" height="4.16"/></clipPath><clipPath id="clip-path-50"><rect class="cls-1" x="407.58" y="161.34" width="4.16" height="4.16"/></clipPath><clipPath id="clip-path-51"><rect class="cls-1" x="419.89" y="161.34" width="4.16" height="4.16"/></clipPath><clipPath id="clip-path-52"><rect class="cls-1" x="333.74" y="149.86" width="4.16" height="4.16"/></clipPath><clipPath id="clip-path-53"><rect class="cls-1" x="346.05" y="149.86" width="4.16" height="4.16"/></clipPath><clipPath id="clip-path-54"><rect class="cls-1" x="358.35" y="149.86" width="4.16" height="4.16"/></clipPath><clipPath id="clip-path-55"><rect class="cls-1" x="370.66" y="149.86" width="4.16" height="4.16"/></clipPath><clipPath id="clip-path-56"><rect class="cls-1" x="382.97" y="149.86" width="4.16" height="4.16"/></clipPath><clipPath id="clip-path-57"><rect class="cls-1" x="395.27" y="149.86" width="4.16" height="4.16"/></clipPath><clipPath id="clip-path-58"><rect class="cls-1" x="407.58" y="149.86" width="4.16" height="4.16"/></clipPath><clipPath id="clip-path-59"><rect class="cls-1" x="419.89" y="149.86" width="4.16" height="4.16"/></clipPath><clipPath id="clip-path-60"><rect class="cls-1" x="333.74" y="138.38" width="4.16" height="4.16"/></clipPath><clipPath id="clip-path-61"><rect class="cls-1" x="346.05" y="138.38" width="4.16" height="4.16"/></clipPath><clipPath id="clip-path-62"><rect class="cls-1" x="358.35" y="138.38" width="4.16" height="4.16"/></clipPath><clipPath id="clip-path-63"><rect class="cls-1" x="370.66" y="138.38" width="4.16" height="4.16"/></clipPath><clipPath id="clip-path-64"><rect class="cls-1" x="382.97" y="138.38" width="4.16" height="4.16"/></clipPath><clipPath id="clip-path-65"><rect class="cls-1" x="395.27" y="138.38" width="4.16" height="4.16"/></clipPath><clipPath id="clip-path-66"><rect class="cls-1" x="407.58" y="138.38" width="4.16" height="4.16"/></clipPath><clipPath id="clip-path-67"><rect class="cls-1" x="419.89" y="138.38" width="4.16" height="4.16"/></clipPath><clipPath id="clip-path-68"><rect class="cls-1" x="333.74" y="126.89" width="4.16" height="4.16"/></clipPath><clipPath id="clip-path-69"><rect class="cls-1" x="346.05" y="126.89" width="4.16" height="4.16"/></clipPath><clipPath id="clip-path-70"><rect class="cls-1" x="358.35" y="126.89" width="4.16" height="4.16"/></clipPath><clipPath id="clip-path-71"><rect class="cls-1" x="370.66" y="126.89" width="4.16" height="4.16"/></clipPath><clipPath id="clip-path-72"><rect class="cls-1" x="382.97" y="126.89" width="4.16" height="4.16"/></clipPath><clipPath id="clip-path-73"><rect class="cls-1" x="395.27" y="126.89" width="4.16" height="4.16"/></clipPath><clipPath id="clip-path-74"><rect class="cls-1" x="407.58" y="126.89" width="4.16" height="4.16"/></clipPath><clipPath id="clip-path-75"><rect class="cls-1" x="419.89" y="126.89" width="4.16" height="4.16"/></clipPath><clipPath id="clip-path-77"><rect class="cls-1" x="402.68" y="151.8" width="5.52" height="5.09"/></clipPath><clipPath id="clip-path-78"><rect class="cls-1" x="404.02" y="153.04" width="2.83" height="2.62"/></clipPath><clipPath id="clip-path-79"><rect class="cls-1" x="200.92" y="135.29" width="104.58" height="104.29"/></clipPath></defs><title>Artboard 1</title><g class="cls-2"><g id="Layer_1" data-name="Layer 1"><g class="cls-3"><g class="cls-4"><path class="cls-5" d="M623,427.69H20.42a10.13,10.13,0,0,1,0-20.25H623a10.13,10.13,0,0,1,0,20.25"/><path class="cls-6" d="M438.23,165.59h-.66a1.14,1.14,0,0,1,.66,0"/><path class="cls-6" d="M437.57,165.59h0Z"/><polyline class="cls-7" points="487.43 351.54 485.82 397.63 490.65 405.94 502.32 401.38 505.4 355.7"/><path class="cls-8" d="M460.91,409.28l25.45-14.74,4.83,6.84h11.13l1.21,10.33h-42a1.3,1.3,0,0,1-.65-2.43"/><polyline class="cls-7" points="565.26 351.54 579.92 397.63 575.09 405.94 563.43 401.38 547.29 355.7"/><path class="cls-8" d="M604.84,409.28l-25.45-14.74-4.83,6.84H563.43l-1.21,10.33h42a1.3,1.3,0,0,0,.66-2.43"/><path class="cls-9" d="M488.87,199.89l-6,173.93,23.87,1.75,9.12-108.76L551.76,378.9,573,372.24S544.25,253.93,541,237s-1.61-25.76-6.7-37.55Z"/><path class="cls-10" d="M508,83.08c-.3.23-2.76-.15-3.44.06a7.6,7.6,0,0,0-3.33,2.37c-2.35,2.67-3.36,6.44-3.79,9.89a41.49,41.49,0,0,0-.13,6.5c.06,2.4-.92,3.62-1.6,5.92A17.39,17.39,0,0,0,497,121c1.88,3.41,5,6.32,5.57,10.16.44,2.83-.56,5.67-.71,8.53a14.94,14.94,0,0,0,12.78,15.08c2.46.28,5-.07,7.36.8,3.58,1.33,5.6,5.15,8.85,7.14a10,10,0,0,0,9.79.24c1.51-.82,3-2.08,4.68-2,2.14.1,3.67,2.26,5.78,2.66s4.31-1.26,5.12-3.31a11.83,11.83,0,0,0,.17-6.52,26.44,26.44,0,0,1-.85-6.54c.2-3.12,1.86-6.25,1-9.26-.66-2.26-2.61-3.86-4.18-5.63a20.37,20.37,0,0,1-4.26-7.59c-.81-2.69-1.08-5.55-2.23-8.11-.91-2-2.33-3.73-3.38-5.66-2.24-4.1-1.52-10-2.78-14.61a34.44,34.44,0,0,0-5.93-12.4c-7.12-8.92-17.46-7.1-25.83-.86"/><path class="cls-7" d="M475.05,154.29l-8.85,19.85-13.68-32.09s-1.74-11-3.15-14-.94-7.18-2.81-7.78S444,123,444,125.86a38.07,38.07,0,0,1-.47,5.64s-7.85-6.84-8.32-9-.2-9.45-1.94-10.39-3.69,1.2-4.09,7.44S441.32,144,441.32,144l6.45,31.25c1.3,6.29,2.16,12.71,6.85,17.54,6.38,6.59,18.9,4.92,23.54-2.7q2.64-4.34,5.29-8.68l8.1-13.27-16.5-13.82"/><path class="cls-7" d="M553.91,160.14,544.44,167l-.9.64-7.07,5.13-1.07,28-4.32-.08-.89,0-12.46-.26h-.89l-12.46-.25-.89,0L491,199.94l-.89,0-1.27,0a67.67,67.67,0,0,0-1.48-16.83c-2-10,.8-16.86.8-16.86l-13.14-11.91,6.73-10.46a20.62,20.62,0,0,1,8.36-7.41c.29-.14.58-.28.89-.41a20.06,20.06,0,0,1,3-1l9.43-2.41.51-.14.38-.09,3.19-.83,9.27,0h.89l10.1,0,2.36,1.24.89.47h0l8.48,4.45a19.57,19.57,0,0,1,3.95,2.7,11.34,11.34,0,0,1,.9.81,20.6,20.6,0,0,1,4.8,7.18Z"/><path class="cls-8" d="M554.11,160.53c-.59.29-1.31.57-2.18,1.05-2.64,1.47-5,3.68-7.49,5.44l-.9.65-7.07,5.13-1.07,28-4.32-.08-.89,0-12.46-.25h-.89l-12.46-.25-.89,0-4.65-.1-6.16-.12c-1,0-3.46.36-3.89-.35s-.07-2.49-.12-3.23c-.06-1-.16-2-.27-3.06-.23-2.13-.54-4.25-.85-6.36a84.49,84.49,0,0,1-1.19-12.5,49.24,49.24,0,0,1,.65-7.16c.29-1.89-1.34-3.19-2.67-4.46a53.59,53.59,0,0,0-5.24-4,17,17,0,0,0-3-2.07,13,13,0,0,1-2.47-.91,1.62,1.62,0,0,1-.34-1.78c.6-1.8.05-2.38.09-4.23a3,3,0,0,1,.84-2.14c.77-.73,2.06-.91,2.5-1.87a5.81,5.81,0,0,0,.24-1.72c.43-2.76,6.1-5.33,8.57-4.06.64.33,1.18.86,1.82,1.19,1.94,1,4.35,0,6.46.61s3.65,2.47,5.77,2.49c1.14,0,2.21-.54,3.35-.61,2.49-.15,4.52,2,7,2.51,2.84.58,5.68-1.14,8.58-1.05,1.55.05,3.05.62,4.6.59,2.67-.05,5-1.85,7.67-2.14,4.11-.45,8.56.89,12.5-.32,1.48-.45,3.1-1.2,4.48-.51,1.1.55,1.63,1.85,2.62,2.58.83.61,2,.81,2.61,1.61,1.23,1.52,0,4.22,1.44,5.53.38.34.91.51,1.28.87.94.87.78,4.35.28,5.4a3.41,3.41,0,0,1-1.8,1.7"/><path class="cls-7" d="M527.83,131.56a14.83,14.83,0,0,1-13.15,7.38c-9.46,0-7.11-7.44-7.11-7.44l2.68-.87L510.1,126l-.25-6.72L526,114.4a9.26,9.26,0,0,0-.74,2.75c-.74,5.08.06,13.48.06,13.48Z"/><path class="cls-11" d="M526,114.4a9.26,9.26,0,0,0-.74,2.75s0,0,0,0c-4.52,9.09-12.12,9.19-15.1,8.84l-.25-6.72Z"/><path class="cls-7" d="M508.27,90.2c1.48,7.92,18.41,13.4,19.61,14.3a3.94,3.94,0,0,1,1,2.74.18.18,0,0,0,.35.05c.43-1.17,1.29-2.84,2.73-3,2.24-.27,4.4,2.55,3.12,6s-6.39,1.59-6.39,1.59S524.54,122,515,122.25s-11.7-7.84-11-12.83a32.15,32.15,0,0,0,.23-10.4c-.42-2.94,3.25-5,4.06-8.82"/><path class="cls-12" d="M532.72,106.23c-.81.23-1.7,2.42-1.34,3.45"/><path class="cls-12" d="M513.5,112.55l-1.11-.66a1.72,1.72,0,0,1-.71-2.17l1.82-4.23"/><path d="M516.36,107a.82.82,0,1,0,1.59,0,.82.82,0,1,0-1.59,0"/><path d="M506.56,106.71a.82.82,0,1,0,1.59,0,.82.82,0,1,0-1.59,0"/><path class="cls-13" d="M521.72,102.06a4.25,4.25,0,0,0-5.13-.64"/><path class="cls-13" d="M506.16,102s2-2.19,5.17-.18"/><path class="cls-12" d="M514.69,116.21a4.87,4.87,0,0,0,4.75-.76"/><path class="cls-14" d="M506,381.89l-22.85-.78a2.81,2.81,0,0,1-2.72-2.9l.12-3.63a2.81,2.81,0,0,1,2.91-2.71l22.86.77a2.81,2.81,0,0,1,2.71,2.9l-.12,3.63a2.82,2.82,0,0,1-2.91,2.72"/><path class="cls-14" d="M574.68,376.72l-21.9,6.57a2.81,2.81,0,0,1-3.5-1.89l-1-3.48a2.82,2.82,0,0,1,1.89-3.5L572,367.86a2.81,2.81,0,0,1,3.5,1.88l1,3.48a2.8,2.8,0,0,1-1.89,3.5"/><line class="cls-15" x1="508.94" y1="244.1" x2="520.01" y2="279.87"/><path class="cls-15" d="M491,182.25c5.88,5.44,16.28,6.24,16.28,6.24"/><line class="cls-15" x1="536.47" y1="172.8" x2="528.96" y2="160.14"/><path class="cls-15" d="M488.2,166.19c3.21-6.4,3.87-14.71,3.87-14.71"/><path class="cls-16" d="M488.39,187.52H500.8a2.14,2.14,0,0,0,2.15-2.69l-5.26-25.92a3.49,3.49,0,0,0-3.24-2.69H480.26a2.14,2.14,0,0,0-2.15,2.69l7,25.92a3.47,3.47,0,0,0,3.24,2.69"/><path class="cls-6" d="M486.61,188.62H499a2.13,2.13,0,0,0,2.15-2.69L495.91,160a3.49,3.49,0,0,0-3.24-2.7H480.26a2.14,2.14,0,0,0-2.15,2.7l5.26,25.91a3.46,3.46,0,0,0,3.24,2.69"/><path class="cls-7" d="M489.64,183.39c0,2.56,3.06,4.82,3.06,4.82s-.72,3.49,5.05,4.67,11.64-3.82,11.64-3.82l37.3,7.87a14.38,14.38,0,0,0,2.91.3,14.06,14.06,0,0,0,12.75-20L557,165.63l-3.05-5.49-17.84,12.54,1.36,2.34,2,3.4-30.2-1.07a25.71,25.71,0,0,1-5.09-4.79c-2-2.64-2.72-3.26-4.29-2.26s.15,5.52,1.49,7.23c-4.82,2.68-10.6.62-12.93,1s-2.38,3.1,1.26,4.9"/><path class="cls-17" d="M489.64,183.39c3,1.28,10.26.13,12.32-1.24"/><path class="cls-17" d="M492.7,188.21c4.1.81,8.69.54,11-1.8"/><path class="cls-18" d="M494,168.62h0a1.12,1.12,0,0,0,1.13-1.4l-1-5a1.78,1.78,0,0,0-1.67-1.4,1.12,1.12,0,0,0-1.13,1.4l1,5a1.79,1.79,0,0,0,1.67,1.4"/><line class="cls-17" x1="539.4" y1="178.42" x2="549.42" y2="178.42"/><polygon class="cls-11" points="553.91 160.14 555.72 163.37 538.9 177.62 536.07 172.68 553.91 160.14"/><path class="cls-11" d="M504.85,94.46a35,35,0,0,1-3.4-2.11,2.81,2.81,0,0,0,.52-.67A9.79,9.79,0,0,0,504.19,93l2.17,1.07s-.5.82-.65.84-.65-.36-.86-.47"/><path class="cls-11" d="M504,95.69a34.85,34.85,0,0,1-3.39-2.11,2.58,2.58,0,0,0,.51-.67,10.52,10.52,0,0,0,2.23,1.35l2.17,1.06s-.51.82-.65.85-.66-.36-.87-.48"/><path class="cls-7" d="M429.23,140.58l-11.11,41.85A12.19,12.19,0,0,1,402.79,191l-7.5-2.28,22.63-53.23Z"/><path class="cls-11" d="M422.43,129c-.89-1.11-8,2.64-9.65,3s-.18,4.64,3,4.22,4.11-3.72,4.11-3.72Z"/><path class="cls-16" d="M417.24,120,417,147.35l3-.63V120a1.37,1.37,0,1,0-2.73,0"/><path class="cls-7" d="M421.45,129.44s-9,9.05-7.29,11.67,7.31-2.15,8.38-3.62c-.13,3,3.73,5.85,6,5.5,3.48-.54,4.89-4.09,3.82-5.7s-7.58-5.37-7.58-5.37-1.64-4.89-3.37-2.48"/><polyline class="cls-7" points="333.3 381.49 330.08 398.12 334.9 406.44 346.57 401.88 351.27 385.65"/><path class="cls-14" d="M305.16,409.78,330.61,395l4.83,6.84h11.13l1.21,10.32h-42a1.3,1.3,0,0,1-.65-2.42"/><polyline class="cls-7" points="442.82 381.49 446.04 398.12 441.21 406.44 429.54 401.88 424.85 385.65"/><path class="cls-14" d="M471,409.78,445.5,395l-4.83,6.84H429.54l-1.21,10.32h42a1.3,1.3,0,0,0,.65-2.42"/><polygon class="cls-8" points="444.91 375.6 420.87 380.86 384.15 257.94 354.86 378.75 331.02 375.24 346.33 246.81 348.68 227.03 384.32 224.31 408.26 222.48 408.7 224.31 408.96 225.37 444.91 375.6"/><polygon class="cls-19" points="408.96 225.37 346.33 246.81 348.68 227.03 384.32 224.31 408.7 224.31 408.96 225.37"/><path class="cls-14" d="M410.56,221.51a2.86,2.86,0,0,1-2.41,3.21l-57.42,8.44a3.16,3.16,0,0,1-3.62-3.24l1.65-45,1.21-32.8,8.77-19.15,1.82-4H380.7l2.19.3c.55.07,1.1.16,1.63.26a28.46,28.46,0,0,1,20.1,15.27l12.4,25-11.8,11.94Z"/><path class="cls-14" d="M357.32,147.05a6.43,6.43,0,0,0-.45,2.84l2.21,28.94-1.85,1.08-8.47,5-10.61,6.22-1.77,1L333,163.31a29.39,29.39,0,0,1,16.92-30.11l7.16-3.3,3.48-1.6,2.49.67,1.47.4-2.85,7Z"/></g><g class="cls-20"><g class="cls-21"><g class="cls-22"><path class="cls-23" d="M337.9,220.84a2.08,2.08,0,1,1-2.08-2.08,2.08,2.08,0,0,1,2.08,2.08"/></g></g><g class="cls-21"><g class="cls-24"><path class="cls-23" d="M350.2,220.84a2.08,2.08,0,1,1-2.07-2.08,2.07,2.07,0,0,1,2.07,2.08"/></g></g><g class="cls-21"><g class="cls-25"><path class="cls-23" d="M362.51,220.84a2.08,2.08,0,1,1-2.08-2.08,2.08,2.08,0,0,1,2.08,2.08"/></g></g><g class="cls-21"><g class="cls-26"><path class="cls-23" d="M374.82,220.84a2.08,2.08,0,1,1-2.08-2.08,2.08,2.08,0,0,1,2.08,2.08"/></g></g><g class="cls-21"><g class="cls-27"><path class="cls-23" d="M387.12,220.84a2.08,2.08,0,1,1-2.07-2.08,2.07,2.07,0,0,1,2.07,2.08"/></g></g><g class="cls-21"><g class="cls-28"><path class="cls-23" d="M399.43,220.84a2.08,2.08,0,1,1-2.08-2.08,2.08,2.08,0,0,1,2.08,2.08"/></g></g><g class="cls-21"><g class="cls-29"><path class="cls-23" d="M411.74,220.84a2.08,2.08,0,1,1-2.08-2.08,2.08,2.08,0,0,1,2.08,2.08"/></g></g><g class="cls-21"><g class="cls-30"><path class="cls-23" d="M424,220.84a2.08,2.08,0,1,1-2.08-2.08,2.08,2.08,0,0,1,2.08,2.08"/></g></g><g class="cls-21"><g class="cls-31"><path class="cls-23" d="M337.9,209.35a2.08,2.08,0,1,1-2.08-2.08,2.08,2.08,0,0,1,2.08,2.08"/></g></g><g class="cls-21"><g class="cls-32"><path class="cls-23" d="M350.2,209.35a2.08,2.08,0,1,1-2.07-2.08,2.08,2.08,0,0,1,2.07,2.08"/></g></g><g class="cls-21"><g class="cls-33"><path class="cls-23" d="M362.51,209.35a2.08,2.08,0,1,1-2.08-2.08,2.08,2.08,0,0,1,2.08,2.08"/></g></g><g class="cls-21"><g class="cls-34"><path class="cls-23" d="M374.82,209.35a2.08,2.08,0,1,1-2.08-2.08,2.08,2.08,0,0,1,2.08,2.08"/></g></g><g class="cls-21"><g class="cls-35"><path class="cls-23" d="M387.12,209.35a2.08,2.08,0,1,1-2.07-2.08,2.08,2.08,0,0,1,2.07,2.08"/></g></g><g class="cls-21"><g class="cls-36"><path class="cls-23" d="M399.43,209.35a2.08,2.08,0,1,1-2.08-2.08,2.08,2.08,0,0,1,2.08,2.08"/></g></g><g class="cls-21"><g class="cls-37"><path class="cls-23" d="M411.74,209.35a2.08,2.08,0,1,1-2.08-2.08,2.08,2.08,0,0,1,2.08,2.08"/></g></g><g class="cls-21"><g class="cls-38"><path class="cls-23" d="M424,209.35a2.08,2.08,0,1,1-2.08-2.08,2.08,2.08,0,0,1,2.08,2.08"/></g></g><g class="cls-21"><g class="cls-39"><path class="cls-23" d="M337.9,197.87a2.08,2.08,0,1,1-2.08-2.08,2.08,2.08,0,0,1,2.08,2.08"/></g></g><g class="cls-21"><g class="cls-40"><path class="cls-23" d="M350.2,197.87a2.08,2.08,0,1,1-2.07-2.08,2.08,2.08,0,0,1,2.07,2.08"/></g></g><g class="cls-21"><g class="cls-41"><path class="cls-23" d="M362.51,197.87a2.08,2.08,0,1,1-2.08-2.08,2.08,2.08,0,0,1,2.08,2.08"/></g></g><g class="cls-21"><g class="cls-42"><path class="cls-23" d="M374.82,197.87a2.08,2.08,0,1,1-2.08-2.08,2.08,2.08,0,0,1,2.08,2.08"/></g></g><g class="cls-21"><g class="cls-43"><path class="cls-23" d="M387.12,197.87a2.08,2.08,0,1,1-2.07-2.08,2.08,2.08,0,0,1,2.07,2.08"/></g></g><g class="cls-21"><g class="cls-44"><path class="cls-23" d="M399.43,197.87a2.08,2.08,0,1,1-2.08-2.08,2.08,2.08,0,0,1,2.08,2.08"/></g></g><g class="cls-21"><g class="cls-45"><path class="cls-23" d="M411.74,197.87a2.08,2.08,0,1,1-2.08-2.08,2.08,2.08,0,0,1,2.08,2.08"/></g></g><g class="cls-21"><g class="cls-46"><path class="cls-23" d="M424,197.87a2.08,2.08,0,1,1-2.08-2.08,2.08,2.08,0,0,1,2.08,2.08"/></g></g><g class="cls-21"><g class="cls-47"><path class="cls-23" d="M337.9,186.39a2.08,2.08,0,1,1-2.08-2.08,2.08,2.08,0,0,1,2.08,2.08"/></g></g><g class="cls-21"><g class="cls-48"><path class="cls-23" d="M350.2,186.39a2.08,2.08,0,1,1-2.07-2.08,2.08,2.08,0,0,1,2.07,2.08"/></g></g><g class="cls-21"><g class="cls-49"><path class="cls-23" d="M362.51,186.39a2.08,2.08,0,1,1-2.08-2.08,2.08,2.08,0,0,1,2.08,2.08"/></g></g><g class="cls-21"><g class="cls-50"><path class="cls-23" d="M374.82,186.39a2.08,2.08,0,1,1-2.08-2.08,2.08,2.08,0,0,1,2.08,2.08"/></g></g><g class="cls-21"><g class="cls-51"><path class="cls-23" d="M387.12,186.39a2.08,2.08,0,1,1-2.07-2.08,2.08,2.08,0,0,1,2.07,2.08"/></g></g><g class="cls-21"><g class="cls-52"><path class="cls-23" d="M399.43,186.39a2.08,2.08,0,1,1-2.08-2.08,2.08,2.08,0,0,1,2.08,2.08"/></g></g><g class="cls-21"><g class="cls-53"><path class="cls-23" d="M411.74,186.39a2.08,2.08,0,1,1-2.08-2.08,2.08,2.08,0,0,1,2.08,2.08"/></g></g><g class="cls-21"><g class="cls-54"><path class="cls-23" d="M424,186.39a2.08,2.08,0,1,1-2.08-2.08,2.08,2.08,0,0,1,2.08,2.08"/></g></g><g class="cls-21"><g class="cls-55"><path class="cls-23" d="M337.9,174.9a2.08,2.08,0,1,1-2.08-2.08,2.08,2.08,0,0,1,2.08,2.08"/></g></g><g class="cls-21"><g class="cls-56"><path class="cls-23" d="M350.2,174.9a2.08,2.08,0,1,1-2.07-2.08,2.08,2.08,0,0,1,2.07,2.08"/></g></g><g class="cls-21"><g class="cls-57"><path class="cls-23" d="M362.51,174.9a2.08,2.08,0,1,1-2.08-2.08,2.08,2.08,0,0,1,2.08,2.08"/></g></g><g class="cls-21"><g class="cls-58"><path class="cls-23" d="M374.82,174.9a2.08,2.08,0,1,1-2.08-2.08,2.08,2.08,0,0,1,2.08,2.08"/></g></g><g class="cls-21"><g class="cls-59"><path class="cls-23" d="M387.12,174.9a2.08,2.08,0,1,1-2.07-2.08,2.08,2.08,0,0,1,2.07,2.08"/></g></g><g class="cls-21"><g class="cls-60"><path class="cls-23" d="M399.43,174.9a2.08,2.08,0,1,1-2.08-2.08,2.08,2.08,0,0,1,2.08,2.08"/></g></g><g class="cls-21"><g class="cls-61"><path class="cls-23" d="M411.74,174.9a2.08,2.08,0,1,1-2.08-2.08,2.08,2.08,0,0,1,2.08,2.08"/></g></g><g class="cls-21"><g class="cls-62"><path class="cls-23" d="M424,174.9a2.08,2.08,0,1,1-2.08-2.08A2.08,2.08,0,0,1,424,174.9"/></g></g><g class="cls-21"><g class="cls-63"><path class="cls-23" d="M337.9,163.42a2.08,2.08,0,1,1-2.08-2.08,2.08,2.08,0,0,1,2.08,2.08"/></g></g><g class="cls-21"><g class="cls-64"><path class="cls-23" d="M350.2,163.42a2.08,2.08,0,1,1-2.07-2.08,2.08,2.08,0,0,1,2.07,2.08"/></g></g><g class="cls-21"><g class="cls-65"><path class="cls-23" d="M362.51,163.42a2.08,2.08,0,1,1-2.08-2.08,2.08,2.08,0,0,1,2.08,2.08"/></g></g><g class="cls-21"><g class="cls-66"><path class="cls-23" d="M374.82,163.42a2.08,2.08,0,1,1-2.08-2.08,2.08,2.08,0,0,1,2.08,2.08"/></g></g><g class="cls-21"><g class="cls-67"><path class="cls-23" d="M387.12,163.42a2.08,2.08,0,1,1-2.07-2.08,2.08,2.08,0,0,1,2.07,2.08"/></g></g><g class="cls-21"><g class="cls-68"><path class="cls-23" d="M399.43,163.42a2.08,2.08,0,1,1-2.08-2.08,2.08,2.08,0,0,1,2.08,2.08"/></g></g><g class="cls-21"><g class="cls-69"><path class="cls-23" d="M411.74,163.42a2.08,2.08,0,1,1-2.08-2.08,2.08,2.08,0,0,1,2.08,2.08"/></g></g><g class="cls-21"><g class="cls-70"><path class="cls-23" d="M424,163.42a2.08,2.08,0,1,1-2.08-2.08,2.08,2.08,0,0,1,2.08,2.08"/></g></g><g class="cls-21"><g class="cls-71"><path class="cls-23" d="M337.9,151.94a2.08,2.08,0,1,1-2.08-2.08,2.08,2.08,0,0,1,2.08,2.08"/></g></g><g class="cls-21"><g class="cls-72"><path class="cls-23" d="M350.2,151.94a2.08,2.08,0,1,1-2.07-2.08,2.08,2.08,0,0,1,2.07,2.08"/></g></g><g class="cls-21"><g class="cls-73"><path class="cls-23" d="M362.51,151.94a2.08,2.08,0,1,1-2.08-2.08,2.08,2.08,0,0,1,2.08,2.08"/></g></g><g class="cls-21"><g class="cls-74"><path class="cls-23" d="M374.82,151.94a2.08,2.08,0,1,1-2.08-2.08,2.08,2.08,0,0,1,2.08,2.08"/></g></g><g class="cls-21"><g class="cls-75"><path class="cls-23" d="M387.12,151.94a2.08,2.08,0,1,1-2.07-2.08,2.08,2.08,0,0,1,2.07,2.08"/></g></g><g class="cls-21"><g class="cls-76"><path class="cls-23" d="M399.43,151.94a2.08,2.08,0,1,1-2.08-2.08,2.08,2.08,0,0,1,2.08,2.08"/></g></g><g class="cls-21"><g class="cls-77"><path class="cls-23" d="M411.74,151.94a2.08,2.08,0,1,1-2.08-2.08,2.08,2.08,0,0,1,2.08,2.08"/></g></g><g class="cls-21"><g class="cls-78"><path class="cls-23" d="M424,151.94a2.08,2.08,0,1,1-2.08-2.08,2.08,2.08,0,0,1,2.08,2.08"/></g></g><g class="cls-21"><g class="cls-79"><path class="cls-23" d="M337.9,140.45a2.08,2.08,0,1,1-2.08-2.07,2.08,2.08,0,0,1,2.08,2.07"/></g></g><g class="cls-21"><g class="cls-80"><path class="cls-23" d="M350.2,140.45a2.08,2.08,0,1,1-2.07-2.07,2.08,2.08,0,0,1,2.07,2.07"/></g></g><g class="cls-21"><g class="cls-81"><path class="cls-23" d="M362.51,140.45a2.08,2.08,0,1,1-2.08-2.07,2.08,2.08,0,0,1,2.08,2.07"/></g></g><g class="cls-21"><g class="cls-82"><path class="cls-23" d="M374.82,140.45a2.08,2.08,0,1,1-2.08-2.07,2.08,2.08,0,0,1,2.08,2.07"/></g></g><g class="cls-21"><g class="cls-83"><path class="cls-23" d="M387.12,140.45a2.08,2.08,0,1,1-2.07-2.07,2.08,2.08,0,0,1,2.07,2.07"/></g></g><g class="cls-21"><g class="cls-84"><path class="cls-23" d="M399.43,140.45a2.08,2.08,0,1,1-2.08-2.07,2.08,2.08,0,0,1,2.08,2.07"/></g></g><g class="cls-21"><g class="cls-85"><path class="cls-23" d="M411.74,140.45a2.08,2.08,0,1,1-2.08-2.07,2.08,2.08,0,0,1,2.08,2.07"/></g></g><g class="cls-21"><g class="cls-86"><path class="cls-23" d="M424,140.45a2.08,2.08,0,1,1-2.08-2.07,2.08,2.08,0,0,1,2.08,2.07"/></g></g><g class="cls-21"><g class="cls-87"><path class="cls-23" d="M337.9,129a2.08,2.08,0,1,1-2.08-2.08A2.08,2.08,0,0,1,337.9,129"/></g></g><g class="cls-21"><g class="cls-88"><path class="cls-23" d="M350.2,129a2.08,2.08,0,1,1-2.07-2.08A2.08,2.08,0,0,1,350.2,129"/></g></g><g class="cls-21"><g class="cls-89"><path class="cls-23" d="M362.51,129a2.08,2.08,0,1,1-2.08-2.08,2.08,2.08,0,0,1,2.08,2.08"/></g></g><g class="cls-21"><g class="cls-90"><path class="cls-23" d="M374.82,129a2.08,2.08,0,1,1-2.08-2.08,2.08,2.08,0,0,1,2.08,2.08"/></g></g><g class="cls-21"><g class="cls-91"><path class="cls-23" d="M387.12,129a2.08,2.08,0,1,1-2.07-2.08,2.08,2.08,0,0,1,2.07,2.08"/></g></g><g class="cls-21"><g class="cls-92"><path class="cls-23" d="M399.43,129a2.08,2.08,0,1,1-2.08-2.08,2.08,2.08,0,0,1,2.08,2.08"/></g></g><g class="cls-21"><g class="cls-93"><path class="cls-23" d="M411.74,129a2.08,2.08,0,1,1-2.08-2.08,2.08,2.08,0,0,1,2.08,2.08"/></g></g><g class="cls-21"><g class="cls-94"><path class="cls-23" d="M424,129a2.08,2.08,0,1,1-2.08-2.08A2.08,2.08,0,0,1,424,129"/></g></g></g><g class="cls-4"><path class="cls-16" d="M388.15,175.65l12.26-27.06a3.83,3.83,0,0,1,2.48-2.12l49.86-13.68c.85-.23,2.57,1.85,2.19,2.64l-18.15,33.68a5.22,5.22,0,0,1-2.82,2.57l-46.9,17.78Z"/><path class="cls-6" d="M389,177.65l12.26-27.06a3.82,3.82,0,0,1,2.49-2.12l49.86-13.68a1,1,0,0,1,1.18,1.42L437.69,171.1a5.26,5.26,0,0,1-2.83,2.58L388,191.45Z"/><path class="cls-7" d="M401.15,184s1,2.35-3.95,6.91-12.48,1.61-12.48,1.61l-19.93,15.12a16,16,0,0,1-25.2-9.55l-.13-.69-1.31-6.32,10.61-6.22,8.47-5,.28,1.58,1.33,7.3,21.66-10.6s4.36-7,6.44-9.46,4.42-2.87,5.16-1.27-4,8.19-4,8.19,1.74-.14,7-2,8.65-5.55,10.05-4.42.61,4.42-1.27,7a10.49,10.49,0,0,1-2.75,7.77"/><polygon class="cls-11" points="357.51 181.49 339.46 197.42 338.15 191.1 348.76 184.88 357.23 179.91 357.51 181.49"/><path class="cls-23" d="M384.52,129.53c-.83,4.7-3.48,9.44-10.59,10.21-5.62.62-9.54-1.08-12.24-3.4a16.76,16.76,0,0,1-2.95-3.41,19.24,19.24,0,0,1-1.64-3l3.48-1.6,2.49.67H380.7l2.19.3c.55.07,1.1.16,1.63.26"/><path class="cls-7" d="M374.47,136.55c-9.86,1.1-13.89-8.25-13.89-8.25l2-.87a81.56,81.56,0,0,0-.4-12.41l2.81.73,13.88,3.57c-1.28,3-.94,7.21-.79,8.55,0,.27.06.43.06.43l2.54.67s.41,6.84-6.23,7.58"/><path class="cls-11" d="M378.1,127.87c-5.55.13-12.61-1.81-14.78-9.06a2.22,2.22,0,0,1,1.69-3.06l13.88,3.57c-1.28,3-.94,7.21-.79,8.55"/><path class="cls-10" d="M359.85,110.06l-5.05-6.2a7.58,7.58,0,0,1-1.24-7.37,12.6,12.6,0,0,1,1.25-3c.41-.6.68-.45.63-1.13-.08-1.07-1.06-1.74-1.12-2.89a6.5,6.5,0,0,1,1-3.89,9.08,9.08,0,0,1,5.34-3.69,19.14,19.14,0,0,1,6.58-.42,27.91,27.91,0,0,1,8.28,1.77,18.22,18.22,0,0,1,3.67,2c.63.45,2.22,2.38,2.87,1.87,1.22-1,2.67-2.14,4.14-1.64s1.91,2.43,1.89,4a32.05,32.05,0,0,1-2.94,11.84c-1,2.3-1.48,5.17-3.85,6.3-3.88,1.84-8.77,2-13,2.26-2,.13-4,.19-6,.22-.29,0-2.25.25-2.45,0"/><path class="cls-7" d="M384.18,100.38a26.13,26.13,0,0,0-.33,4.52c0,1.38.27,3.68.3,6.19a23.81,23.81,0,0,1-.45,5.38c-.88,4.08-3.31,7.55-9.43,7.55-12.54,0-13.82-12.41-13.82-12.41a2,2,0,0,1-3.15,1.58c-2.1-1.06-2.81-5.85-.44-7,1.4-.67,2.89.24,3.89,1.1a.61.61,0,0,0,1-.52l-.51-5.85c3.43,1,15.7-2.45,20.52-7.21a8.08,8.08,0,0,0,1.72,3.76,3.82,3.82,0,0,1,.69,2.89"/><path class="cls-12" d="M375.32,114l1.12-.65a1.74,1.74,0,0,0,.71-2.18L375.32,107"/><path d="M371.29,109a.82.82,0,1,1-.8-1,.92.92,0,0,1,.8,1"/><path d="M380.88,108.4a.82.82,0,1,1-.8-1,.92.92,0,0,1,.8,1"/><path class="cls-13" d="M366.58,105.61a4.25,4.25,0,0,1,5-1.4"/><path class="cls-13" d="M382.58,104.34s-2-2.18-5.17-.18"/><path class="cls-23" d="M371.56,116.46l4.74.22a2.39,2.39,0,0,1-2.55,2.3,2.28,2.28,0,0,1-2.19-2.52"/><path class="cls-12" d="M356.63,108.56c1.41-.88,2.68.23,2.41,2.34"/><path class="cls-95" d="M370.85,113.72A2.82,2.82,0,1,1,368,110.9a2.81,2.81,0,0,1,2.82,2.82"/><path class="cls-95" d="M384.15,111.09a23.81,23.81,0,0,1-.45,5.38,2.51,2.51,0,0,1-.55.07,2.82,2.82,0,1,1,0-5.63,2.77,2.77,0,0,1,1,.18"/><line class="cls-12" x1="358.84" y1="188.78" x2="350.86" y2="192.81"/><path class="cls-12" d="M403.9,176.25c-1.74,3.48-11.35,4.83-11.35,4.83"/><path class="cls-12" d="M401.15,184c-3.89,4.16-10.32,3.15-10.32,3.15"/><line class="cls-15" x1="357.23" y1="179.91" x2="353.9" y2="155.76"/><line class="cls-15" x1="398.22" y1="199.11" x2="373.93" y2="219.59"/><path class="cls-8" d="M353,386.91,330.32,384a2.81,2.81,0,0,1-2.42-3.15l.46-3.6a2.81,2.81,0,0,1,3.15-2.43l22.68,2.93a2.81,2.81,0,0,1,2.43,3.15l-.47,3.6a2.8,2.8,0,0,1-3.14,2.43"/><line class="cls-15" x1="331.06" y1="374.79" x2="354.63" y2="377.83"/><path class="cls-8" d="M446.44,382.17l-22,6.41a2.8,2.8,0,0,1-3.48-1.91l-1-3.48a2.81,2.81,0,0,1,1.91-3.49l21.95-6.41a2.82,2.82,0,0,1,3.49,1.91l1,3.49a2.81,2.81,0,0,1-1.91,3.48"/><line class="cls-15" x1="421.48" y1="379.87" x2="444.29" y2="373.21"/><g class="cls-21"><g class="cls-96"><path class="cls-23" d="M404.09,152.53c1.33-1,3-1,3.76,0s.26,2.62-1.07,3.6-3,1-3.75,0-.27-2.62,1.06-3.6"/></g></g><g class="cls-21"><g class="cls-97"><path class="cls-23" d="M404.75,153.41a1.21,1.21,0,1,1-.55,1.85,1.39,1.39,0,0,1,.55-1.85"/></g></g><line class="cls-15" x1="386.08" y1="246.79" x2="379.74" y2="276.15"/><polyline class="cls-7" points="295.79 381.49 297.96 398.12 293.13 406.44 281.46 401.88 277.82 385.65"/><path class="cls-8" d="M322.87,409.78,297.42,395l-4.82,6.84H281.47l-1.21,10.32h42a1.3,1.3,0,0,0,.65-2.42"/><polyline class="cls-7" points="205.27 381.49 202.05 398.12 206.88 406.44 218.54 401.88 223.24 385.65"/><path class="cls-7" d="M308.49,219.36l-19.06,25.08a5.63,5.63,0,0,0-1.14,3l-1.63,22.33-6.84-46.93,9.66-16.16-1-3.21-3.64-12.11,18.8-7.1,1.15,3.38,6,17.71a15.13,15.13,0,0,1-2.29,14"/><polygon class="cls-11" points="304.82 187.65 288.51 203.47 284.87 191.37 303.67 184.27 304.82 187.65"/><polygon class="cls-9" points="299.27 385.79 276.21 389.54 258.09 311.71 253.59 292.4 253.48 291.92 224.09 391.5 200.97 385.16 222.46 246.79 224.09 236.3 282.64 235.43 283.27 241.15 299.27 385.79"/><polygon class="cls-98" points="283.27 241.15 222.46 246.79 223.33 241.15 224.09 236.3 282.64 235.43 283.17 240.17 283.27 241.15"/><path class="cls-98" d="M283.17,240.17c-12.72,1.84-50.84,1.16-59.84,1l.76-4.85,58.55-.87Z"/><path class="cls-8" d="M306.65,183.15l-13.55,8.07-1.74,1-4.09,2.44v.11l-.08,1.74-.62,14.21-.08,1.75-.62,14.21-.08,1.74-.2,4.47s2.42,2.68,1.75,5c-.17.55-4.2,1-10.19,1.28l-1.75.08c-4.15.17-9.06.29-14.21.34h-1.75c-4.72,0-9.6,0-14.21-.08l-1.74-.05c-5.4-.12-10.36-.32-14.22-.64l-1.74-.14c-3.86-.37-6.23-.86-6.17-1.47a9.77,9.77,0,0,1,2.27-5.37V226.7l.06-14.21v-1.75l.05-14.21v-.9l-1.44-.84-9-5.26-1.75-1L200.3,182l.62-1.38.79-1.74,6.39-14.22.78-1.74,2.68-6,.56-1.24c.37-.81.76-1.61,1.19-2.38a31.78,31.78,0,0,1,3.1-4.64c.47-.6,1-1.19,1.48-1.74a32.54,32.54,0,0,1,9.64-7.28c.57-.3,1.16-.56,1.74-.81a32.47,32.47,0,0,1,7.94-2.28l4.18-.65,2.1-.33,1.74-.27h.07l14.14,1.17,1.75.15,4.28.36,3.62.5c.22,0,.45.06.67.11A32.55,32.55,0,0,1,275.4,139c.59.2,1.17.43,1.75.67A32.83,32.83,0,0,1,288,146.91c.55.55,1.1,1.14,1.62,1.74s1.18,1.44,1.73,2.2a29.22,29.22,0,0,1,1.74,2.68,31.5,31.5,0,0,1,1.61,3.11l2.8,6.23.79,1.74,6.41,14.22.79,1.74Z"/><g class="cls-21"><g class="cls-99"><path class="cls-23" d="M304.71,178.83H293.1V164.61h5.2l-.78-1.74H293.1v-9.34a29.22,29.22,0,0,0-1.74-2.68v12H277.15V148.65h12.48c-.52-.6-1.06-1.19-1.62-1.74H277.15v-7.26c-.58-.24-1.16-.46-1.75-.66v7.92H261.19V136.6l-1.74-.15v10.46H245.23V135.29l-1.74.27v11.35H229.28v-8.09c-.59.25-1.18.51-1.75.81v7.28h-9.64c-.52.55-1,1.14-1.48,1.74h11.12v14.22H213.31v-9.58c-.43.77-.82,1.57-1.19,2.38l-.56,1.24v6h-2.67l-.79,1.74h3.46v14.22h-9.85l-.79,1.74h10.64v8l1.75,1v-9h14.22v14.22h-5.2l1.44.84v.9h3.76v14.21h-3.81v1.75h3.82V226.7h-3.87l0,1.75h3.89v10.22l1.75.14V228.45h14.21v11l1.74.05V228.45h14.22v11.13h1.74V228.45H275.4v10.78l1.75-.08v-10.7h8.64l.08-1.75h-8.72V212.49h9.33l.09-1.75h-9.42V196.53h10l.08-1.74H277.15V180.57h14.21v11.68l1.74-1V180.57h12.4Zm-77.18,0H213.31V164.61h14.22Zm16,47.87H229.28V212.49h14.21Zm0-16H229.28V196.53h14.21Zm0-16H229.28V180.57h14.21Zm0-16H229.28V164.61h14.21Zm0-16H229.28V148.65h14.21Zm16,63.83H245.23V212.49h14.22Zm0-16H245.23V196.53h14.22Zm0-16H245.23V180.57h14.22Zm0-16H245.23V164.61h14.22Zm0-16H245.23V148.65h14.22ZM275.4,226.7H261.19V212.49H275.4Zm0-16H261.19V196.53H275.4Zm0-16H261.19V180.57H275.4Zm0-16H261.19V164.61H275.4Zm0-16H261.19V148.65H275.4Zm16,16H277.15V164.61h14.21Z"/></g></g><path class="cls-23" d="M269.76,137.57c-1.35,5.72-4.56,11.31-11.92,11.25-12-.11-15.51-9.23-16.45-12.93l3.9-.61L265.47,137l3.62.5.67.11"/><line class="cls-15" x1="284.87" y1="191.37" x2="283.34" y2="168.18"/><path class="cls-10" d="M274.87,98.57s2.5,2.73.53,7.47a37.16,37.16,0,0,0-3.13,13.24c-.15,3.7-16.24,5.87-21.76,6.5-1.15.14-1.84.2-1.84.2l-4.38-8.6c-.58-1.53-2-4.41-3.2-7.74-2-5.39-3.53-12-.37-15.85,5.09-6.26,10.76-3.49,19.46-7.77s13.08-8.29,18.08-2.42-3.39,15-3.39,15"/><path class="cls-100" d="M252,123.92l-1.47,1.86c-1.15.14-1.84.2-1.84.2l-4.38-8.6c-.58-1.53-2-4.4-3.2-7.73,4.32-1.77,7.31-6.29,7.31-6.29Z"/><path class="cls-7" d="M265.47,137s.41,8.51-8.8,8.17-11.38-9.85-11.38-9.85l2.56-.54s.93-10.13,0-17.36l17.64,9a4.2,4.2,0,0,0-.48.54c-2.05,2.82-1.81,9.25-1.81,9.25Z"/><path class="cls-11" d="M263.2,136.15c-11.36.33-14.53-12.94-14.53-12.94L265,126.9c-2.05,2.82-1.81,9.25-1.81,9.25"/><path class="cls-7" d="M273.45,118.13a28.76,28.76,0,0,1-.27,4.72c-.93,6.11-4.19,10.44-12.06,9.81-11.63-.93-13.74-12.36-13.74-12.36a4.36,4.36,0,0,1-5.91-.36c-2.9-2.86-1.43-7.2,1.39-7.69,1.52-.26,3,1.28,4.07,2.76a.81.81,0,0,0,1.47-.47V103.36c0,.12,6.38,0,6.76,0,3.52-.13,8.66.14,11.29-2.72a12.51,12.51,0,0,1,.36,3.16,4.16,4.16,0,0,1-1.19,2.88,5.76,5.76,0,0,0,3.13-5.41,5.81,5.81,0,0,1,.86,4.55c.05-.23.78-.67,1-.84a9.28,9.28,0,0,0,1.93-2.43c.89,1.43.72,3.19.65,4.8a37.49,37.49,0,0,0,0,5.9,46.18,46.18,0,0,1,.33,4.91"/><path class="cls-12" d="M265,120.39l1.12-.66a1.72,1.72,0,0,0,.71-2.17L265,113.33"/><path d="M261,116.33a.82.82,0,1,1-.8-1,.92.92,0,0,1,.8,1"/><path d="M270.57,115.85a.82.82,0,1,1-.8-1,.92.92,0,0,1,.8,1"/><path class="cls-12" d="M241.91,115.33c1.71-1,3.79.67,3.38,3.12"/><path class="cls-12" d="M261.19,125a4.26,4.26,0,0,0,5.23.49"/><path class="cls-13" d="M256.27,112a4.25,4.25,0,0,1,5-1.4"/><path class="cls-13" d="M272.27,110.7s-2-2.19-5.16-.18"/><path class="cls-95" d="M259.49,120.39a2.82,2.82,0,1,1-2.81-2.82,2.81,2.81,0,0,1,2.81,2.82"/><path class="cls-95" d="M273.45,118.13a28.76,28.76,0,0,1-.27,4.72,3,3,0,0,1-1.39.36,2.82,2.82,0,1,1,0-5.63,2.74,2.74,0,0,1,1.66.55"/><path class="cls-16" d="M279.45,213H265a2.49,2.49,0,0,1-2.51-3.14l6.15-30.27a4,4,0,0,1,3.78-3.14H289a2.49,2.49,0,0,1,2.51,3.14l-8.22,30.27a4.06,4.06,0,0,1-3.79,3.14"/><path class="cls-6" d="M281.53,214.25H267a2.49,2.49,0,0,1-2.51-3.14l6.14-30.27a4.05,4.05,0,0,1,3.79-3.14H289a2.49,2.49,0,0,1,2.51,3.14l-6.14,30.27a4.06,4.06,0,0,1-3.79,3.14"/><path class="cls-7" d="M278,208.14c0,3-3.59,5.63-3.59,5.63s.86,4.08-5.89,5.45-13.59-4.46-13.59-4.46L211.36,224A16.41,16.41,0,0,1,193.08,201l6.29-13.6,2.18-4.73,22.22,13-1.59,2.73-2.3,4,35.27-1.25a30,30,0,0,0,5.94-5.59c2.34-3.09,3.18-3.8,5-2.64s-.17,6.44-1.74,8.45c5.63,3.13,12.39.71,15.11,1.11s2.77,3.63-1.47,5.73"/><path class="cls-12" d="M278,208.14c-3.47,1.5-12,.16-14.4-1.45"/><path class="cls-12" d="M274.42,213.77c-4.78.94-10.15.63-12.87-2.1"/><path class="cls-18" d="M272.87,190.89h0a1.3,1.3,0,0,1-1.31-1.64l1.16-5.89a2.08,2.08,0,0,1,1.95-1.63,1.3,1.3,0,0,1,1.31,1.63l-1.16,5.89a2.07,2.07,0,0,1-1.95,1.64"/><line class="cls-12" x1="219.88" y1="202.33" x2="208.17" y2="202.33"/><line class="cls-12" x1="289.48" y1="206.69" x2="295.7" y2="199.11"/><line class="cls-15" x1="223.77" y1="195.62" x2="236.47" y2="171.22"/><polygon class="cls-11" points="223.77 195.63 222.19 198.36 199.37 187.4 201.55 182.68 223.77 195.63"/><line class="cls-15" x1="253.48" y1="291.91" x2="261.54" y2="265.63"/><path class="cls-8" d="M177.13,409.78,202.58,395l4.83,6.84h11.13l1.21,10.32h-42a1.3,1.3,0,0,1-.66-2.42"/><path class="cls-14" d="M223.61,392.18l-22.4-4.61a2.8,2.8,0,0,1-2.18-3.32l.73-3.56a2.8,2.8,0,0,1,3.32-2.18l22.4,4.61a2.81,2.81,0,0,1,2.19,3.32l-.74,3.56a2.8,2.8,0,0,1-3.32,2.18"/><line class="cls-15" x1="202.64" y1="378.46" x2="225.91" y2="383.25"/><path class="cls-14" d="M299.6,387.89l-22.49,4.17a2.81,2.81,0,0,1-3.27-2.26l-.67-3.57a2.81,2.81,0,0,1,2.26-3.27l22.48-4.17a2.82,2.82,0,0,1,3.28,2.25l.66,3.57a2.81,2.81,0,0,1-2.25,3.28"/><line class="cls-15" x1="275" y1="383.08" x2="298.36" y2="378.75"/><line class="cls-15" x1="230.12" y1="229.99" x2="281.17" y2="222.48"/><polygon class="cls-98" points="260.92 268.85 258.09 311.71 253.59 292.4 253.63 291.42 260.92 268.85"/><circle class="cls-101" cx="260.17" cy="116.25" r="4.09" transform="translate(53.21 312.13) rotate(-67.5)"/><path class="cls-101" d="M275.62,116.25a4.1,4.1,0,1,1-4.09-4.09A4.1,4.1,0,0,1,275.62,116.25Z"/><path class="cls-101" d="M264.15,115.3a2.4,2.4,0,0,1,3.4,0"/><polyline class="cls-7" points="163.16 351.54 164.77 397.63 159.94 405.94 148.28 401.38 145.19 355.7"/><path class="cls-9" d="M189.68,409.28l-25.45-14.74-4.82,6.84H148.28l-1.21,10.33h42a1.3,1.3,0,0,0,.65-2.43"/><polyline class="cls-7" points="85.33 351.54 70.67 397.63 75.5 405.94 87.17 401.38 103.3 355.7"/><path class="cls-9" d="M45.76,409.28l25.45-14.74L76,401.38H87.17l1.2,10.33h-42a1.3,1.3,0,0,1-.65-2.43"/><path class="cls-8" d="M161.73,199.89l6,173.93-23.87,1.75-9.12-108.76L98.83,378.9l-21.18-6.66S106.34,253.93,109.56,237s1.61-25.76,6.71-37.55Z"/><path class="cls-10" d="M142.09,84.52A12.29,12.29,0,0,1,145,86.83a24.31,24.31,0,0,1,4.07,6.52c4.68,10.17,5,20.68,4.86,31.72a25.92,25.92,0,0,1-.82,7.25c-1.17,3.89-2,8-4.26,11.48a11.56,11.56,0,0,1-7.36,5.35c-2.67.45-4.74-1.46-7.13-1.32-6.35.4-2.83,10.86-8.48,12.63a28.68,28.68,0,0,1-2.93.41c-4.34.92-5.34,6.6-8.28,9.92a9.5,9.5,0,0,1-10.4,2.46c-1.74-.7-3.34-1.94-5.22-2-3.32-.13-5.64,3.34-8.82,4.31a7.13,7.13,0,0,1-7.51-2.62,9.35,9.35,0,0,1-1.33-8.06c.9-3.26,3.33-6.5,2.18-9.68-1.28-3.52-6.08-4.38-8.13-7.52-1.53-2.36-1.14-5.58.25-8C79.41,133,86.89,129,90.85,122.3c2.39-4,3.63-8.61,5.91-12.68,3.31-5.91,8-8.09,13-11.94,4.23-3.22,5.52-9.06,10.64-12a22.2,22.2,0,0,1,6.4-2.4c4.92-1.1,10.79-1.28,15.25,1.28"/><path class="cls-7" d="M175.54,154.29l8.85,19.85,13.68-32.09s1.74-11,3.15-14,.94-7.18,2.82-7.78,2.55,2.75,2.55,5.63a38.07,38.07,0,0,0,.47,5.64s7.84-6.84,8.31-9,.2-9.45,1.94-10.39,3.69,1.2,4.1,7.44S209.27,144,209.27,144l-9.19,44.52-25.75,4.69-15.28-25.07Z"/><path class="cls-14" d="M96.68,160.14l9.48,6.89.89.64,7.07,5.13c.31,8.16.6,16.31.94,24.47.29,7-1.79,14.16-3.07,21.09q-2.59,14-5.18,28c-1.62,8.78-3.24,17.57-5.57,26.18-1.47,5.46-3.23,10.83-5,16.2q-3,9.19-6,18.4L77,347.78l8.51,1.28c15.76-34.51,23.58-72,35.59-108q-9,57.06-19.32,113.87c23.08,7.1,47.88,4.57,71.89,2-5.14-26.24-2.92-53.29-3.84-80-.59-17.19-2.49-34.3-4.79-51.34-2-14.45-4.75-27.95-1.82-42.45,2-10-.8-16.86-.8-16.86l13.14-11.91-6.73-10.46a20.65,20.65,0,0,0-8.35-7.41c-.3-.14-.59-.28-.9-.41a19.69,19.69,0,0,0-3-1l-9.42-2.41-.52-.14-.38-.09L143,131.5l-9.27,0h-.89l-10.09,0-2.37,1.24-.91.48L111,137.73a19.86,19.86,0,0,0-4,2.7,11.22,11.22,0,0,0-.89.81,20.47,20.47,0,0,0-4.8,7.18Z"/><path class="cls-23" d="M119.49,133.28c2.77,5.65,10.07,8.95,19,8.37,7.53-.51,8.45-5.52,8.07-9.23L143,131.5l-20.25.06Z"/><path class="cls-7" d="M122.77,131.56a14.81,14.81,0,0,0,13.15,7.38c9.45,0,7.1-7.44,7.1-7.44l-2.68-.87.16-4.62.24-6.72-16.09-4.89a9.6,9.6,0,0,1,.73,2.75c.75,5.08-.06,13.48-.06,13.48Z"/><path class="cls-11" d="M124.65,114.4a9.6,9.6,0,0,1,.73,2.75s0,0,0,0c4.52,9.09,12.13,9.19,15.11,8.84l.24-6.72Z"/><path class="cls-7" d="M142,95.26l-1.07,2.52a2.13,2.13,0,0,1-.45.74,1.84,1.84,0,0,1-.65.34c-2.43.8-5.12.07-7.61.66a9.74,9.74,0,0,0-.49-3.39,4.85,4.85,0,0,1-1.4,3c-1.25,1-3.08.54-4.63.93a4.4,4.4,0,0,0-3,2.76c-.25.67-.16,1.37-.34,2a10.91,10.91,0,0,0-.65,2.37.19.19,0,0,1-.36.05c-.43-1.17-1.28-2.84-2.73-3-2.23-.27-4.4,2.55-3.12,6s6.39,1.59,6.39,1.59,4.17,10.15,13.75,10.43,11.7-7.84,11-12.83c-.45-3.06-1-6.56-.44-9.63a32.73,32.73,0,0,0-4.15-.93c0-1.2,0-2.4-.05-3.6"/><path class="cls-12" d="M117.88,106.23c.8.23,1.69,2.42,1.34,3.45"/><path class="cls-12" d="M137.09,112.55l1.12-.66a1.73,1.73,0,0,0,.71-2.17l-1.83-4.23"/><path d="M134.24,107a.82.82,0,1,1-.8-1,.92.92,0,0,1,.8,1"/><path d="M144,106.71a.82.82,0,1,1-.8-1,.92.92,0,0,1,.8,1"/><path class="cls-13" d="M128.87,102.06a4.26,4.26,0,0,1,5.14-.64"/><path class="cls-13" d="M144.43,102s-2-2.19-5.17-.18"/><path class="cls-12" d="M135.9,116.21a4.87,4.87,0,0,1-4.75-.76"/><path class="cls-14" d="M164.89,199.48h39.73a1.44,1.44,0,0,0,1.45-1l8.52-30.91a1.45,1.45,0,0,0-1-1.79l-.49-.13h-39.8Z"/><path class="cls-102" d="M188.57,184.06a3.09,3.09,0,1,0,3.08-3.09,3.08,3.08,0,0,0-3.08,3.09"/><path class="cls-103" d="M164.89,199.49H133.35a1.45,1.45,0,0,1-1.44-1.45v-.53a1.44,1.44,0,0,1,1.44-1.44h31.54a1.43,1.43,0,0,1,1.44,1.44V198a1.44,1.44,0,0,1-1.44,1.45"/><path class="cls-103" d="M174.81,167.51l-8.38,30.4a1.45,1.45,0,0,1-1.78,1l-.51-.15a1.44,1.44,0,0,1-1-1.77l8.38-30.4a1.45,1.45,0,0,1,1.78-1l.51.14a1.45,1.45,0,0,1,1,1.78"/><path class="cls-7" d="M82.35,208.34A13.17,13.17,0,0,0,103,219.2L125.08,204s12,2.64,17.42,2.15,11.18-3.36,11.22-4.47-21.76-3.4-20.73-4.3,10.76-1,10.9-3.07-2.32-2.82-6.39-3.09-9.25,1.78-9.25,1.78l-22.11,3.07,6.28-18.32,1.7-4.95L96.68,160.14l-1.13,3.68L82.94,204.45a13.12,13.12,0,0,0-.59,3.89"/><polygon class="cls-11" points="96.68 160.14 95.55 163.82 112.42 177.75 114.12 172.8 96.68 160.14"/><line class="cls-12" x1="106.14" y1="196.07" x2="96.69" y2="197.34"/><path class="cls-9" d="M158.53,197.78a.52.52,0,0,0,.52.52.53.53,0,0,0,.52-.52.52.52,0,0,0-.52-.52.52.52,0,0,0-.52.52"/><path class="cls-9" d="M156.42,197.78a.52.52,0,0,0,.52.52.53.53,0,0,0,.52-.52.52.52,0,0,0-.52-.52.52.52,0,0,0-.52.52"/><line class="cls-15" x1="114.12" y1="172.8" x2="121.63" y2="160.14"/><path class="cls-15" d="M162.4,166.19c-3.22-6.4-3.87-14.71-3.87-14.71"/><polygon class="cls-104" points="484.05 62.2 484.05 109.69 472.73 97.76 429.4 97.76 429.4 62.2 484.05 62.2"/><polygon class="cls-23" points="483.84 62.69 483.84 104.91 473.23 94.31 432.57 94.31 432.57 62.69 483.84 62.69"/><polygon class="cls-104" points="162.37 49.34 162.37 96.83 173.68 84.91 217.01 84.91 217.01 49.34 162.37 49.34"/><polygon class="cls-23" points="162.57 49.84 162.57 92.05 173.19 81.45 213.85 81.45 213.85 49.84 162.57 49.84"/></g></g></g></g></svg>