<?xml version="1.0" encoding="UTF-8"?>
<!DOCTYPE svg PUBLIC "-//W3C//DTD SVG 1.1//EN" "http://www.w3.org/Graphics/SVG/1.1/DTD/svg11.dtd">
<svg xmlns="http://www.w3.org/2000/svg" version="1.1" width="100px" height="100px" style="shape-rendering:geometricPrecision; text-rendering:geometricPrecision; image-rendering:optimizeQuality; fill-rule:evenodd; clip-rule:evenodd" xmlns:xlink="http://www.w3.org/1999/xlink">
<g><path style="opacity:1" fill="#371b46" d="M 44.5,1.5 C 68.6877,0.49849 85.1877,11.1652 94,33.5C 95.0732,39.4494 95.7399,45.4494 96,51.5C 101.034,64.264 96.8676,72.4306 83.5,76C 81.1466,77.2555 80.4799,78.9221 81.5,81C 80.0618,85.3732 78.2284,89.5399 76,93.5C 73.5311,95.6515 70.6978,97.1515 67.5,98C 48.1347,99.9912 30.1347,95.9912 13.5,86C 6.46651,80.2695 4.79985,73.2695 8.5,65C 5.84389,55.9197 3.51056,46.9197 1.5,38C 1.44601,33.4948 2.61268,29.3282 5,25.5C 6.79976,23.683 8.96642,22.5163 11.5,22C 19.7149,10.5651 30.7149,3.73177 44.5,1.5 Z"/></g>
<g><path style="opacity:1" fill="#efecf0" d="M 53.5,12.5 C 69.0253,19.6933 79.6919,31.3599 85.5,47.5C 85.5472,49.0004 84.8805,50.0004 83.5,50.5C 81.5638,45.6097 78.8971,41.2764 75.5,37.5C 63.5067,19.503 46.5067,11.003 24.5,12C 27.7811,9.12603 31.6144,7.95936 36,8.5C 42.1294,8.65788 47.9627,9.99121 53.5,12.5 Z"/></g>
<g><path style="opacity:1" fill="#f4f3f5" d="M 92.5,37.5 C 92.6567,38.8734 92.49,40.2068 92,41.5C 90.822,33.147 87.4887,25.8136 82,19.5C 82.7574,22.7837 83.7574,26.117 85,29.5C 85.8119,33.6888 85.6453,37.6888 84.5,41.5C 78.0855,27.4184 67.7522,17.4184 53.5,11.5C 47.6971,8.30349 41.3638,6.80349 34.5,7C 55.7683,0.199124 73.2683,5.69912 87,23.5C 89.6844,27.8632 91.5178,32.5299 92.5,37.5 Z"/></g>
<g><path style="opacity:1" fill="#9b8ca1" d="M 26.5,20.5 C 30.8461,20.3343 35.1794,20.501 39.5,21C 42.0432,21.1397 44.3766,21.8063 46.5,23C 31.9596,26.1103 20.6263,33.9437 12.5,46.5C 10.425,33.9717 15.0917,25.305 26.5,20.5 Z"/></g>
<g><path style="opacity:1" fill="#ded8e0" d="M 8.5,24.5 C 9.37644,24.3691 10.0431,24.7025 10.5,25.5C 7.31604,30.7169 5.31604,36.3836 4.5,42.5C 2.44194,35.6794 3.77527,29.6794 8.5,24.5 Z"/></g>
<g><path style="opacity:1" fill="#c3b9c7" d="M 92.5,37.5 C 93.8333,41.5 93.8333,45.5 92.5,49.5C 90.8333,49.5 89.1667,49.5 87.5,49.5C 87.0598,46.6202 86.0598,43.9535 84.5,41.5C 85.6453,37.6888 85.8119,33.6888 85,29.5C 83.7574,26.117 82.7574,22.7837 82,19.5C 87.4887,25.8136 90.822,33.147 92,41.5C 92.49,40.2068 92.6567,38.8734 92.5,37.5 Z"/></g>
<g><path style="opacity:1" fill="#291939" d="M 53.5,12.5 C 53.5,12.1667 53.5,11.8333 53.5,11.5C 67.7522,17.4184 78.0855,27.4184 84.5,41.5C 86.0598,43.9535 87.0598,46.6202 87.5,49.5C 89.1667,49.5 90.8333,49.5 92.5,49.5C 92.5,49.8333 92.5,50.1667 92.5,50.5C 83.7458,50.9146 78.7458,55.5813 77.5,64.5C 77.5611,68.4975 79.2277,71.4975 82.5,73.5C 82.5,74.1667 82.1667,74.5 81.5,74.5C 80.609,73.8902 79.609,73.5569 78.5,73.5C 78.6309,72.6236 78.2975,71.9569 77.5,71.5C 67.2178,78.4798 55.8844,81.1465 43.5,79.5C 33.4093,78.3624 24.4093,74.6957 16.5,68.5C 17.7927,67.3552 18.9593,67.6885 20,69.5C 20.414,69.0426 20.914,68.7093 21.5,68.5C 27.694,70.2528 34.0273,70.9194 40.5,70.5C 43.2163,72.0861 45.5497,71.7528 47.5,69.5C 49.4352,68.8505 51.4352,68.5172 53.5,68.5C 62.1232,71.3599 67.1232,68.3599 68.5,59.5C 72.3344,54.8272 76.0011,49.9938 79.5,45C 77.5056,42.8425 76.1723,40.3425 75.5,37.5C 78.8971,41.2764 81.5638,45.6097 83.5,50.5C 84.8805,50.0004 85.5472,49.0004 85.5,47.5C 79.6919,31.3599 69.0253,19.6933 53.5,12.5 Z"/></g>
<g><path style="opacity:1" fill="#e9e5ea" d="M 92.5,50.5 C 93.2899,51.7942 94.2899,52.9609 95.5,54C 87.0279,55.1378 82.8612,59.9712 83,68.5C 83.3768,69.9423 84.2101,70.9423 85.5,71.5C 85.6107,72.1174 85.944,72.6174 86.5,73C 85.2068,73.49 83.8734,73.6567 82.5,73.5C 79.2277,71.4975 77.5611,68.4975 77.5,64.5C 78.7458,55.5813 83.7458,50.9146 92.5,50.5 Z"/></g>
<g><path style="opacity:1" fill="#f2eff2" d="M 89.5,56.5 C 92.3584,60.6309 91.6917,64.4642 87.5,68C 86.552,68.4828 85.552,68.6495 84.5,68.5C 83.9781,63.5486 85.6447,59.5486 89.5,56.5 Z"/></g>
<g><path style="opacity:1" fill="#05a1f4" d="M 93.5,58.5 C 95.3079,59.9179 95.9746,61.9179 95.5,64.5C 94.325,64.719 93.325,64.3857 92.5,63.5C 93.3094,61.9291 93.6427,60.2624 93.5,58.5 Z"/></g>
<g><path style="opacity:1" fill="#968d9e" d="M 68.5,59.5 C 67.1232,68.3599 62.1232,71.3599 53.5,68.5C 51.688,64.9322 52.688,62.4322 56.5,61C 59.0546,59.5555 61.7213,58.3888 64.5,57.5C 66.0729,57.7517 67.4062,58.4183 68.5,59.5 Z"/></g>
<g><path style="opacity:1" fill="#9c8fa3" d="M 47.5,69.5 C 45.5497,71.7528 43.2163,72.0861 40.5,70.5C 39.428,65.0889 41.5947,63.4223 47,65.5C 47.49,66.7932 47.6567,68.1266 47.5,69.5 Z"/></g>
<g><path style="opacity:1" fill="#119bed" d="M 91.5,70.5 C 90.5,70.1667 89.8333,69.5 89.5,68.5C 90.614,65.5927 92.2807,65.0927 94.5,67C 93.8366,68.5185 92.8366,69.6851 91.5,70.5 Z"/></g>
<g><path style="opacity:1" fill="#2c5898" d="M 89.5,68.5 C 89.8333,69.5 90.5,70.1667 91.5,70.5C 89.842,72.6536 87.842,72.9869 85.5,71.5C 86.2114,69.7986 87.5447,68.7986 89.5,68.5 Z"/></g>
<g><path style="opacity:1" fill="#d370f6" d="M 10.5,69.5 C 14.3368,70.203 14.5034,71.5364 11,73.5C 10.51,72.2068 10.3433,70.8734 10.5,69.5 Z"/></g>
<g><path style="opacity:1" fill="#b251e9" d="M 16.5,74.5 C 16.5,76.1667 16.5,77.8333 16.5,79.5C 12.2348,78.1013 11.5681,75.7679 14.5,72.5C 15.5223,72.8555 16.189,73.5222 16.5,74.5 Z"/></g>
<g><path style="opacity:1" fill="#e7e3e8" d="M 16.5,68.5 C 24.4093,74.6957 33.4093,78.3624 43.5,79.5C 44.6085,80.29 45.9419,80.79 47.5,81C 42.8275,81.1675 38.1609,80.8342 33.5,80C 29.8115,77.6552 25.8115,76.1552 21.5,75.5C 15.567,72.4146 11.7337,67.7479 10,61.5C 11.7186,64.2879 13.8852,66.6212 16.5,68.5 Z"/></g>
<g><path style="opacity:1" fill="#c8becb" d="M 78.5,73.5 C 61.2718,83.6636 43.2718,85.1636 24.5,78C 23.4293,77.1482 22.4293,76.3149 21.5,75.5C 25.8115,76.1552 29.8115,77.6552 33.5,80C 38.1609,80.8342 42.8275,81.1675 47.5,81C 45.9419,80.79 44.6085,80.29 43.5,79.5C 55.8844,81.1465 67.2178,78.4798 77.5,71.5C 78.2975,71.9569 78.6309,72.6236 78.5,73.5 Z"/></g>
<g><path style="opacity:1" fill="#38abee" d="M 19.5,84.5 C 18.6618,84.8417 18.3284,85.5084 18.5,86.5C 13.9326,84.4482 11.0993,81.1149 10,76.5C 12.7749,79.7797 15.9416,82.4463 19.5,84.5 Z"/></g>
<g><path style="opacity:1" fill="#c8bdcb" d="M 78.5,73.5 C 79.609,73.5569 80.609,73.8902 81.5,74.5C 74.8391,82.8419 66.1725,86.0086 55.5,84C 60.2564,82.9776 64.923,81.6443 69.5,80C 72.9614,78.3572 75.9614,76.1905 78.5,73.5 Z"/></g>
<g><path style="opacity:1" fill="#d299f0" d="M 16.5,74.5 C 21.2708,78.2188 26.6042,80.8854 32.5,82.5C 32.5674,83.9587 32.2341,85.2921 31.5,86.5C 25.6152,85.8806 20.6152,83.5473 16.5,79.5C 16.5,77.8333 16.5,76.1667 16.5,74.5 Z"/></g>
<g><path style="opacity:1" fill="#b451ef" d="M 32.5,82.5 C 37.888,84.8786 43.5546,85.8786 49.5,85.5C 50.5676,86.4345 51.901,86.7678 53.5,86.5C 53.5,87.8333 53.5,89.1667 53.5,90.5C 50.5,90.5 47.5,90.5 44.5,90.5C 39.7363,90.2311 35.403,88.8978 31.5,86.5C 32.2341,85.2921 32.5674,83.9587 32.5,82.5 Z"/></g>
<g><path style="opacity:1" fill="#9241c2" d="M 61.5,87.5 C 61.5,86.8333 61.5,86.1667 61.5,85.5C 67.4715,85.8426 72.8049,84.176 77.5,80.5C 78.6309,82.0745 78.7975,83.7412 78,85.5C 73.5404,90.1631 68.0404,92.1631 61.5,91.5C 61.5,90.1667 61.5,88.8333 61.5,87.5 Z"/></g>
<g><path style="opacity:1" fill="#411556" d="M 49.5,85.5 C 53.5,85.5 57.5,85.5 61.5,85.5C 61.5,86.1667 61.5,86.8333 61.5,87.5C 60.5489,88.9187 60.2155,90.5853 60.5,92.5C 57.6146,92.8064 54.9479,92.4731 52.5,91.5C 54.8333,91.5 57.1667,91.5 59.5,91.5C 59.5,89.8333 59.5,88.1667 59.5,86.5C 57.5,86.5 55.5,86.5 53.5,86.5C 51.901,86.7678 50.5676,86.4345 49.5,85.5 Z"/></g>
<g><path style="opacity:1" fill="#6acdf2" d="M 19.5,84.5 C 22.8377,85.836 26.1711,87.1693 29.5,88.5C 29.5,89.8333 28.8333,90.5 27.5,90.5C 24.3777,89.4388 21.3777,88.1054 18.5,86.5C 18.3284,85.5084 18.6618,84.8417 19.5,84.5 Z"/></g>
<g><path style="opacity:1" fill="#9140c0" d="M 53.5,86.5 C 55.5,86.5 57.5,86.5 59.5,86.5C 59.5,88.1667 59.5,89.8333 59.5,91.5C 57.1667,91.5 54.8333,91.5 52.5,91.5C 49.6146,91.8064 46.9479,91.4731 44.5,90.5C 47.5,90.5 50.5,90.5 53.5,90.5C 53.5,89.1667 53.5,87.8333 53.5,86.5 Z"/></g>
<g><path style="opacity:1" fill="#1195e7" d="M 29.5,88.5 C 36.9777,90.9522 44.6444,92.6189 52.5,93.5C 51.0101,95.2798 49.0101,95.9465 46.5,95.5C 39.8053,94.8174 33.4719,93.1507 27.5,90.5C 28.8333,90.5 29.5,89.8333 29.5,88.5 Z"/></g>
<g><path style="opacity:1" fill="#1572be" d="M 46.5,95.5 C 49.0101,95.9465 51.0101,95.2798 52.5,93.5C 60.3706,93.7075 68.0373,92.8742 75.5,91C 74.0226,93.1485 72.0226,94.4818 69.5,95C 61.7213,96.7034 54.0546,96.8701 46.5,95.5 Z"/></g>
<g><path style="opacity:0.008" fill="#d1c7f4" d="M -0.5,96.5 C 0.833333,97.1667 0.833333,97.8333 -0.5,98.5C -0.5,97.8333 -0.5,97.1667 -0.5,96.5 Z"/></g>
</svg>
