<svg width="339" height="324" viewBox="0 0 339 324" fill="none" xmlns="http://www.w3.org/2000/svg">
<path d="M215.709 96.1443L217.04 96.8364L217.728 95.5139L216.41 94.8179L215.709 96.1443ZM206.163 114.5L204.832 113.808L203.059 117.218L206.673 115.911L206.163 114.5ZM235.979 103.717L236.342 102.261L235.899 102.151L235.469 102.306L235.979 103.717ZM335.763 65.0579C335.763 75.9113 328.154 86.0202 315.238 93.4992C302.361 100.956 284.472 105.616 264.632 105.616V108.616C284.904 108.616 303.331 103.861 316.742 96.0954C330.113 88.3525 338.763 77.4324 338.763 65.0579H335.763ZM264.632 24.5C284.472 24.5 302.361 29.16 315.238 36.6165C328.154 44.0956 335.763 54.2045 335.763 65.0579H338.763C338.763 52.6834 330.113 41.7633 316.742 34.0204C303.331 26.255 284.904 21.5 264.632 21.5V24.5ZM193.5 65.0579C193.5 54.2045 201.109 44.0956 214.025 36.6165C226.902 29.16 244.791 24.5 264.632 24.5V21.5C244.359 21.5 225.932 26.255 212.522 34.0204C199.15 41.7633 190.5 52.6834 190.5 65.0579H193.5ZM216.41 94.8179C202.063 87.2431 193.5 76.5667 193.5 65.0579H190.5C190.5 78.1801 200.219 89.662 215.009 97.4708L216.41 94.8179ZM207.494 115.192L217.04 96.8364L214.378 95.4522L204.832 113.808L207.494 115.192ZM235.469 102.306L205.653 113.089L206.673 115.911L236.489 105.127L235.469 102.306ZM264.632 105.616C254.574 105.616 245.01 104.418 236.342 102.261L235.617 105.172C244.531 107.39 254.339 108.616 264.632 108.616V105.616Z" fill="white"/>
<path d="M235.965 70H228.696V57.1504H235.965V58.9258H230.797V62.4238H235.64V64.1816H230.797V68.2158H235.965V70ZM243.462 60.1035C243.878 60.1035 244.221 60.1328 244.49 60.1914L244.288 62.1162C243.995 62.0459 243.69 62.0107 243.374 62.0107C242.548 62.0107 241.877 62.2803 241.361 62.8193C240.852 63.3584 240.597 64.0586 240.597 64.9199V70H238.531V60.2793H240.148L240.421 61.9932H240.526C240.849 61.4131 241.268 60.9531 241.783 60.6133C242.305 60.2734 242.864 60.1035 243.462 60.1035ZM251.231 60.1035C251.647 60.1035 251.99 60.1328 252.26 60.1914L252.058 62.1162C251.765 62.0459 251.46 62.0107 251.144 62.0107C250.317 62.0107 249.646 62.2803 249.131 62.8193C248.621 63.3584 248.366 64.0586 248.366 64.9199V70H246.301V60.2793H247.918L248.19 61.9932H248.296C248.618 61.4131 249.037 60.9531 249.553 60.6133C250.074 60.2734 250.634 60.1035 251.231 60.1035ZM262.692 65.1221C262.692 66.71 262.285 67.9492 261.471 68.8398C260.656 69.7305 259.522 70.1758 258.069 70.1758C257.161 70.1758 256.358 69.9707 255.661 69.5605C254.964 69.1504 254.428 68.5615 254.053 67.7939C253.678 67.0264 253.49 66.1357 253.49 65.1221C253.49 63.5459 253.895 62.3154 254.703 61.4307C255.512 60.5459 256.651 60.1035 258.122 60.1035C259.528 60.1035 260.642 60.5576 261.462 61.4658C262.282 62.3682 262.692 63.5869 262.692 65.1221ZM255.617 65.1221C255.617 67.3662 256.446 68.4883 258.104 68.4883C259.745 68.4883 260.565 67.3662 260.565 65.1221C260.565 62.9014 259.739 61.791 258.087 61.791C257.22 61.791 256.59 62.0781 256.197 62.6523C255.811 63.2266 255.617 64.0498 255.617 65.1221ZM270.005 60.1035C270.421 60.1035 270.764 60.1328 271.033 60.1914L270.831 62.1162C270.538 62.0459 270.233 62.0107 269.917 62.0107C269.091 62.0107 268.42 62.2803 267.904 62.8193C267.395 63.3584 267.14 64.0586 267.14 64.9199V70H265.074V60.2793H266.691L266.964 61.9932H267.069C267.392 61.4131 267.811 60.9531 268.326 60.6133C268.848 60.2734 269.407 60.1035 270.005 60.1035ZM281.193 61.9756C282.488 61.9756 283.514 62.3184 284.27 63.0039C285.025 63.6895 285.403 64.624 285.403 65.8076C285.403 67.1787 284.973 68.251 284.111 69.0244C283.256 69.792 282.037 70.1758 280.455 70.1758C279.02 70.1758 277.892 69.9443 277.071 69.4814V67.6094C277.546 67.8789 278.091 68.0869 278.706 68.2334C279.321 68.3799 279.893 68.4531 280.42 68.4531C281.352 68.4531 282.061 68.2451 282.547 67.8291C283.033 67.4131 283.276 66.8037 283.276 66.001C283.276 64.4658 282.298 63.6982 280.341 63.6982C280.065 63.6982 279.726 63.7275 279.321 63.7861C278.917 63.8389 278.562 63.9004 278.258 63.9707L277.335 63.4258L277.827 57.1504H284.507V58.9873H279.646L279.356 62.1689C279.562 62.1338 279.811 62.0928 280.104 62.0459C280.402 61.999 280.766 61.9756 281.193 61.9756ZM295.827 63.5752C295.827 65.8076 295.467 67.4658 294.746 68.5498C294.031 69.6338 292.936 70.1758 291.459 70.1758C290.029 70.1758 288.945 69.6162 288.207 68.4971C287.469 67.3779 287.1 65.7373 287.1 63.5752C287.1 61.3076 287.457 59.6377 288.172 58.5654C288.893 57.4873 289.988 56.9482 291.459 56.9482C292.895 56.9482 293.981 57.5107 294.72 58.6357C295.458 59.7607 295.827 61.4072 295.827 63.5752ZM289.191 63.5752C289.191 65.3271 289.37 66.5781 289.728 67.3281C290.091 68.0781 290.668 68.4531 291.459 68.4531C292.25 68.4531 292.827 68.0723 293.19 67.3105C293.56 66.5488 293.744 65.3037 293.744 63.5752C293.744 61.8525 293.56 60.6074 293.19 59.8398C292.827 59.0664 292.25 58.6797 291.459 58.6797C290.668 58.6797 290.091 59.0576 289.728 59.8135C289.37 60.5693 289.191 61.8232 289.191 63.5752ZM306.11 63.5752C306.11 65.8076 305.75 67.4658 305.029 68.5498C304.314 69.6338 303.219 70.1758 301.742 70.1758C300.312 70.1758 299.229 69.6162 298.49 68.4971C297.752 67.3779 297.383 65.7373 297.383 63.5752C297.383 61.3076 297.74 59.6377 298.455 58.5654C299.176 57.4873 300.271 56.9482 301.742 56.9482C303.178 56.9482 304.265 57.5107 305.003 58.6357C305.741 59.7607 306.11 61.4072 306.11 63.5752ZM299.475 63.5752C299.475 65.3271 299.653 66.5781 300.011 67.3281C300.374 68.0781 300.951 68.4531 301.742 68.4531C302.533 68.4531 303.11 68.0723 303.474 67.3105C303.843 66.5488 304.027 65.3037 304.027 63.5752C304.027 61.8525 303.843 60.6074 303.474 59.8398C303.11 59.0664 302.533 58.6797 301.742 58.6797C300.951 58.6797 300.374 59.0576 300.011 59.8135C299.653 60.5693 299.475 61.8232 299.475 63.5752Z" fill="white"/>
<path fill-rule="evenodd" clip-rule="evenodd" d="M189.444 219.788C188.032 215.446 189.714 210.431 188.615 205.75C188.238 203.898 187.521 197.02 186.802 192.997C186.4 190.747 188.807 190.049 189.177 189.151C191.78 181.083 172.79 162.105 171.63 161.405C169.893 160.401 168.356 159.537 166.659 158.511C161.708 156.771 155.77 151.931 151.282 155.039C143.505 143.458 146.581 129.189 142.361 127.493C138.141 125.797 125.679 122.369 118.554 126.746C114.284 129.907 114.598 135.349 112.65 139.836C111.506 141.949 110.944 145.009 109.613 146.387C105.089 151.068 99.4474 151.875 93.1406 152.669C92.6602 152.73 92.1549 151.423 91.6881 151.584C81.0495 155.263 68.6705 156.336 56.6223 176.933C54.9207 179.879 50.3305 184.605 51.8654 188.009C41.7524 211.534 31.8017 264.485 59.5506 277.69C60.4376 278.258 66.4549 275.214 67.4354 275.242C69.0698 275.289 65.9382 279.259 67.4354 278.552C78.4274 279.386 138.911 277.234 162.095 279.386C178.038 279.267 188.135 282.063 191.817 279.267C190.345 275.709 190.413 271.898 190.879 268.137C194.267 265.615 190.078 247.839 190.433 242.635C193.604 238.831 191.079 224.566 189.444 219.788Z" fill="white"/>
<path fill-rule="evenodd" clip-rule="evenodd" d="M184.39 193.752C182.869 195.965 181.472 198.243 180.208 200.613C179.557 201.835 178.95 203.081 178.403 204.353C178.289 201.603 178.264 198.821 177.943 196.098C177.92 195.901 177.592 195.806 177.557 196.045C177.203 198.514 177.144 201.047 177.01 203.543C176.855 203.496 176.685 203.468 176.497 203.468C174.671 203.468 172.873 203.618 171.055 203.766C170.24 203.832 169.387 203.882 168.556 204.012C169.225 203.273 169.848 202.492 170.423 201.677C171.01 200.846 171.68 199.548 170.658 198.75C169.529 197.869 167.314 199.021 166.222 199.47C165.669 199.697 165.127 199.944 164.593 200.207C163.919 198.317 161.852 198.067 160.081 198.327C158.818 198.514 157.592 198.946 156.361 199.275C154.798 199.693 153.229 200.086 151.654 200.455C148.818 201.119 145.962 201.699 143.093 202.202C143.017 202.114 142.912 202.045 142.771 202.01C141.789 201.764 140.705 201.952 139.697 201.971C138.661 201.99 137.625 201.988 136.589 201.967C134.738 201.929 132.889 201.914 131.038 201.882C130.512 201.563 129.845 201.105 129.682 200.505C129.478 199.755 130.115 198.925 130.41 198.287C131.545 195.838 131.942 193.098 131.497 190.43C131.418 189.955 131.254 189.435 131.018 188.948C133.045 189.165 135.047 189.312 137.085 189.379C141.156 189.511 145.226 189.65 149.298 189.68C157.441 189.741 165.583 189.741 173.726 189.682C178.33 189.648 182.923 189.606 187.521 189.371C187.147 189.846 186.782 190.331 186.426 190.824C186.353 190.802 186.257 190.842 186.268 190.933C186.272 190.965 186.275 190.997 186.279 191.028C185.63 191.935 185.005 192.857 184.39 193.752ZM175.336 277.968C173.444 277.908 171.552 277.848 169.66 277.787C165.946 277.669 162.231 277.551 158.518 277.433C151.16 277.198 143.802 276.972 136.443 276.769C129.102 276.567 121.757 276.352 114.414 276.582C107.054 276.811 99.7132 277.405 92.367 277.882C88.283 278.147 84.196 278.377 80.1044 278.487C76.2075 278.591 72.2763 278.433 68.3856 278.711C68.2548 277.749 68.3509 276.789 68.3368 275.831C69.613 275.093 70.8656 274.31 72.1037 273.539C76.6172 270.731 80.8835 267.554 84.9077 264.081C85.5263 263.547 86.1329 263.001 86.7333 262.45C86.3154 263.364 86.6499 264.542 87.8475 264.928C89.308 265.4 90.8034 265.232 92.3203 265.197C93.8606 265.16 95.401 265.126 96.9415 265.093C99.9523 265.03 102.963 264.972 105.974 264.922C111.856 264.823 117.739 264.75 123.621 264.703C135.456 264.607 147.283 264.768 159.117 264.982C162.444 265.042 165.768 265.117 169.096 265.041C170.761 265.004 172.432 264.992 174.095 264.902C175.427 264.83 176.768 264.641 178.1 264.472C178.268 266.793 178.443 269.113 178.639 271.432C178.768 272.963 178.901 274.494 179.033 276.025C179.087 276.656 179.091 277.301 179.18 277.901C177.901 277.971 176.63 278.009 175.336 277.968ZM176.637 212.433C176.591 214.21 176.566 215.987 176.553 217.765C176.4 217.677 176.227 217.613 176.032 217.583C173.962 217.267 171.748 217.507 169.654 217.542C167.631 217.576 165.6 217.565 163.578 217.66C161.552 217.756 159.527 217.87 157.502 217.975C156.552 218.025 155.612 218.067 154.669 218.196C154.023 218.284 153.196 218.278 152.506 218.462C155.402 215.656 158.281 212.835 161.169 210.022C161.255 209.937 161.318 209.848 161.362 209.757C163.287 208.583 165.135 207.262 166.809 205.75C168.136 206.262 169.647 206.326 171.055 206.44C172.874 206.588 174.671 206.738 176.497 206.738C176.62 206.738 176.736 206.726 176.844 206.704C176.755 208.613 176.687 210.522 176.637 212.433ZM101.458 246.944C105.879 248.356 110.668 248.34 115.266 248.623C120.169 248.925 125.064 249.175 129.972 249.367C139.775 249.747 149.571 250.265 159.372 250.677C164.971 250.912 170.568 251.172 176.164 251.454C176.561 251.474 176.939 251.372 177.273 251.185C177.461 254.872 177.681 258.557 177.938 262.24C177.969 262.7 178.005 263.16 178.038 263.621C175.404 263.291 172.79 262.974 170.136 262.75C167.157 262.498 164.179 262.286 161.195 262.088C155.38 261.703 149.556 261.186 143.731 260.998C131.856 260.614 119.954 260.744 108.075 260.829C104.714 260.853 101.353 260.885 97.9918 260.926C96.3113 260.947 94.6309 260.969 92.9505 260.993C91.2616 261.018 89.4466 260.842 87.8475 261.432C87.8323 261.437 87.8194 261.446 87.8044 261.451C92.6287 256.879 96.9506 251.825 101.458 246.944ZM116.997 232.325C124.385 233.67 131.888 233.578 139.376 233.711C147.038 233.848 154.711 233.757 162.374 233.773C166.727 233.782 171.118 233.973 175.455 233.586C175.968 233.54 176.365 233.346 176.648 233.07C176.727 237.685 176.872 242.298 177.072 246.909C176.79 246.79 176.483 246.717 176.164 246.698C166.371 246.122 156.579 245.599 146.774 245.28C136.978 244.96 127.169 244.582 117.368 244.7C112.584 244.758 107.526 244.452 102.808 245.495C104.601 243.589 106.433 241.719 108.348 239.928C111.141 237.317 114.121 234.871 116.997 232.325ZM122.641 226.892C122.651 226.881 122.656 226.868 122.664 226.857C122.69 226.876 122.723 226.89 122.765 226.889C129.681 226.733 137.439 228.915 143.906 225.566C146.794 224.071 149.185 221.708 151.506 219.436C151.507 219.453 151.509 219.47 151.51 219.487C151.525 219.671 151.603 219.893 151.79 219.975C152.553 220.31 153.446 220.331 154.265 220.451C155.207 220.588 156.133 220.668 157.083 220.725C159.178 220.851 161.273 220.984 163.369 221.103C165.46 221.221 167.56 221.231 169.654 221.283C171.754 221.335 173.953 221.59 176.032 221.29C176.222 221.262 176.392 221.202 176.543 221.119C176.546 223.809 176.57 226.498 176.596 229.186C176.6 229.624 176.608 230.062 176.613 230.5C176.333 230.243 175.947 230.063 175.455 230.019C171.601 229.68 167.718 229.831 163.851 229.844C160.053 229.856 156.255 229.869 152.457 229.882C144.789 229.907 137.127 229.982 129.46 230.128C125.731 230.199 122.019 230.513 118.345 231.116C119.833 229.761 121.279 228.365 122.641 226.892ZM62.5561 275.791C61.1403 276.224 59.735 276.036 58.3165 276.333C58.2293 276.351 58.1488 276.385 58.0751 276.43C53.8273 274.614 50.9959 270.971 49.0582 266.888C47.0156 262.585 45.6077 257.985 44.6646 253.322C42.7201 243.708 42.7168 233.74 43.7232 224.014C44.7122 214.459 46.6702 204.955 49.4644 195.766C51.383 189.456 53.828 183.082 57.2228 177.329C61.1429 179.956 64.183 183.739 67.047 187.437C70.4693 191.856 73.5534 196.533 76.314 201.392C76.0286 202.224 75.9842 203.268 75.8473 204.012C75.5835 205.447 75.3451 206.899 75.1577 208.346C74.7574 211.439 74.3733 214.533 73.9641 217.625C73.1547 223.738 72.1884 229.834 71.1208 235.907C71.0344 236.399 71.1726 236.815 71.4268 237.128C69.3094 238.244 67.2198 239.41 65.1838 240.674C60.7077 243.452 56.5244 246.689 53.24 250.841C53.1546 250.948 53.2884 251.092 53.394 250.995C60.4373 244.484 69.1875 240.397 77.7787 236.357C82.1691 234.293 86.5379 232.195 90.7501 229.782C95.1551 227.258 99.3559 224.406 103.382 221.315C107.98 217.786 112.308 213.928 116.365 209.788C116.843 209.3 116.727 208.689 116.367 208.304C116.489 208.266 116.587 208.16 116.593 207.984C116.69 205.281 117.502 202.978 119.091 200.79C120.564 198.76 122.443 197.087 124.137 195.25C124.89 194.434 125.61 193.584 126.252 192.677C126.914 191.743 127.317 190.712 127.892 189.737C128.565 188.597 129.137 189.18 129.448 190.211C129.802 191.381 129.78 192.75 129.638 193.953C129.488 195.225 129.101 196.465 128.543 197.615C128.019 198.696 127.415 199.794 127.767 201.032C128.347 203.067 130.831 204.245 132.714 204.704C134.809 205.214 137.002 205.115 139.124 204.85C141.782 204.518 144.427 204.033 147.054 203.517C150.096 202.92 153.121 202.23 156.122 201.451C157.532 201.084 158.933 200.603 160.357 200.3C160.865 200.192 161.805 200.029 162.402 200.294C154.73 204.869 146.366 207.917 137.87 210.573C136.815 210.903 137.248 212.498 138.328 212.234C147.454 210.001 156.041 205.858 164.212 201.321C164.337 201.251 164.443 201.143 164.521 201.016C165.343 200.727 166.179 200.475 167.031 200.268C167.412 200.175 169.372 199.529 169.617 199.777C169.964 200.129 168.763 201.272 168.463 201.604C166.327 203.971 163.787 205.902 161.038 207.499C158.249 209.118 155.281 210.409 152.3 211.628C148.96 212.993 145.43 214.066 142.184 215.634C140.894 216.258 141.799 218.375 143.158 217.946C144.909 217.392 146.61 216.579 148.311 215.887C149.757 215.301 151.203 214.714 152.64 214.107C153.642 213.684 154.637 213.247 155.623 212.79C154.146 214.18 152.67 215.57 151.194 216.96C148.637 219.368 146.209 222.111 143.083 223.799C139.996 225.468 136.474 225.662 133.037 225.626C131.312 225.608 129.594 225.553 127.868 225.622C126.053 225.696 124.44 225.975 122.719 226.546C122.687 226.557 122.664 226.576 122.645 226.598C122.585 226.524 122.483 226.488 122.377 226.55C117.701 229.316 113.439 232.903 109.34 236.45C105.115 240.104 101.139 243.991 97.3516 248.096C93.7261 252.026 90.1294 255.97 86.1842 259.585C82.3322 263.115 78.2156 266.321 73.9172 269.287C71.5751 270.904 69.1751 272.46 66.6918 273.852C65.3649 274.595 64.0172 275.344 62.5561 275.791ZM62.9492 169.398C64.6237 167.516 66.4261 165.772 68.3332 164.159C69.1746 164.408 70.058 164.478 70.948 164.487C72.3063 164.5 73.6675 164.557 75.0257 164.543C77.641 164.516 80.2552 164.433 82.8711 164.419C88.2198 164.39 93.5701 164.389 98.9188 164.435C99.6196 164.441 100.125 164.141 100.437 163.706C101.52 164.934 102.636 166.134 103.761 167.314C105.589 169.232 107.538 171.063 109.613 172.73C109.209 172.733 108.805 172.737 108.403 172.734C106.553 172.721 104.703 172.71 102.853 172.7C99.1406 172.679 95.428 172.664 91.7154 172.654C84.3346 172.635 76.9307 172.696 69.5594 173.074C67.5135 173.179 65.4515 173.222 63.4127 173.421C62.307 173.529 61.2025 173.656 60.0977 173.773C59.8717 173.797 59.6549 173.828 59.4422 173.862C60.5241 172.307 61.6894 170.813 62.9492 169.398ZM92.5104 152.626C92.4606 152.659 92.4067 152.69 92.3589 152.726C92.2504 152.807 92.2675 152.955 92.3955 153.004C92.5658 153.071 92.7447 153.121 92.9289 153.161C93.4884 153.973 93.9255 154.976 94.2308 155.485C95.1077 156.946 96.1161 158.338 97.142 159.697C97.3482 159.97 97.5585 160.24 97.7695 160.509C92.8016 160.497 87.8361 160.523 82.8711 160.71C80.2571 160.81 77.6342 160.893 75.0257 161.089C73.9531 161.169 72.8811 161.305 71.8119 161.439C77.3767 157.415 83.6349 154.342 90.118 152.061C90.1092 152.071 90.1001 152.078 90.0912 152.088C89.9484 152.246 90.1616 152.452 90.3223 152.319C91.1657 151.622 91.8978 151.949 92.5104 152.626ZM117.612 199.925C117.471 200.139 117.332 200.36 117.197 200.587C116.871 200.262 116.416 200.044 115.83 200.026C109.322 199.823 102.817 199.646 96.3052 199.641C93.094 199.639 89.8535 199.531 86.6463 199.69C85.0358 199.77 83.4259 199.865 81.8163 199.956C80.6909 200.02 79.4953 200.099 78.3963 200.425C75.8634 195.993 73.0516 191.732 69.9811 187.658C76.9478 188.513 84.034 188.422 91.0402 188.659C98.9782 188.928 106.921 188.986 114.861 189.174C117.039 189.226 119.218 189.282 121.395 189.343C122.519 189.375 123.643 189.407 124.768 189.441C125.119 189.452 125.483 189.462 125.847 189.452C125.819 189.509 125.791 189.566 125.764 189.622C125.151 190.889 124.38 192.054 123.482 193.136C121.573 195.436 119.266 197.417 117.612 199.925ZM109.074 213.577C108.833 212.907 108.246 212.391 107.31 212.434C101.978 212.676 96.6356 212.844 91.3094 213.195C88.7148 213.366 86.1097 213.482 83.5193 213.709C82.1832 213.826 80.8495 214.044 79.5192 214.217C78.6071 214.336 77.6522 214.474 76.7773 214.798C76.947 212.925 77.0966 211.05 77.2265 209.172C77.3306 207.663 77.3623 206.141 77.3543 204.628C77.3503 203.863 77.3243 203.093 77.2873 202.328C77.3659 202.343 77.4447 202.351 77.522 202.342C77.6585 202.325 77.7859 202.309 77.9042 202.277C79.1302 202.757 80.5178 202.863 81.8163 202.956C83.3564 203.065 84.8961 203.182 86.4363 203.292C89.7132 203.526 93.0211 203.511 96.3052 203.618C102.77 203.829 109.236 203.951 115.703 204.125C115.403 205.412 115.392 206.735 115.872 207.981C115.538 207.87 115.153 207.922 114.824 208.247C112.962 210.088 111.043 211.863 109.074 213.577ZM90.2644 227.27C90.1328 226.906 89.8844 226.571 89.5903 226.344C88.4596 225.473 86.3955 225.974 85.0383 226.041C83.4316 226.12 81.8247 226.198 80.218 226.277C79.7304 226.3 77.2417 226.427 75.4138 226.817C75.7915 223.964 76.1342 221.106 76.4406 218.242C76.5048 217.641 76.5644 217.04 76.6233 216.439C77.4844 216.716 78.4203 216.817 79.3085 216.86C80.6395 216.923 81.9766 217.03 83.3089 217.051C85.9706 217.093 88.6472 216.962 91.3094 216.917C96.1035 216.838 100.898 216.609 105.69 216.42C100.879 220.326 95.7952 223.891 90.4924 227.134C90.4168 227.18 90.3401 227.224 90.2644 227.27ZM75.1225 228.963C75.5275 229.017 75.9291 229.034 76.2363 229.066C77.7785 229.221 79.2967 229.362 80.8468 229.385C82.3837 229.408 83.9205 229.43 85.4575 229.453C85.7843 229.457 86.1111 229.462 86.4379 229.467C82.3909 231.678 78.2196 233.659 74.1073 235.745C74.4697 233.487 74.8079 231.227 75.1225 228.963ZM119.221 178.606C128.444 182.527 140.274 182.882 148.2 176.369C148.988 176.585 149.859 176.657 150.554 176.726C152.117 176.883 153.665 177.028 155.235 177.077C158.295 177.173 161.358 177.316 164.42 177.353C170.613 177.43 176.807 177.466 183 177.521C183.527 177.526 183.949 177.365 184.269 177.107C184.896 178.171 185.48 179.261 186.012 180.38C186.789 182.011 187.448 183.696 187.988 185.419C187.872 185.399 187.752 185.385 187.623 185.383C179.484 185.242 171.338 185.476 163.197 185.51C155.054 185.544 146.912 185.51 138.77 185.568C136.516 185.584 134.28 185.584 132.032 185.751C130.862 185.838 129.678 185.877 128.52 186.065C128.39 186.086 128.258 186.105 128.126 186.124C126.573 185.216 124.646 185.405 122.871 185.372C120.833 185.334 118.796 185.299 116.758 185.269C112.753 185.21 108.748 185.166 104.743 185.139C96.7941 185.084 88.8646 185.287 80.9207 185.565C76.9683 185.702 73.0309 185.936 69.1294 186.545C68.8675 186.205 68.608 185.864 68.3427 185.528C65.5782 182.023 62.3011 177.536 57.752 176.45C57.9265 176.165 58.1036 175.882 58.2834 175.602C61.4351 176.433 64.9119 176.391 68.132 176.565C71.8438 176.766 75.5477 176.904 79.2639 176.996C86.6509 177.177 94.0364 177.291 101.425 177.403C103.475 177.435 105.526 177.467 107.577 177.502C108.683 177.52 109.789 177.541 110.895 177.558C111.513 177.568 112.065 177.566 112.654 177.361C113.199 177.171 113.731 176.886 114.258 176.65C114.442 176.567 114.592 176.445 114.714 176.301C116.162 177.167 117.662 177.943 119.221 178.606ZM155.261 165.568C156.421 165.89 157.618 165.944 158.845 166.036C160.455 166.158 162.061 166.179 163.675 166.189C166.248 166.206 168.822 166.188 171.395 166.117C172.5 166.086 173.146 165.346 173.337 164.499C173.364 164.52 173.391 164.542 173.418 164.564C176.549 167.144 179.386 170.096 181.79 173.363C176 173.382 170.21 173.385 164.42 173.424C161.359 173.445 158.295 173.571 155.235 173.649C153.734 173.688 152.255 173.812 150.76 173.954C150.73 173.957 150.699 173.96 150.669 173.963C150.827 173.78 150.984 173.595 151.138 173.404C152.925 171.189 154.395 168.459 155.261 165.568ZM192.906 281.851C193.417 280.445 193.219 278.937 193.19 277.458C193.16 275.941 193.144 274.425 193.139 272.908C193.129 269.942 193.109 266.976 193.076 264.01C193.01 258.011 192.94 252.006 192.704 246.01C192.238 234.156 191.339 222.332 189.873 210.557C189.16 204.833 188.275 199.122 187.074 193.479C187.091 193.456 187.108 193.433 187.125 193.41C188.32 191.812 189.68 190.335 190.855 188.726C190.959 188.583 191.002 188.4 191.001 188.215C191.044 188.194 191.087 188.172 191.131 188.147C192.105 187.592 191.225 186.079 190.251 186.641C190.364 186.577 188.746 182.423 188.574 182.004C187.959 180.502 187.266 179.033 186.485 177.61C186.014 176.751 185.51 175.91 184.982 175.085C184.889 174.468 184.557 173.897 183.985 173.592C182.982 172.154 181.898 170.772 180.743 169.456C176.015 164.066 170.109 159.716 163.657 156.617C162.724 156.169 161.764 155.796 160.808 155.405C159.789 154.988 158.845 154.444 157.841 154.007C156.208 153.295 154.596 153.336 152.992 154.089C152.855 154.154 152.953 154.365 153.093 154.328C154.126 154.059 155.183 154.014 156.219 154.306C157.233 154.593 158.004 155.226 158.89 155.754C160.468 156.696 162.233 157.31 163.85 158.189C165.989 159.351 168.08 160.628 170.079 162.03C168.008 162.14 165.934 162.219 163.86 162.274C162.32 162.315 160.78 162.322 159.242 162.411C158.147 162.475 157.009 162.457 155.914 162.634C156.178 160.819 156.179 158.989 155.849 157.221C155.849 157.221 155.849 157.22 155.849 157.219C155.769 156.793 155.672 156.371 155.554 155.953C155.301 155.064 154.491 154.93 153.902 155.267C153.844 155.224 153.785 155.182 153.729 155.136C153.024 154.564 152.39 153.879 151.839 153.159C150.693 151.664 149.767 149.933 149.066 148.188C148.355 146.421 147.852 144.573 147.359 142.736C147.112 141.815 146.845 140.899 146.593 139.979C146.374 139.179 146.215 138.295 145.813 137.566C145.737 137.43 145.51 137.455 145.474 137.61C145.261 138.524 145.374 139.565 145.413 140.496C145.456 141.529 145.515 142.553 145.653 143.578C145.938 145.706 146.398 147.798 147.134 149.818C147.841 151.756 148.773 153.564 150.039 155.197C150.88 156.281 152.074 157.717 153.458 158.301C153.639 160.337 153.618 162.375 153.137 164.39C152.509 167.029 151.305 169.536 149.65 171.685C146.182 176.189 140.816 178.735 135.217 179.259C129.425 179.802 123.498 178.506 118.293 175.957C112.504 173.123 107.702 168.75 103.388 164.029C100.902 161.308 98.3235 158.631 96.019 155.752C95.6106 155.242 94.9569 154.206 94.1816 153.273C94.9706 153.266 95.7804 153.148 96.4789 153.058C97.924 152.873 99.3363 152.585 100.748 152.226C103.389 151.555 106.173 150.62 108.48 149.142C113.361 146.013 115.267 142.044 115.918 136.577C116.124 134.849 113.136 134.429 112.858 136.163C112.431 138.828 111.784 140.124 110.934 142.685C110.116 145.145 108.931 146.062 106.667 147.418C104.541 148.692 102.126 149.432 99.7842 150.196C98.4866 150.62 97.1735 151.006 95.8649 151.395C95.0319 151.643 94.043 151.86 93.1979 152.242C92.757 151.855 92.2971 151.563 91.834 151.453C91.868 151.396 91.8238 151.307 91.7385 151.324C91.6024 151.351 91.4668 151.381 91.3307 151.409C91.194 151.419 91.058 151.446 90.9221 151.495C82.7659 153.262 74.9334 157.024 68.2916 162.15C67.9567 162.29 67.6328 162.461 67.3246 162.678C67.1659 162.789 67.0607 162.966 67.0305 163.149C66.032 163.965 65.0632 164.811 64.127 165.687C56.5877 172.741 51.8108 182.125 48.4666 191.777C45.1723 201.286 42.9424 211.257 41.7162 221.241C40.4661 231.417 40.322 241.805 42.1351 251.924C43.1087 257.357 44.6847 262.697 47.011 267.708C49.1 272.209 52.5004 277.337 57.8412 277.885C57.8583 277.902 57.8744 277.92 57.8936 277.936C59.9892 279.662 63.1092 278.47 65.3 277.439C65.6473 277.275 65.9919 277.103 66.335 276.927C66.1537 277.625 66.072 278.356 66.0342 279.041C65.9554 280.463 67.9605 280.544 68.3401 279.363C71.5905 279.935 74.9469 279.943 78.2344 279.925C81.9078 279.905 85.5798 279.777 89.2489 279.604C96.5287 279.261 103.8 278.736 111.085 278.497C125.835 278.014 140.626 279.047 155.364 279.567C159.499 279.713 163.633 279.858 167.768 280.004C171.992 280.153 176.212 280.182 180.402 280.753C181.943 280.963 182.533 279.453 182.099 278.512C182.207 277.88 182.099 277.187 182.04 276.442C181.929 275.051 181.824 273.659 181.726 272.267C181.535 269.552 181.35 266.836 181.175 264.121C180.819 258.617 180.514 253.11 180.216 247.603C179.625 236.654 179.172 225.697 178.839 214.737C178.758 212.066 178.652 209.393 178.518 206.724C178.677 206.471 178.837 206.217 178.99 205.961C179.502 205.106 180.005 204.246 180.523 203.396C181.564 201.691 182.611 199.997 183.705 198.325C184.649 196.882 185.624 195.46 186.642 194.068C187.906 204.748 189.03 215.439 189.546 226.188C190.114 238.027 190.416 249.883 190.58 261.734C190.625 265.045 190.656 268.356 190.692 271.667C190.71 273.391 190.728 275.114 190.714 276.838C190.7 278.487 190.451 280.291 191.036 281.851C191.377 282.761 192.57 282.777 192.906 281.851Z" fill="black"/>
<path fill-rule="evenodd" clip-rule="evenodd" d="M161.371 73.4597C155.022 64.717 143.331 62.2028 133.192 64.3292C113.371 67.9437 94.4339 83.0715 90.9317 103.645C85.4677 116.092 88.9569 135.696 104.848 137.161C107.11 137.289 109.351 136.768 111.617 137.049C125.449 139.259 141.794 148.721 154.038 137.563C154.652 138.003 155.46 138.215 156.148 137.949C161.36 135.934 161.605 130.106 162.049 125.315C162.623 119.124 163.161 112.93 163.663 106.734C163.843 96.0474 168.077 82.6936 161.371 73.4597Z" fill="white"/>
<path fill-rule="evenodd" clip-rule="evenodd" d="M122.943 51.182C131.288 50.7381 146.664 54.5619 153.945 59.0448C165.807 66.3489 166.726 80.9189 166.242 83.4382C166.059 84.3997 165.471 85.2895 164.552 84.9938C165.332 91.6131 165.271 95.3964 165.402 102.054L165.492 106.499C165.55 109.462 165.6 112.426 165.613 115.39C165.913 115.278 166.209 115.415 166.318 115.703C166.346 115.773 166.251 115.811 166.204 115.771C165.676 115.31 166.052 116.36 166.234 116.574C166.485 116.868 166.904 117.144 167.197 117.396L167.995 118.087L168.792 118.776C169.823 119.665 170.819 120.556 171.78 121.514L172.042 121.777C173.793 123.557 175.988 125.279 177.078 127.581C178.12 129.779 177.799 132.27 176.068 134.023C175.439 134.659 174.704 135.145 173.905 135.513C175.327 137.855 175.534 140.951 174.051 143.36C172.566 145.778 169.709 147.044 166.959 146.85C166.874 147.194 166.743 147.53 166.57 147.849C165.479 149.854 163.309 150.115 161.252 150.007L161.172 150.003C156.541 149.736 152.085 148.576 148.029 146.321C146.622 146.416 145.367 145.26 145.092 143.992C144.353 143.965 143.609 143.903 142.851 143.817C140.601 143.557 138.294 143.073 136.31 141.929C136.006 141.754 136.147 141.291 136.485 141.282C138.902 141.228 141.321 141.395 143.734 141.133C145.948 140.894 148.308 140.283 150.372 139.452C154.082 137.956 157.263 135.418 159.019 131.901C161.292 127.348 161.085 121.881 161.333 116.935C161.606 111.461 161.943 105.991 162.304 100.523L162.479 97.9013C162.829 92.7918 163.118 90.0584 164.005 84.7549C161.333 84.9938 150.231 80.9964 146.778 74.4578C140.226 88.3677 107.028 82.6749 105.556 104.089C105.543 104.271 105.256 104.22 105.245 104.047L105.218 103.559C105.205 103.318 105.193 103.08 105.184 102.845L105.178 102.61L104.656 102.616C104.656 102.681 104.563 102.705 104.54 102.635C104.047 101.238 101.702 101.688 100.682 102.02C99.7628 102.32 98.8966 102.781 98.1191 103.35C96.5579 104.491 95.3473 106.027 94.9459 107.948C94.1832 111.596 96.505 115.312 99.5874 117.073C101.531 118.182 103.661 118.899 105.524 120.156C107.17 121.266 108.704 122.566 110.033 124.043C115.297 129.895 118.394 138.772 115.904 146.497C115.713 147.086 115.211 147.76 114.545 147.856C113.444 148.014 112.344 147.854 111.727 146.805C111.486 146.395 111.372 145.928 111.397 145.467C110.971 146.934 109.587 148.384 108.311 148.929C106.572 149.673 104.613 149.451 103.08 148.492L102.886 148.635C100.392 150.472 97.6051 152.146 94.4093 151.808C92.0938 151.563 89.8205 150.383 88.5403 148.524C86.8374 149.481 85.0184 150.244 83.1424 150.764L82.9427 150.819C80.3616 151.522 77.0692 152.166 74.66 150.738C72.3466 149.367 71.5776 146.372 72.1205 143.872C72.186 143.574 72.2684 143.284 72.3698 143.003C70.629 143.096 68.8902 142.929 67.2381 142.418C65.5501 141.895 63.9402 140.891 63.1311 139.264C62.2184 137.423 62.4614 135.331 63.1417 133.456C64.2297 130.449 65.979 127.773 68.1572 125.442C70.2518 123.198 72.7784 121.295 75.4043 119.708L75.847 119.443C78.2107 118.033 81.0613 116.38 83.8543 116.489C83.8459 116.453 83.8395 116.419 83.8353 116.384C83.4128 113.27 83.4614 110.096 83.3621 106.957C83.2712 104.07 83.1677 101.183 83.1001 98.294C82.9902 93.3821 83.0262 88.4494 83.6663 83.5714C84.2346 79.2429 85.2572 75.0221 87.1226 71.0592C89.0811 66.8959 92.0304 63.3431 95.6726 60.549C103.316 54.684 113.413 51.6892 122.943 51.182ZM96.9804 108.874C97.8128 107.304 99.7078 106.809 101.37 107.092C103.701 107.49 105.285 109.527 106.646 111.28C108.074 113.116 105.095 114.847 104.328 113.068L104.147 112.647C103.531 111.236 102.804 109.748 101.548 108.828C100.213 107.851 98.3282 107.708 97.1494 109.005C97.0649 109.1 96.9233 108.978 96.9804 108.874Z" fill="black"/>
<path fill-rule="evenodd" clip-rule="evenodd" d="M131.904 116.766C135.526 116.326 139.036 117.436 142.577 117.995C144.446 118.29 146.318 118.51 148.209 118.592C148.59 118.609 148.97 118.618 149.351 118.626C149.387 118.291 149.574 117.983 149.981 117.798C150.814 117.421 151.481 117.25 152.395 117.287C153.233 117.32 154.073 117.406 154.898 117.557C156.395 117.831 157.899 118.455 158.994 119.537C161.528 122.042 161.143 126.066 159.184 128.795C155.138 134.433 147.753 134.695 141.428 134.621L140.844 134.614C135.085 134.531 126.846 135.39 124.23 128.836C123.267 126.425 123.401 123.631 124.579 121.319C125.984 118.562 128.942 117.126 131.904 116.766ZM149.893 126.154L149.842 126.156C147.187 126.258 144.532 126.33 141.875 126.377C141.955 127.06 142.036 127.743 142.129 128.424C142.201 128.96 142.279 129.495 142.36 130.03C142.395 130.256 142.521 130.607 142.485 130.832L142.472 130.92C142.609 130.982 142.733 131.082 142.825 131.226C142.857 131.276 142.88 131.326 142.903 131.376C144.966 131.392 147.185 131.352 149.288 130.977L149.292 130.932C149.33 130.663 149.442 130.482 149.59 130.358C149.738 129.501 149.725 128.588 149.782 127.738C149.818 127.21 149.856 126.682 149.893 126.154ZM139.846 126.414C137.932 126.446 136.018 126.471 134.104 126.448L133.236 126.434C133.419 127.419 133.619 128.4 133.785 129.391C133.958 130.424 133.049 131.081 132.262 131.054C132.351 131.069 132.439 131.084 132.527 131.096C134.984 131.444 137.536 131.351 140.03 131.349C139.896 130.565 139.95 129.681 139.93 129.027L139.926 128.926C139.888 128.088 139.861 127.251 139.846 126.414ZM126.846 126.233C126.913 126.745 127.042 127.246 127.235 127.712C128.052 129.683 129.925 130.603 131.907 130.99C131.563 130.871 131.29 130.586 131.221 130.097C131.049 128.882 130.987 127.646 130.983 126.412C129.602 126.399 128.211 126.37 126.846 126.233ZM157.095 125.812C156.112 126.044 154.97 125.938 154.005 125.982C153.101 126.023 152.197 126.059 151.293 126.095C151.336 126.712 151.377 127.329 151.422 127.946C151.481 128.744 151.486 129.586 151.639 130.38C153.458 129.759 155.087 128.763 156.31 127.171C156.615 126.774 156.888 126.308 157.095 125.812ZM131.489 119.999C129.852 120.387 128.303 121.206 127.47 122.704C126.976 123.594 126.759 124.647 126.801 125.686C128.184 125.525 129.591 125.464 130.992 125.413C130.996 125.161 131.002 124.909 131.01 124.657L131.031 124.013C131.07 122.783 131.089 121.24 131.489 119.999ZM139.961 120.149L139.24 120.068C137.239 119.84 135.238 119.601 133.237 119.738C132.947 119.758 132.653 119.79 132.359 119.833C132.712 121.11 132.683 122.61 132.83 123.874C132.888 124.363 132.96 124.847 133.04 125.33L133.387 125.314C135.534 125.198 137.684 125.126 139.833 125.041C139.833 124.637 139.835 124.233 139.842 123.829L139.85 123.425C139.874 122.393 139.807 121.23 139.961 120.149ZM150.01 119.986C147.914 120.324 145.748 120.396 143.689 120.399C142.867 120.4 142.045 120.349 141.223 120.276C141.277 120.714 141.304 121.156 141.345 121.588C141.426 122.46 141.519 123.331 141.619 124.2L141.709 124.962C144.351 124.842 146.992 124.712 149.633 124.578L150.006 124.558L150.111 123.095C150.182 122.12 150.26 121.145 150.371 120.174L150.288 120.144C150.19 120.104 150.098 120.049 150.01 119.986ZM150.921 120.349C151.036 121.728 151.1 123.113 151.185 124.494L152.926 124.401C153.216 124.385 153.506 124.369 153.797 124.352C154.925 124.287 156.375 123.945 157.49 124.264C157.575 123.25 157.285 122.262 156.37 121.58C154.764 120.383 152.718 120.809 150.921 120.349ZM144.972 108.02C147.565 106.534 154.07 105.016 154.482 109.684C154.671 111.832 153.075 113.612 151.211 114.406L151.141 114.435C149.393 115.154 146.294 115.966 144.781 114.407C143.522 113.109 145.192 110.783 146.757 111.846C147.561 112.392 149.253 111.989 150.151 111.73L150.207 111.713C151.175 111.428 152.466 110.517 152.066 109.325C151.711 108.27 150.204 108.077 149.26 108.043C147.85 107.992 146.479 108.319 145.082 108.426C144.861 108.443 144.793 108.123 144.972 108.02ZM155.712 100.514C159.231 100.349 161.42 104.193 160.611 107.342C160.471 107.886 159.863 108.419 159.277 108.358L159.129 108.344C159.054 108.337 158.978 108.328 158.909 108.309C158.352 108.154 157.853 107.575 157.893 106.974L157.904 106.799C157.986 105.311 157.825 103.597 156.058 103.237C154.559 102.931 153.722 104.375 153.704 105.703C153.701 105.939 153.436 106.104 153.227 105.977C152.144 105.317 151.956 104.005 152.37 102.875C152.895 101.443 154.207 100.585 155.712 100.514ZM129.599 101.339C132.159 100.484 134.922 101.849 136.162 104.114C136.597 104.24 137.031 104.576 136.971 105.089C136.884 105.828 136.752 106.294 136.24 106.854C135.439 107.731 133.939 107.282 133.606 106.204L133.592 106.155C133.214 104.76 131.679 103.84 130.281 104.328C128.648 104.898 128.695 106.624 127.55 107.629C127.415 107.747 127.254 107.766 127.093 107.688C125.876 107.1 126.094 105.329 126.528 104.316C127.097 102.987 128.203 101.804 129.599 101.339ZM126.111 93.5593C128.186 91.4412 133.597 89.3915 135.017 93.3029C135.287 94.0479 134.711 95.0525 133.936 95.207C132.666 95.4598 131.54 94.9084 130.279 95.0073C129.257 95.0878 128.192 95.4291 127.376 96.0619C125.115 97.8144 124.618 100.779 123.042 103.009C122.966 103.118 122.817 103.072 122.803 102.944C122.444 99.6967 123.838 95.8791 126.111 93.5593ZM153.173 91.4741C154.55 90.9876 156.11 91.0293 157.494 91.4608C158.888 91.8958 160.168 92.7217 161.155 93.8009C161.602 94.2908 162.016 94.8314 162.348 95.407C162.525 95.7119 162.71 96.342 162.911 96.7171C163.995 97.3436 164.459 98.7713 163.488 99.787L163.444 99.8316L163.314 99.9605C162.792 100.477 162.005 100.701 161.292 100.495C159.698 100.033 159.504 98.7769 158.952 97.4433C158.587 96.5624 157.963 95.7829 157.205 95.2104C155.415 93.8578 152.48 93.4268 150.325 94.0642C150.21 94.0983 150.075 93.952 150.157 93.8459C150.566 93.3167 150.801 92.8824 151.348 92.4554C151.903 92.0222 152.508 91.7092 153.173 91.4741Z" fill="black"/>
<path fill-rule="evenodd" clip-rule="evenodd" d="M159.889 92.1487C164.848 92.1487 167.678 93.2155 168.715 93.2986L168.746 93.3009C169.177 93.3285 169.564 93.3645 169.97 93.5216C171.463 94.0967 171.706 95.6629 170.835 96.65C170.774 98.6924 171.042 101.079 170.582 103.128C170.013 111.766 165.953 113.224 163.644 113.756C162.485 114.023 161.112 114.129 159.881 113.847C157.781 113.769 155.705 113.111 153.929 111.966C151.455 110.37 149.618 107.917 149.021 105.005C148.739 103.617 148.607 102.173 148.761 100.762L148.783 100.568C147.979 100.183 147.047 100.11 146.087 100.076C145.628 100.06 145.176 100.045 144.736 100.065C144.307 100.113 143.883 100.177 143.457 100.264C142.992 100.404 142.553 100.635 142.148 101.002L142.12 101.537C142.044 102.874 141.869 104.215 141.598 105.527C141.198 107.463 140.556 109.311 139.188 110.684C138.725 111.376 138.152 111.993 137.456 112.528C134.929 114.475 131.496 115.189 128.345 114.92C121.949 114.374 118.252 109.294 117.399 107.123L117.349 106.991C116.733 105.377 116.242 103.283 114.297 102.936L113.884 102.862C112.996 102.695 112.177 102.463 111.657 101.597C111.429 101.218 111.311 100.796 111.283 100.364C110.979 100.388 110.676 100.41 110.374 100.432C107.963 100.941 93.507 101.374 92.353 101.374C92.353 101.374 90.1349 102.308 89.1985 101.584C88.5494 101.081 88.3358 100.41 88.6931 99.6506C89.2323 98.5075 91.7196 97.8199 92.8241 97.6021C92.8241 97.6021 110.648 97.7502 111.931 97.5069C112.724 96.6882 114.144 96.8002 115.33 96.6708C116.312 95.9702 117.686 95.501 118.772 95.1869C118.993 95.1031 119.212 95.022 119.425 94.9456C121.414 94.2368 123.482 93.8614 125.582 93.6598C127.747 93.4539 129.918 93.5471 132.071 93.842C132.978 93.9651 133.876 94.1243 134.769 94.3325C136.366 94.5432 137.955 94.8902 139.553 95.3019L139.873 95.3851C141.556 95.8265 143.285 96.2083 145.027 95.9091C146.446 95.6671 147.81 95.121 149.118 94.5305L149.288 94.4532C152.163 93.1398 156.654 92.1487 159.889 92.1487ZM134.596 96.9511C133.535 96.7177 133.082 98.3541 134.146 98.5882C134.9 98.754 135.538 99.1342 135.97 99.7783L136.015 99.8484C136.595 100.77 138.059 99.9192 137.476 98.9914C136.82 97.9473 135.8 97.216 134.596 96.9511ZM165.67 95.9365C165.296 95.6729 164.73 95.8686 164.513 96.241C164.274 96.6511 164.431 97.1078 164.781 97.3761L164.817 97.4023C165.138 97.6288 165.451 98.0349 165.49 98.451L165.494 98.5031C165.536 99.592 167.227 99.5975 167.185 98.5031C167.144 97.4324 166.524 96.5379 165.67 95.9365Z" fill="black"/>
</svg>
