<svg width="80" height="94" viewBox="0 0 80 94" fill="none" xmlns="http://www.w3.org/2000/svg">
<path fill-rule="evenodd" clip-rule="evenodd" d="M10 0C4.47715 0 0 4.47717 0 10V90.8402C0 91.6621 0.0991556 92.4609 0.286157 93.2251L40 60L79.7138 93.2251C79.9008 92.4608 80 91.6621 80 90.8402V10C80 4.47715 75.5229 0 70 0H10Z" fill="#6076E6"/>
<path fill-rule="evenodd" clip-rule="evenodd" d="M0.5 46C19.0015 46 34 31.0015 34 12.5C34 8.08133 33.1445 3.86246 31.5901 0H10C4.47715 0 0 4.47717 0 10V45.9963C0.166374 45.9988 0.333046 46 0.5 46Z" fill="#F6BB42"/>
</svg>
