<svg width="82" height="82" viewBox="0 0 82 82" fill="none" xmlns="http://www.w3.org/2000/svg">
<path d="M41 6.83334C22.2084 6.83334 6.83337 22.2083 6.83337 41C6.83337 48.8583 9.56671 56.375 14.6917 62.525L7.85837 69.3583C6.49171 70.725 6.49171 72.775 7.85837 74.1417C8.54171 74.825 9.22504 75.1667 10.25 75.1667H41C59.7917 75.1667 75.1667 59.7917 75.1667 41C75.1667 22.2083 59.7917 6.83334 41 6.83334ZM27.3334 44.4167C25.2834 44.4167 23.9167 43.05 23.9167 41C23.9167 38.95 25.2834 37.5833 27.3334 37.5833C29.3834 37.5833 30.75 38.95 30.75 41C30.75 43.05 29.3834 44.4167 27.3334 44.4167ZM41 44.4167C38.95 44.4167 37.5834 43.05 37.5834 41C37.5834 38.95 38.95 37.5833 41 37.5833C43.05 37.5833 44.4167 38.95 44.4167 41C44.4167 43.05 43.05 44.4167 41 44.4167ZM54.6667 44.4167C52.6167 44.4167 51.25 43.05 51.25 41C51.25 38.95 52.6167 37.5833 54.6667 37.5833C56.7167 37.5833 58.0834 38.95 58.0834 41C58.0834 43.05 56.7167 44.4167 54.6667 44.4167Z" fill="#6076E6"/>
</svg>
