<svg width="280" height="283" viewBox="0 0 280 283" fill="none" xmlns="http://www.w3.org/2000/svg">
<path fill-rule="evenodd" clip-rule="evenodd" d="M111.638 110.78C117.023 111.045 125.408 113.351 125.827 114.824C126.482 117.125 125.075 125.751 127.428 130.398C128.431 132.378 132.239 132.201 133.715 132.846C138.653 135.004 153.27 139.097 156.284 144.252C157.491 146.316 164.911 171.938 168.854 185.009C169.298 186.483 169.8 187.846 170.346 189.108L170.547 188.127C172.154 180.227 172.958 175.444 172.958 173.779C172.958 171.178 170.88 160.201 172.958 157.41C175.016 154.646 179.974 152.387 182.204 152.342L182.271 152.341C183.736 152.341 185.007 151.884 186.084 150.969L187.663 150.176C195.697 146.151 200.39 143.942 201.744 143.552C203.904 142.928 207.58 144.257 205.742 146.251C204.517 147.581 201.437 149.933 196.505 153.308L194.645 154.783L194.869 154.901C197.273 156.164 198.687 157.228 199.11 158.092C199.546 158.982 199.336 160.035 198.482 161.251L198.611 161.377C199.692 162.436 200.232 163.146 200.232 163.508V165.275C201.307 166.847 201.576 168.158 201.039 169.208C200.501 170.258 199.649 171.168 198.482 171.938C197.622 174.197 196.598 175.804 195.41 176.761C194.222 177.717 192.168 178.513 189.249 179.149L186.608 185.456L184.468 194.316L183.39 204.202L183.703 204.429C185.154 205.484 186.084 206.267 186.084 207.075C186.084 208.335 180.228 237.96 171.118 239.286C169.147 239.573 158.929 238.166 155.574 235.441L155.623 235.735C156.413 240.497 156.246 242.969 155.122 243.153C141.316 245.414 102.104 246.112 37.4869 245.249C37.1025 211 38.8408 188.191 42.702 176.822C52.5772 147.744 63.465 137.813 67.2741 136.962C70.6107 136.217 82.1808 131.618 85.4151 130.398C87.5263 129.601 87.9786 127.212 90.3845 127.212L90.579 127.213C92.9057 127.237 94.9689 127.652 96.1281 126.457C99.1702 123.321 98.3198 118.981 99.5819 114.824C100.277 112.534 105.029 110.454 111.638 110.78Z" fill="white"/>
<path fill-rule="evenodd" clip-rule="evenodd" d="M96.8422 118.991C97.1583 118.366 97.9974 118.447 98.551 118.731C100.212 119.943 98.4741 122.293 98.0148 123.772C96.8331 126.642 94.7808 129.446 91.9477 130.787C92.1824 133.64 92.4485 136.486 92.5466 139.347C96.1689 143.834 102.276 145.472 107.697 146.731C116.212 149.083 125.822 144.265 128.696 135.86C125.425 134.004 124.367 129.145 125.342 125.755C125.427 125.517 125.797 125.411 125.928 125.677C126.824 127.517 126.705 129.761 127.723 131.579C137.496 132.513 150.109 136.195 156.512 144.088C159.349 148.037 160.473 153.172 161.87 157.749C164.852 167.184 167.228 176.809 170.152 186.254L170.497 184.467C171.442 179.544 172.3 174.555 171.662 169.549L171.651 169.309C171.442 165.326 170.194 157.923 173.288 155.234C176.086 153.099 180.139 151.383 183.651 152.367C189.9 149.59 195.293 144.914 201.948 143.093C203.996 142.672 206.943 143.171 206.459 145.945C205.117 150.798 199.498 152.682 195.657 155.185C198.119 155.851 201.121 158.841 199.197 161.448C199.181 161.494 199.166 161.53 199.151 161.557C200.711 162.248 200.93 163.983 200.547 165.471C200.508 165.864 200.405 165.526 200.636 165.883C202.396 167.54 201.618 172.161 198.966 172.318C199.14 174.507 197.731 176.634 195.948 177.828C194.025 179.115 191.245 179.17 189.653 180.932C185.916 187.512 184.626 195.281 184.219 202.817C186.683 203.738 188.893 206.492 186.655 208.828C186.611 208.833 186.566 208.838 186.522 208.842C185.224 212.3 184.723 215.986 184.037 219.597C182.981 225.759 180.23 231.417 176.717 236.55C172.654 243.345 161.729 242.267 156.225 237.882C156.247 239.033 156.437 240.176 156.068 241.288C155.523 242.488 154.195 241.969 154.064 240.788C151.155 242.422 150.469 237.028 153.704 237.884C153.455 233.985 153.311 230.08 153.194 226.175C149.532 227.358 149.374 221.292 153.119 222.505L153.115 220.828C153.087 207.968 153.23 195.064 154.929 182.305C155.086 181.351 155.353 180.428 155.508 179.479C155.524 179.381 155.678 179.409 155.678 179.503C155.941 197.365 154.772 215.266 155.992 233.134C157.008 233.443 157.412 234.607 158.164 235.285C159.833 236.824 162.106 237.573 164.329 237.834C170.553 238.705 173.241 236.807 176.012 231.404C174.762 232.239 173.073 230.765 173.835 229.445L173.859 229.405C174.65 228.006 176.885 228.845 176.602 230.411C179.389 225.955 180.847 220.93 181.924 215.831L182.07 215.222C182.594 213.057 183.273 210.577 184.531 208.619C176.862 206.667 169.361 200.721 168.161 192.562C166.214 198.671 163.577 204.642 161.063 210.583C160.286 212.649 159.963 214.869 158.85 216.786C158.591 217.229 157.935 217.114 157.789 216.647C156.788 212.178 159.821 207.928 161.395 203.905C162.681 201.632 166.372 191.25 168.66 191.225C166.089 179.97 162.659 168.799 159.393 157.685C156.235 142.677 149.798 139.782 136.164 135.057C138.623 147.573 149.851 159.687 143.876 172.814L143.731 173.155C143.12 174.602 142.612 176.061 143.039 177.649C143.453 179.191 144.396 180.529 145.15 181.915C149.367 189.747 146.464 198.892 144.834 207.048C142.775 216.612 140.74 226.184 138.612 235.733C138.192 237.638 137.92 239.601 137.286 241.447C136.959 242.4 135.327 242.309 135.432 241.198C135.634 239.042 136.24 236.939 136.684 234.822C139.334 221.113 142.921 207.565 145.201 193.797C146.668 183.604 140.893 182.038 141.109 175.452C141.894 172.084 143.971 169.079 143.852 165.489C144.314 154.502 136.3 145.438 135.311 134.752L133.564 134.13C132.691 133.818 131.818 133.503 130.949 133.181C135.525 165.141 134.136 197.799 131.848 229.917C131.381 231.399 131.825 241.751 129.866 240.832C129.767 241.411 129.459 241.98 128.79 241.977C122.714 242.032 116.636 242.128 110.559 242.201C107.636 241.932 103.619 243.046 101.133 241.362C98.2628 240.544 97.9329 232.781 97.1655 230.014L96.8663 228.002C91.989 195.122 87.6244 161.564 91.1302 128.359C86.2525 128.546 85.2458 133.803 84.884 137.63C83.9795 146.078 78.5136 153.354 78.2515 161.899C78.2293 163.972 78.6212 165.98 79.451 167.884C81.6527 172.547 85.4604 177.939 82.6145 183.147C79.2488 187.202 79.5401 188.269 80.7752 193.28C84.25 209.845 90.0205 225.77 95.5099 241.741C94.3172 247.949 87.1432 224.903 86.4683 223.166C83.2926 224.76 81.5579 219.468 85.2003 219.091C82.8607 211.271 80.7077 203.392 78.9151 195.427L78.8676 195.202C78.0758 191.522 76.5183 187.212 79.1484 183.948C85.9301 177.099 74.668 169.444 76.0886 161.147C74.8619 162.056 73.005 161.1 73.0329 159.575C72.9772 157.857 75.2876 156.977 76.3994 158.288C77.5424 151.556 81.5192 145.68 82.7226 138.968L82.777 138.653C83.1848 136.281 83.2998 133.785 84.4664 131.623C82.8783 132.654 81.187 133.486 79.4475 134.221C82.5578 136.815 76.5349 139.183 77.0332 135.175C59.9767 140.103 56.1214 146.975 49.8589 162.757C51.0287 161.622 53.0326 163.091 52.3324 164.538C51.7737 166.063 49.3367 165.617 49.3376 163.992L49.0522 164.672C45.2547 173.74 41.7984 183.027 40.0614 192.732C43.4687 192.251 42.6012 197.689 39.514 196.156C38.2751 204.786 38.2555 213.539 38.4069 222.239C41.2809 220.734 41.3674 225.848 38.4346 224.389C38.5419 231.519 38.699 238.648 38.8173 245.778C38.8413 247.295 36.4973 247.288 36.4604 245.778C36.1866 234.823 35.6876 223.849 35.9248 212.891C35.7017 193.871 41.1768 175.54 49.3347 158.503C56.5529 138.886 66.5234 136.655 84.8676 130.951C86.5609 128.441 90.1786 126.067 93.1302 127.643C94.7816 124.981 95.6203 121.828 96.8422 118.991ZM65.413 187.361C65.4814 187.119 65.8271 187.18 65.8382 187.419C65.9916 190.496 65.8548 193.593 65.6441 196.684C65.5163 198.571 65.3594 200.455 65.2263 202.329C64.8732 207.273 64.5885 212.222 64.3723 217.175C64.448 217.144 64.5257 217.116 64.607 217.094C64.9804 216.992 65.354 216.992 65.7273 217.094C66.0603 217.187 66.3514 217.349 66.6021 217.583L66.6553 217.635C66.8605 217.825 67.0065 218.05 67.0915 218.31C67.2127 218.542 67.274 218.79 67.2738 219.054L67.2725 219.121C67.2708 219.501 67.1766 219.854 66.9843 220.182C66.7976 220.498 66.5462 220.749 66.2301 220.937C65.901 221.127 65.5478 221.222 65.1671 221.223C65.1265 221.227 65.0856 221.231 65.0451 221.233C64.7621 221.244 64.498 221.185 64.2538 221.057L64.217 221.046C64.1245 223.559 64.0488 226.073 63.9933 228.587C63.9434 230.779 63.8768 232.97 63.8325 235.161L63.8119 236.257L63.7716 238.68C63.7586 239.676 63.765 240.63 63.4258 241.569L63.3851 241.678C63.1411 242.305 62.9509 243.179 62.298 243.527C61.7768 243.806 61.0744 243.703 60.7749 243.16C60.5235 242.706 60.7414 242.052 61.1132 241.746C61.1058 241.726 61.0947 241.707 61.0855 241.687C61.0282 241.521 60.9411 241.364 60.8895 241.196C60.7267 240.664 60.7712 240.098 60.7694 239.545C60.7694 238.571 60.8024 237.596 60.8285 236.623C60.8858 234.552 60.9524 232.483 61.0335 230.413C61.3083 223.471 61.8257 216.529 62.4182 209.606L62.6193 207.27C62.8872 204.163 63.1645 201.052 63.557 197.961C63.5753 197.814 63.594 197.666 63.6143 197.518C63.4036 197.413 63.2076 197.267 63.0522 197.105C62.4294 196.452 62.0516 195.475 61.6974 194.634L61.616 194.443C61.2315 193.546 60.8766 192.637 60.6936 191.674L60.6761 191.585C60.5926 191.175 60.4278 190.447 60.8636 190.249C61.091 190.145 61.235 190.219 61.3091 190.446C61.3186 190.476 61.3108 190.509 61.2944 190.535C61.4737 190.81 61.7547 191.066 61.9321 191.321L62.5395 192.188L62.8398 192.624C63.2206 193.184 63.6273 193.719 64.0469 194.247C64.3776 191.928 64.7826 189.619 65.413 187.361ZM90.321 239.031C91.0807 238.436 92.3175 238.759 92.3175 239.856C92.3175 240.958 91.0789 241.275 90.321 240.681L90.2832 240.653L90.247 240.624C89.8343 240.302 89.8204 239.463 90.2158 239.114L90.247 239.088C90.2709 239.067 90.2951 239.049 90.321 239.031ZM57.2231 236.888L57.2884 236.889C57.6322 236.889 57.952 236.976 58.2497 237.149C58.3791 237.247 58.5066 237.347 58.636 237.447C58.8726 237.683 59.0353 237.964 59.1259 238.287L59.1945 238.792C59.2035 239.054 59.1499 239.298 59.0298 239.525C58.9521 239.761 58.8209 239.966 58.636 240.138C58.4623 240.325 58.2589 240.456 58.0225 240.531C57.8139 240.641 57.5915 240.697 57.3536 240.697L57.2884 240.696C56.9429 240.696 56.6229 240.609 56.3253 240.435C56.1959 240.338 56.0683 240.238 55.9389 240.138C55.7042 239.902 55.5396 239.621 55.4492 239.298C55.4269 239.13 55.4049 238.96 55.3807 238.792C55.3716 238.53 55.4269 238.287 55.5452 238.059C55.6228 237.823 55.7541 237.618 55.9389 237.447C56.1129 237.26 56.316 237.129 56.5527 237.053C56.7611 236.943 56.9851 236.888 57.2231 236.888ZM143.758 233.378L144.243 233.443C144.707 233.548 145.08 233.889 145.329 234.279C145.463 234.487 145.535 234.713 145.546 234.954C145.599 235.194 145.588 235.436 145.512 235.678C145.457 235.914 145.348 236.121 145.187 236.297C145.132 236.383 145.067 236.463 144.993 236.533C144.841 236.786 144.612 236.952 144.376 237.122C144.176 237.249 143.96 237.317 143.727 237.329C143.573 237.369 143.418 237.369 143.263 237.329C143.032 237.317 142.815 237.249 142.616 237.122C142.498 237.031 142.379 236.939 142.263 236.849C142.159 236.729 142.063 236.605 141.972 236.476C141.912 236.333 141.852 236.193 141.793 236.053C141.684 235.715 141.738 235.416 141.797 235.078C141.806 235.021 141.821 234.969 141.841 234.914L141.881 234.806C141.988 234.526 142.044 234.431 142.233 234.187L142.305 234.09C142.341 234.043 142.378 233.996 142.42 233.954C142.538 233.832 142.706 233.73 142.839 233.625C143.124 233.461 143.431 233.38 143.758 233.378ZM80.996 232.196L81.0576 232.196C81.3256 232.198 81.5772 232.265 81.81 232.399L82.1131 232.634C82.298 232.82 82.4256 233.038 82.4977 233.291C82.5143 233.424 82.533 233.557 82.5513 233.688C82.5587 233.893 82.5163 234.085 82.4219 234.264C82.3629 234.449 82.2592 234.607 82.1131 234.744C81.9784 234.888 81.8174 234.991 81.6325 235.052C81.4712 235.136 81.2976 235.18 81.1132 235.181L81.0576 235.18C80.7877 235.18 80.5363 235.111 80.3034 234.976L80.0002 234.744C79.8153 234.558 79.6878 234.338 79.6157 234.085C79.5991 233.952 79.5806 233.821 79.5621 233.688C79.5547 233.483 79.5972 233.291 79.6915 233.114C79.7525 232.929 79.8542 232.769 80.0002 232.634C80.1352 232.488 80.296 232.385 80.4808 232.326C80.6422 232.241 80.8126 232.198 80.996 232.196ZM68.796 231.585C69.1821 231.582 69.5742 231.691 69.8903 231.914C70.1972 232.132 70.4299 232.366 70.5799 232.719C70.6205 232.815 70.661 232.909 70.6963 233.005C70.8553 233.428 70.8849 233.852 70.6649 234.266C70.4523 234.666 69.9939 234.842 69.5833 234.962C69.2359 235.065 68.8422 235.082 68.4965 234.958C68.3246 234.897 68.1564 234.833 68.0011 234.738C67.7108 234.559 67.5537 234.347 67.3596 234.085C67.208 233.826 67.1322 233.546 67.1322 233.247C67.1322 232.946 67.208 232.667 67.3596 232.407C67.6571 231.899 68.2081 231.589 68.796 231.585ZM49.2008 231.942C49.689 231.942 50.1177 232.167 50.4118 232.547C50.7093 232.933 50.8183 233.413 50.6871 233.891C50.5484 234.397 50.129 234.84 49.6094 234.967C49.225 235.062 48.9106 235.058 48.5279 234.993C48.2044 234.938 47.9569 234.746 47.709 234.546C47.4262 234.316 47.3393 233.895 47.3855 233.555C47.4299 233.215 47.5872 232.994 47.8256 232.793L47.8273 232.787L47.7386 232.855C47.772 232.826 47.8051 232.795 47.8386 232.763C47.8495 232.745 47.8587 232.724 47.868 232.704C48.0048 232.471 48.1896 232.289 48.4207 232.152C48.6629 232.012 48.9217 231.942 49.2008 231.942ZM162.998 226.35C163.266 226.278 163.536 226.278 163.804 226.35C164.002 226.396 164.174 226.487 164.32 226.621C164.468 226.718 164.589 226.841 164.681 226.994L164.71 227.046C164.921 227.404 164.954 227.814 164.863 228.213C164.751 228.705 164.296 229.154 163.804 229.27L163.788 229.273L163.771 229.278C163.571 229.341 163.37 229.35 163.17 229.304C162.969 229.295 162.782 229.235 162.61 229.125C162.392 228.984 162.209 228.803 162.069 228.586C161.957 228.412 161.898 228.226 161.889 228.024C161.854 227.891 161.854 227.759 161.889 227.626C161.898 227.424 161.957 227.238 162.069 227.064L162.305 226.76L162.329 226.74C162.518 226.551 162.741 226.422 162.998 226.35ZM144.387 216.581C146.81 216.581 146.806 220.336 144.387 220.336C141.963 220.336 141.967 216.581 144.387 216.581ZM55.6578 216.106C55.9131 216.049 56.1682 216.06 56.4215 216.139C56.5749 216.204 56.7265 216.269 56.8781 216.331L57.2663 216.631C57.3384 216.691 57.3735 216.758 57.44 216.845L57.5232 216.953C57.6435 217.114 57.6464 217.148 57.7783 217.491C57.8671 217.819 57.8671 218.148 57.7783 218.477C57.7356 218.635 57.6711 218.785 57.5879 218.923C57.5119 219.056 57.4209 219.173 57.3184 219.28L57.2663 219.333C57.0925 219.52 56.8873 219.651 56.6507 219.728C56.501 219.815 56.3401 219.857 56.1682 219.857C55.9131 219.915 55.6578 219.904 55.4048 219.824C55.2513 219.76 55.0997 219.695 54.948 219.632L54.5599 219.333L54.2605 218.945L54.165 218.718L54.0682 218.489L53.9998 217.982C53.9906 217.718 54.0442 217.474 54.1642 217.245C54.2104 217.084 54.2919 216.942 54.41 216.824C54.4952 216.68 54.6097 216.566 54.754 216.481C54.8722 216.363 55.0147 216.282 55.1755 216.235C55.3253 216.149 55.4861 216.106 55.6578 216.106ZM175.524 213.424C175.726 213.417 175.914 213.459 176.088 213.551C176.149 213.572 176.209 213.597 176.266 213.627C176.489 213.758 176.667 213.935 176.798 214.157C176.905 214.327 176.964 214.509 176.974 214.707C177.014 214.885 177.01 215.064 176.962 215.242L176.946 215.296C176.905 215.442 176.844 215.576 176.763 215.7C176.755 215.715 176.746 215.73 176.735 215.742C176.611 215.938 176.447 216.099 176.243 216.219C176.018 216.348 175.776 216.414 175.513 216.416C174.99 216.416 174.539 216.134 174.264 215.7C174.225 215.639 174.203 215.562 174.175 215.499C174.151 215.44 174.112 215.364 174.092 215.296C174.021 215.034 174.021 214.772 174.092 214.509C174.138 214.317 174.225 214.15 174.356 214.007C174.461 213.847 174.6 213.719 174.772 213.627C174.985 213.503 175.214 213.436 175.458 213.425L175.524 213.424ZM73.201 211.587C73.457 211.517 73.7115 211.512 73.9658 211.571L74.0294 211.587C74.2325 211.635 74.4083 211.727 74.5597 211.864C74.728 211.975 74.8631 212.121 74.9609 212.301C75.1016 212.543 75.1718 212.806 75.1735 213.086C75.1718 213.367 75.1016 213.629 74.9609 213.87C74.8222 214.105 74.6355 214.29 74.4009 214.428L74.1976 214.526C74.0275 214.633 73.8464 214.69 73.6502 214.699C73.5192 214.735 73.3877 214.735 73.2585 214.699C73.1252 214.699 73.0014 214.666 72.887 214.6C72.7612 214.565 72.6538 214.502 72.5614 214.41C72.4006 214.306 72.2751 214.17 72.1826 213.998L72.0327 213.645L71.9811 213.254L72.0327 212.865L72.1142 212.673C72.188 212.408 72.3213 212.18 72.5152 211.986C72.7093 211.794 72.9385 211.661 73.201 211.587ZM164.876 208.473C165.146 208.388 165.414 208.377 165.682 208.436C165.863 208.436 166.034 208.482 166.191 208.574C166.363 208.622 166.51 208.707 166.636 208.833C166.856 208.975 167.028 209.163 167.156 209.398L167.359 209.88C167.481 210.191 167.437 210.651 167.363 210.965C167.302 211.223 167.184 211.449 167.008 211.64C166.919 211.79 166.801 211.908 166.651 211.997C166.48 212.152 166.282 212.263 166.058 212.329L165.997 212.346L165.975 212.351C165.971 212.353 165.967 212.353 165.963 212.353C165.962 212.355 165.958 212.355 165.956 212.355C165.867 212.377 165.777 212.39 165.682 212.394C165.414 212.453 165.146 212.442 164.876 212.357C164.717 212.29 164.557 212.222 164.396 212.154C164.259 212.05 164.124 211.945 163.987 211.84C163.882 211.703 163.777 211.567 163.671 211.432C163.523 211.201 163.444 210.95 163.433 210.682C163.384 210.504 163.384 210.326 163.433 210.147C163.433 209.964 163.479 209.796 163.569 209.639C163.651 209.388 163.79 209.172 163.987 208.99C164.124 208.884 164.259 208.779 164.396 208.676C164.557 208.607 164.717 208.539 164.876 208.473ZM46.9734 201.864C47.2523 201.788 47.5316 201.788 47.8108 201.864L48.1858 202.021C48.3707 202.121 48.5169 202.255 48.6278 202.427C48.7683 202.578 48.8624 202.757 48.9105 202.962C49.0197 203.243 49.0068 203.688 48.9199 203.974C48.8219 204.299 48.6704 204.557 48.4356 204.801C48.0455 205.203 47.4464 205.32 46.916 205.198C46.7698 205.165 46.6312 205.1 46.5055 205.021C46.1045 204.773 45.8346 204.341 45.8365 203.863C45.8365 203.811 45.8402 203.76 45.8476 203.708C45.8217 203.603 45.8123 203.494 45.8161 203.379L45.8716 202.962L45.8751 202.951C45.9492 202.687 46.0823 202.458 46.2762 202.264C46.4556 202.087 46.6647 201.959 46.9037 201.882L46.9641 201.864H46.9734ZM186.466 160.411C185.961 156.276 184.062 151.828 178.271 154.256L177.841 154.417C176.408 154.959 174.738 155.67 173.866 156.922C173.266 157.784 173.469 159.455 173.386 160.461C173.008 163.732 173.211 166.998 173.604 170.256C174.112 177.891 172.504 185.802 169.304 192.741C172.507 197.916 176.794 202.743 182.641 204.901C182.889 199.016 184.042 193.24 185.27 187.498L185.318 187.248C185.809 184.658 186.055 182.001 187.758 179.848C191.222 176.092 195.986 178.218 198.266 172.185C197.787 171.943 198.051 171.116 198.628 171.275C200.628 171.629 200.952 167.928 199.584 167.036C198.158 166.168 199.594 164.566 198.987 163.41C198.648 162.912 197.918 162.896 197.587 162.321C196.71 160.208 201.101 158.853 195.937 156.471C194.88 156.095 193.699 156.328 192.633 156.324C191.065 156.47 189.819 157.573 188.385 157.92C189.946 161.957 186.007 165.845 182.451 162.621C180.516 164.447 178.352 168.61 183.056 166.669C185.358 165.135 187.34 163.152 190.012 162.207L190.068 162.189C191.06 161.865 195.401 159.758 195.186 161.581C193.56 163.148 190.878 163.13 188.995 164.402C186.384 165.608 184.715 168.529 181.59 168.489C180.869 172.858 185.834 170.2 187.683 168.995L188.195 168.717C190.803 167.31 193.45 166.007 196.491 165.99C197.33 165.984 197.327 167.276 196.491 167.287C192.528 167.312 189.302 169.786 185.982 171.625C185.655 174.176 189.395 173.059 190.814 172.683C192.302 172.474 194.692 170.867 195.994 171.716C196.503 173.023 194.262 172.926 193.482 173.322C197.044 175.031 193.923 176.107 192.968 173.481L192.688 173.576C190.302 174.377 184.518 176.025 185.206 171.989C184.333 172.375 183.268 172.606 182.303 172.392C179.897 175.945 176.059 174.57 181.638 172.148C180.381 171.564 179.961 169.31 181.168 168.471C176.777 168.203 180.037 163.602 181.855 162.069C181.683 161.896 181.517 161.719 181.362 161.541C180.314 162.039 179.212 162.342 178.035 162.449C176.907 162.55 176.656 160.634 177.769 160.477C178.961 160.309 180.059 159.992 181.109 159.393C182.7 158.707 183.243 161.656 184.836 161.76C185.705 161.932 186.292 161.171 186.466 160.411ZM149.498 198.456C149.883 198.456 150.224 198.617 150.504 198.871C150.783 199.126 150.903 199.508 150.92 199.874C150.927 200.069 150.886 200.252 150.798 200.422C150.74 200.597 150.642 200.749 150.504 200.878C150.245 201.135 149.862 201.294 149.498 201.294C149.114 201.294 148.772 201.133 148.492 200.878C148.213 200.621 148.093 200.241 148.076 199.874C148.069 199.68 148.11 199.497 148.198 199.327C148.25 199.17 148.335 199.03 148.452 198.91L148.492 198.871C148.751 198.613 149.134 198.456 149.498 198.456ZM161.149 189.701L161.211 189.702C161.536 189.704 161.838 189.785 162.118 189.947C162.24 190.042 162.362 190.134 162.483 190.228C162.706 190.453 162.86 190.717 162.945 191.022C163.032 191.34 163.032 191.659 162.945 191.976C162.915 192.159 162.847 192.336 162.74 192.49C162.58 192.754 162.37 192.966 162.104 193.123C161.828 193.284 161.53 193.363 161.211 193.365C160.891 193.363 160.593 193.284 160.318 193.123C160.052 192.966 159.841 192.754 159.684 192.49C159.575 192.336 159.506 192.159 159.477 191.976C159.39 191.659 159.39 191.34 159.477 191.022C159.556 190.739 159.694 190.491 159.892 190.277L159.939 190.228C160.102 190.053 160.294 189.929 160.517 189.857C160.714 189.754 160.925 189.702 161.149 189.701ZM72.2323 189.8C72.3693 189.763 72.5042 189.763 72.641 189.8C72.8444 189.809 73.0346 189.87 73.2104 189.981C73.3139 190.062 73.4174 190.141 73.5209 190.221L73.6112 190.329C73.8041 190.564 73.809 190.604 73.957 190.961C74.0182 191.161 74.0275 191.36 73.9831 191.559C73.9831 191.694 73.948 191.82 73.8812 191.936C73.8444 192.063 73.7816 192.174 73.6873 192.266C73.6206 192.379 73.532 192.469 73.4191 192.536C73.2751 192.667 73.105 192.757 72.9091 192.803L72.5114 192.857C72.4599 192.85 72.4062 192.842 72.3545 192.837C72.2921 192.835 72.2315 192.828 72.1722 192.816L72.1121 192.803L72.0575 192.789C71.9851 192.768 71.9146 192.74 71.8461 192.704C71.7167 192.667 71.604 192.602 71.5076 192.506C71.3415 192.399 71.2084 192.255 71.1122 192.076L71.0864 192.017C71.0512 191.954 71.0217 191.89 70.9993 191.82C70.9366 191.709 70.9052 191.591 70.9033 191.463C70.8666 191.294 70.869 191.126 70.913 190.958L70.9292 190.902L71.0716 190.564C71.1455 190.45 71.2232 190.333 71.3228 190.239C71.3829 190.186 71.5296 190.072 71.6123 190.014L71.6629 189.981C71.8387 189.87 72.0291 189.809 72.2323 189.8ZM49.9458 187.16C50.212 186.113 51.5874 185.783 52.3361 186.531C53.0846 187.278 52.7539 188.652 51.7059 188.918L51.5856 188.947C50.5725 189.204 49.6593 188.29 49.9163 187.278L49.9458 187.16ZM176.828 178.622C176.82 178.519 176.953 178.482 177.02 178.543C177.911 179.34 178.478 180.297 179.56 180.915C180.647 181.535 181.767 181.485 182.9 181.886C183.285 182.022 183.287 182.536 182.9 182.67C180.756 183.418 176.99 180.883 176.828 178.622ZM76.07 178.46C76.3087 178.386 76.549 178.375 76.7875 178.428C76.9502 178.428 77.1016 178.469 77.2402 178.55C77.3936 178.593 77.5251 178.67 77.6377 178.781C77.7728 178.86 77.88 178.969 77.9612 179.104C78.1203 179.277 78.2275 179.481 78.2828 179.713L78.3457 180.191L78.2828 180.669C78.2218 180.811 78.1608 180.956 78.1016 181.098L77.9365 181.321C77.8026 181.499 77.7812 181.501 77.4565 181.742C77.2496 181.873 77.026 181.945 76.7875 181.954C76.6283 181.999 76.4693 181.999 76.3087 181.954C76.1479 181.954 75.9961 181.914 75.8558 181.832C75.704 181.79 75.5711 181.712 75.4582 181.602C75.2624 181.474 75.109 181.306 74.996 181.098C74.935 180.956 74.8742 180.811 74.815 180.669L74.7502 180.191L74.815 179.713L74.8186 179.698C74.9036 179.399 75.0554 179.139 75.2733 178.919L75.6321 178.642C75.7724 178.552 75.9185 178.506 76.07 178.46ZM162.364 178.818C162.876 178.677 163.438 178.825 163.813 179.2C164.189 179.575 164.337 180.134 164.196 180.645C164.058 181.144 163.656 181.548 163.155 181.683C163.006 181.723 162.854 181.746 162.701 181.738C162.444 181.736 162.203 181.672 161.98 181.543L161.691 181.319C161.551 181.19 161.453 181.037 161.395 180.86C161.305 180.69 161.264 180.507 161.272 180.309L161.27 180.274C161.264 180.204 161.273 180.134 161.296 180.066C161.296 179.994 161.307 179.923 161.325 179.855C161.46 179.357 161.867 178.954 162.364 178.818ZM51.9738 173.819C52.1383 173.813 52.2917 173.846 52.4341 173.922C52.5838 173.97 52.7113 174.051 52.8186 174.169C52.9369 174.276 53.0182 174.406 53.0663 174.553C53.1421 174.696 53.1753 174.849 53.1698 175.013C53.1698 175.229 53.1143 175.43 53.0071 175.615C52.9443 175.696 52.8814 175.777 52.8186 175.857C52.6707 176.006 52.4951 176.108 52.2917 176.165L52.1734 176.206C51.9996 176.268 51.8296 176.272 51.6484 176.248C51.458 176.222 51.2822 176.17 51.1271 176.052C50.9753 175.964 50.8554 175.844 50.7666 175.692L50.6649 175.452C50.6428 175.371 50.6335 175.25 50.628 175.164C50.628 175.151 50.628 175.141 50.6261 175.127C50.6261 175.055 50.6483 174.88 50.6666 174.808C50.7075 174.657 50.7905 174.513 50.8849 174.391C50.9663 174.264 51.0772 174.164 51.214 174.09L51.2262 174.081L51.2399 174.072C51.2822 174.042 51.3267 174.012 51.3711 173.981C51.556 173.874 51.7575 173.819 51.9738 173.819ZM147.433 172.508C147.729 172.508 148.004 172.584 148.26 172.731C148.269 172.735 148.278 172.739 148.285 172.743C148.529 172.886 148.723 173.08 148.868 173.324C149.016 173.577 149.089 173.85 149.089 174.142C149.089 174.435 149.016 174.707 148.868 174.959C148.723 175.203 148.529 175.397 148.285 175.541C148.278 175.547 148.269 175.55 148.26 175.554C148.004 175.702 147.729 175.775 147.433 175.777C147.139 175.775 146.864 175.702 146.609 175.554C146.11 175.262 145.797 174.718 145.797 174.142C145.797 173.566 146.11 173.021 146.609 172.731C146.864 172.584 147.139 172.508 147.433 172.508ZM70.6645 170.373L70.7148 170.372C70.9108 170.365 71.0936 170.405 71.2618 170.496C71.4375 170.553 71.5909 170.651 71.7205 170.789L71.9904 171.014L72.0687 171.078C72.0816 171.089 72.0943 171.099 72.1066 171.111C72.288 171.293 72.4118 171.507 72.4821 171.755C72.5043 171.897 72.5226 172.037 72.5376 172.179C72.578 172.549 72.3601 172.927 72.1198 173.189C71.9904 173.328 71.8368 173.425 71.6595 173.484C71.4894 173.573 71.3045 173.614 71.1084 173.606C70.7073 173.571 70.3266 173.486 70.0383 173.176C70.0048 173.139 69.9734 173.101 69.9403 173.062L69.7092 172.796C69.5336 172.619 69.4114 172.41 69.345 172.17C69.3264 172.043 69.3099 171.917 69.2933 171.792C69.2765 171.413 69.4613 171.059 69.7092 170.789C69.9381 170.54 70.3262 170.387 70.6645 170.373ZM61.3333 166.486C63.2556 166.486 63.2519 169.464 61.3333 169.464C59.4124 169.464 59.4161 166.486 61.3333 166.486ZM157.993 162.311L158.053 162.312C158.371 162.314 158.669 162.393 158.944 162.554L159.303 162.829C159.521 163.051 159.673 163.309 159.758 163.608C159.778 163.765 159.798 163.922 159.821 164.077C159.83 164.321 159.778 164.548 159.667 164.758C159.597 164.976 159.475 165.166 159.303 165.327C159.142 165.499 158.953 165.62 158.734 165.691C158.523 165.801 158.296 165.853 158.053 165.844C157.734 165.842 157.436 165.763 157.16 165.602C157.04 165.51 156.922 165.417 156.802 165.327C156.601 165.122 156.456 164.886 156.369 164.616L156.349 164.548L156.284 164.077C156.275 163.835 156.327 163.608 156.438 163.398C156.508 163.178 156.63 162.99 156.802 162.829C156.963 162.657 157.153 162.535 157.371 162.465C157.564 162.364 157.772 162.312 157.993 162.311ZM149.333 156.737C149.505 156.731 149.664 156.767 149.814 156.844C149.967 156.894 150.101 156.981 150.213 157.101C150.452 157.291 150.598 157.671 150.598 157.979C150.598 158.288 150.452 158.668 150.213 158.858C150.058 159.011 149.875 159.118 149.664 159.177L149.333 159.222C149.012 159.237 148.685 159.069 148.455 158.858C148.409 158.816 148.365 158.773 148.319 158.733C148.11 158.541 148.019 158.254 148.006 157.979C148.001 157.834 148.032 157.697 148.099 157.57C148.141 157.437 148.215 157.324 148.319 157.226C148.365 157.186 148.409 157.143 148.455 157.101C148.705 156.87 148.997 156.754 149.333 156.737ZM204.196 146.807C205.411 145.33 204.703 144.278 202.878 144.643C199.733 145.068 196.774 147.053 194.005 148.476C190.982 150.07 187.867 151.385 184.784 152.883C186.056 153.663 187.002 154.884 187.725 156.277C189.168 155.183 191.012 154.66 192.812 154.592C196.079 151.468 201.488 150.753 204.196 146.807ZM60.6863 151.712C61.0157 151.714 61.3243 151.791 61.6135 151.946L61.6752 151.98L62.0708 152.286C62.263 152.464 62.398 152.674 62.4774 152.916C62.5994 153.148 62.6549 153.401 62.6457 153.671C62.6549 153.94 62.5994 154.191 62.4774 154.424C62.398 154.668 62.263 154.876 62.0708 155.054C61.9617 155.196 61.8212 155.306 61.653 155.388C61.4957 155.452 61.3406 155.519 61.1834 155.585C61.0078 155.641 60.8045 155.648 60.6141 155.657C60.2684 155.655 59.9469 155.569 59.6471 155.395L59.259 155.096C59.0723 154.922 58.9391 154.718 58.8614 154.479C58.7514 154.27 58.6957 154.046 58.6957 153.807L58.6971 153.741C58.6971 153.726 58.6971 153.71 58.6991 153.693C58.7211 153.519 58.7453 153.346 58.769 153.173C58.8302 152.918 58.9466 152.694 59.1204 152.506C59.1648 152.417 59.2239 152.345 59.2999 152.286C59.5437 152.043 59.8319 151.876 60.1649 151.782C60.3386 151.76 60.5124 151.736 60.6863 151.712ZM146.46 146.821L146.516 146.822C146.766 146.822 146.997 146.885 147.211 147.008C147.306 147.081 147.398 147.152 147.49 147.224C147.663 147.396 147.781 147.599 147.845 147.832L147.895 148.197C147.901 148.387 147.862 148.563 147.775 148.727C147.72 148.897 147.625 149.045 147.49 149.17C147.367 149.305 147.219 149.399 147.047 149.454C146.884 149.541 146.707 149.58 146.516 149.573C146.269 149.573 146.036 149.51 145.821 149.384C145.729 149.314 145.634 149.242 145.542 149.17C145.386 149.013 145.274 148.829 145.206 148.62L145.189 148.563L145.139 148.197C145.132 148.007 145.171 147.832 145.257 147.667C145.313 147.496 145.409 147.348 145.542 147.224C145.668 147.089 145.816 146.995 145.986 146.94C146.134 146.862 146.292 146.823 146.46 146.821ZM71.4914 144.822L71.5559 144.823C71.9237 144.824 72.2657 144.917 72.5837 145.101C72.7205 145.207 72.8574 145.312 72.9941 145.419C73.2473 145.672 73.4211 145.971 73.5192 146.316L73.5912 146.855C73.6022 147.136 73.5431 147.396 73.4155 147.638C73.3344 147.891 73.1937 148.109 72.9941 148.293C72.8112 148.491 72.5929 148.631 72.3397 148.712C72.0975 148.84 71.8368 148.899 71.5559 148.888C71.188 148.888 70.846 148.795 70.528 148.611C70.3914 148.506 70.2546 148.399 70.116 148.293C69.8644 148.038 69.6906 147.739 69.5926 147.396L69.5205 146.855C69.5095 146.576 69.5686 146.314 69.6962 146.072C69.7775 145.822 69.918 145.602 70.116 145.419C70.3008 145.22 70.5188 145.079 70.772 144.998C70.9956 144.88 71.2349 144.823 71.4914 144.822ZM139.941 139.746C140.109 139.702 140.277 139.702 140.445 139.746C140.697 139.757 140.932 139.833 141.15 139.971L141.533 140.267C141.538 140.272 141.544 140.278 141.549 140.285C141.78 140.518 141.941 140.793 142.03 141.109L142.096 141.605C142.106 141.862 142.052 142.102 141.936 142.323C141.866 142.536 141.751 142.722 141.593 142.882L141.533 142.941C141.36 143.126 141.159 143.257 140.924 143.333C140.777 143.42 140.615 143.462 140.445 143.462C140.194 143.519 139.941 143.508 139.689 143.429C139.54 143.364 139.388 143.301 139.237 143.239L139.188 143.211C138.617 142.899 138.264 142.246 138.264 141.605C138.264 140.964 138.617 140.309 139.188 139.997C139.205 139.99 139.22 139.98 139.237 139.971C139.455 139.833 139.689 139.757 139.941 139.746Z" fill="black"/>
<path fill-rule="evenodd" clip-rule="evenodd" d="M116.883 52.6446C144.707 53.5242 146.385 66.722 146.385 88.8552C146.385 110.988 131.951 124.936 126.636 127.371C121.322 129.806 107.327 140.267 94.6982 135.446C82.0691 130.626 85.7263 110.26 85.7263 101.509C85.7263 92.7581 89.0594 51.7649 116.883 52.6446Z" fill="white"/>
<path fill-rule="evenodd" clip-rule="evenodd" d="M128.171 120.102C123.061 122.95 117.211 123.061 111.714 121.269C108.418 120.196 105.396 118.538 102.568 116.556C100.107 114.83 97.911 112.915 95.7353 110.882C93.944 106.938 92.3488 103 91.6018 98.708C90.9326 94.8552 90.8439 90.8548 91.6203 87.0095C97.3622 82.2929 103.069 77.5374 108.768 72.7674C111.67 70.3378 114.58 67.9215 117.525 65.5436C119.02 64.3363 120.501 63.1105 121.991 61.8976C122.237 61.6983 122.481 61.4989 122.727 61.2995C125.803 63.548 129.1 65.4755 132.155 67.7607C133.753 68.9588 135.308 70.2344 136.789 71.5763C137.565 72.2799 138.323 73.0054 139.063 73.7493C139.739 74.4288 140.392 75.4034 141.351 75.6602C141.483 75.6951 141.606 75.7024 141.723 75.6858C143.006 86.9024 143.917 99.0144 138.421 109.201C136.023 113.644 132.624 117.617 128.171 120.102ZM94.9313 124.224C94.2277 123.581 95.2763 122.539 95.9769 123.18C100.378 127.205 106.131 129.339 111.942 130.327C112.88 130.486 112.48 131.909 111.549 131.751C105.482 130.72 99.5184 128.42 94.9313 124.224ZM89.6506 130.401C88.8106 129.951 89.5584 128.676 90.3969 129.125C93.8255 130.962 97.5861 131.916 101.4 132.56C102.339 132.718 101.938 134.141 101.007 133.984C97.0635 133.318 93.1934 132.298 89.6506 130.401ZM103.605 68.1836C106.45 65.6341 109.507 63.2082 112.737 61.1611C116.005 59.0898 119.575 57.8511 123.433 57.8216C123.163 58.0375 122.906 58.2775 122.645 58.5007C121.917 59.123 121.19 59.7488 120.464 60.3728C119.011 61.6226 117.554 62.8703 116.12 64.1406C113.295 66.6438 110.461 69.1342 107.642 71.643C102.224 76.4648 96.9222 81.3918 91.7349 86.4612C91.7628 86.3375 91.7924 86.2138 91.8218 86.0903C93.5391 78.9275 98.2105 73.0183 103.605 68.1836ZM125.906 58.1335C125.925 58.0782 125.938 58.0244 125.945 57.9729C133.349 58.9366 139.532 64.3767 141.577 71.5396C141.399 71.7869 141.301 72.0805 141.338 72.3923C141.357 72.5494 141.375 72.7081 141.394 72.865C141.14 72.6142 140.88 72.3795 140.658 72.1562C139.92 71.4104 139.164 70.6847 138.388 69.9776C136.8 68.5324 135.151 67.181 133.413 65.9202C130.391 63.7271 127.119 61.7112 123.516 60.6589C123.753 60.4651 123.989 60.2713 124.228 60.0793C124.939 59.5013 125.599 59.0252 125.906 58.1335ZM139.179 50.4743C134.633 45.5139 128.339 41.8809 121.71 40.6182C115.38 39.4109 108.827 40.2065 102.847 42.5528C90.3337 47.4633 80.4604 58.2611 75.837 70.7735C73.1418 78.0635 72.2582 86.0551 73.068 93.7716C73.8738 101.453 76.1901 109.386 80.4049 115.921C80.7912 116.519 81.2146 117.093 81.6582 117.648C81.4604 119.904 80.7062 122.116 79.5194 124.039C79.4556 124.142 79.3884 124.244 79.3218 124.345C78.1065 125.254 76.846 126.107 75.6154 126.987C74.5489 127.75 73.4934 128.532 72.4905 129.377C71.5439 130.175 70.4445 131.063 69.8036 132.14C69.2784 133.022 69.064 134.221 69.7809 135.062C70.6447 136.075 72.1084 135.718 73.2786 135.718C73.3788 135.718 73.4788 135.72 73.5788 135.721C73.9302 135.942 74.2922 136.141 74.6428 136.327C78.1866 138.202 81.7433 140.058 85.3037 141.904C92.395 145.583 99.4567 149.41 106.694 152.797C110.047 154.368 113.637 155.742 117.393 155.736C120.917 155.731 124.102 154.333 126.853 152.208C129.988 149.788 132.609 146.715 135.153 143.702C136.169 142.496 137.166 141.276 138.144 140.039C140.022 139.413 141.885 139.231 143.56 140.438C144.904 141.407 146.675 140.089 146.706 138.634C146.718 138.118 146.696 137.608 146.64 137.106C146.304 134.004 144.784 131.198 143.072 128.596C142.137 127.172 141.152 125.775 140.161 124.39C139.928 124.063 139.698 123.737 139.477 123.404C143.457 117.552 146.614 111.064 148.555 104.283C150.594 97.148 151.287 89.749 150.833 82.3556C150.134 71.0245 147.021 59.0326 139.179 50.4743Z" fill="black"/>
<path fill-rule="evenodd" clip-rule="evenodd" d="M129.779 111.9C128.417 112.294 126.955 112.329 125.567 111.922C124.308 111.553 123.015 110.741 122.089 109.667C121.266 108.712 120.732 107.553 120.753 106.314C120.756 106.173 120.806 106.055 120.884 105.963C120.968 105.865 121.085 105.797 121.211 105.768C121.34 105.737 121.476 105.748 121.592 105.801C121.697 105.848 121.788 105.929 121.844 106.048C121.986 106.235 122.128 106.419 122.271 106.598C123.416 108.01 124.524 109.065 126.246 109.443C127.18 109.649 128.113 109.557 128.969 109.244C129.886 108.909 130.714 108.319 131.363 107.564C131.657 107.223 132.003 107.084 132.342 107.082C132.725 107.079 133.105 107.257 133.391 107.542C133.671 107.821 133.86 108.202 133.877 108.599C133.892 108.948 133.778 109.313 133.474 109.638C132.475 110.71 131.18 111.495 129.779 111.9ZM129.737 94.2164C131.133 95.0638 133.26 97.0396 131.758 99.1403C129.99 100.993 127.445 98.8688 126.191 97.9084C125.028 97.164 123.722 99.0785 124.801 99.9476C133.863 106.648 137.541 94.438 130.443 93.2202C129.661 93.086 129.371 93.9543 129.737 94.2164ZM116.678 90.488C116.23 90.2014 115.702 90.1031 115.117 90.3688C114.66 90.5764 113.858 91.2684 113.3 92.1781C112.919 92.8004 112.648 93.5305 112.704 94.291C112.717 94.4676 112.652 94.5978 112.549 94.6941C112.468 94.7702 112.35 94.8261 112.212 94.8435C112.095 94.8584 111.963 94.845 111.857 94.8117C111.654 94.7484 111.546 94.6169 111.506 94.5096C111.115 93.4735 111.283 92.3174 111.721 91.2744C112.312 89.8667 113.385 88.6876 114.088 88.3075C115.291 87.6567 116.71 87.6268 117.915 88.2897C118.94 88.854 119.582 89.7649 120.219 90.6935C120.355 90.8909 120.49 91.0868 120.629 91.2793C120.907 91.6651 120.935 92.0476 120.827 92.3757C120.708 92.7391 120.403 93.0458 120.021 93.2063C119.669 93.3546 119.26 93.3755 118.898 93.2231C118.593 93.0943 118.312 92.8433 118.134 92.4174C117.835 91.7001 117.337 90.9088 116.678 90.488ZM139.465 92.0837C139.158 92.2436 138.918 92.2918 138.577 92.1899C138.388 92.1333 138.202 92.025 138.056 91.8793C137.912 91.7349 137.807 91.5554 137.767 91.3563C137.667 90.8648 137.398 90.4048 137.014 90.1048C136.686 89.8485 136.272 89.7126 135.813 89.7893C135.317 89.8719 134.845 90.1892 134.52 90.5634C134.411 90.6886 134.326 90.8308 134.241 90.972C134.08 91.2361 133.925 91.4816 133.704 91.6756C133.62 91.7494 133.494 91.8005 133.372 91.8005C133.322 91.8005 133.271 91.7924 133.223 91.7775C132.73 91.2832 132.635 90.9082 132.651 90.5362C132.668 90.1462 132.822 89.7513 133.071 89.3828C133.655 88.5185 134.763 87.8099 135.511 87.6493C136.535 87.4295 137.552 87.6934 138.368 88.2647C139.207 88.8524 139.828 89.765 140.022 90.7935C140.069 91.0412 140.049 91.3086 139.955 91.5404C139.862 91.7669 139.702 91.9609 139.465 92.0837ZM118.937 81.2729C118.323 81.871 117.595 81.9636 116.859 82.046C116.45 82.0922 116.124 82.1295 115.803 82.2018C114.92 82.4009 114.047 82.7006 113.251 83.1324C112.418 83.5837 111.511 84.128 110.859 84.8252C110.703 84.9912 110.557 85.1653 110.411 85.3398C110.277 85.4989 110.148 85.6521 110.013 85.7997C109.857 85.9694 109.709 86.1472 109.562 86.3245C109.471 86.4741 109.453 86.511 109.435 86.5493C109.407 86.6068 109.375 86.6713 109.339 86.7404C109.288 86.835 109.23 86.9386 109.168 87.0326C109.066 87.2043 109.011 87.2516 108.963 87.2728C108.885 87.3078 108.81 87.325 108.737 87.3157C108.67 87.3069 108.606 87.2743 108.542 87.221C108.227 86.9547 108.134 86.5178 108.143 86.054C108.158 85.3501 108.418 84.5708 108.657 84.0918C109.215 82.9786 109.987 81.8215 110.917 80.9907C111.977 80.0424 113.137 79.3245 114.47 78.8298C115.298 78.5223 116.256 78.24 117.158 78.2756C117.808 78.3013 118.428 78.4941 118.94 78.9754C119.254 79.2709 119.405 79.6912 119.405 80.1113C119.405 80.5396 119.248 80.9706 118.937 81.2729ZM140.715 86.7492C140.676 86.8132 140.622 86.8573 140.562 86.8838C140.499 86.9115 140.428 86.9195 140.361 86.9082C140.293 86.8968 140.229 86.8664 140.179 86.8198C140.13 86.7752 140.093 86.716 140.076 86.6435C139.668 84.8536 138.876 83.5219 137.185 82.6632C136.353 82.2408 135.396 81.9724 134.49 81.7584C134.227 81.6962 133.949 81.6559 133.669 81.615C132.792 81.4871 131.907 81.3405 131.335 80.632C130.991 80.2053 130.846 79.6595 130.928 79.1604C131.005 78.6904 131.28 78.2595 131.78 78.0012C133.024 77.3586 134.571 77.9892 135.828 78.5263C135.921 78.5662 136.012 78.6053 136.102 78.643C137.331 79.1611 138.452 79.845 139.373 80.823C140.104 81.5988 140.782 82.7458 141.055 83.9258C141.282 84.9074 141.228 85.9096 140.715 86.7492Z" fill="black"/>
<path fill-rule="evenodd" clip-rule="evenodd" d="M142.709 97.36C139.934 98.6943 136.064 96.7263 134.198 94.6648C133.519 93.9142 132.995 91.7667 133.257 90.4046C133.964 86.716 136.622 84.5023 139.429 83.7463C143.319 82.6981 147.234 85.3535 146.777 88.487C146.345 91.4567 145.689 95.7645 142.709 97.36ZM123.825 90.2745C123.603 94.2943 120.37 97.8127 116.506 98.8551C110.281 100.59 107.205 96.2199 105.812 91.5123C105.673 91.0445 105.348 89.6167 106.221 88.3921C109.656 83.5748 118.014 84.3959 122.189 85.7184C123.411 86.8853 123.91 88.5695 123.825 90.2745ZM145.723 83.3413C145.721 83.3437 145.719 83.3457 145.717 83.3481C145.703 83.3394 145.689 83.3306 145.674 83.3221C145.69 83.3287 145.707 83.3344 145.723 83.3413ZM150.931 83.8059C150.57 79.7132 137.71 81.2803 136.207 81.6158C132.104 82.8209 128.56 86.0995 123.972 84.6582C119.219 79.3669 103.212 80.8844 99.8565 83.5798C99.2214 83.3309 98.449 83.4644 97.6306 83.6992C93.4281 83.5477 74.2426 84.9944 78.1668 90.3507C78.7624 90.7633 79.3575 90.3435 79.3739 89.4936C99.831 82.1192 97.848 89.0266 100.274 88.2198C100.645 88.3264 101.031 88.3937 101.369 88.4646C103.247 89.0679 103.885 88.8815 104.132 90.9865C105.831 107.241 127.507 101.631 125.729 88.2981C127.489 88.2014 129.029 87.4414 130.891 88.1835C132.183 100.743 142.304 101.25 145.35 96.8965C147.647 93.8745 146.736 89.314 149.893 86.9366C151.14 87.9782 151.22 84.4629 150.931 83.8059Z" fill="black"/>
<path fill-rule="evenodd" clip-rule="evenodd" d="M231.31 119.628L232.31 128.633L230.286 128.795C227.462 129.02 225.156 131.143 224.699 133.938C223.644 140.381 223.644 146.952 224.699 153.395C225.156 156.19 227.462 158.313 230.286 158.538L234.649 158.887C241.539 159.437 248.461 159.437 255.351 158.887L259.715 158.538C262.538 158.313 264.844 156.19 265.302 153.395C266.357 146.952 266.357 140.381 265.302 133.938C264.844 131.143 262.538 129.02 259.715 128.795L257.69 128.633L258.69 119.628C258.808 118.566 258.808 117.495 258.69 116.433L258.624 115.836C257.919 109.497 252.936 104.481 246.602 103.736C245.538 103.611 244.462 103.611 243.398 103.736C237.064 104.481 232.081 109.497 231.376 115.836L231.31 116.433C231.192 117.495 231.192 118.566 231.31 119.628ZM246.09 108.081C245.366 107.996 244.634 107.996 243.91 108.081C239.597 108.588 236.204 112.003 235.724 116.319L235.658 116.917C235.576 117.657 235.576 118.404 235.658 119.145L236.675 128.301C242.219 127.945 247.781 127.945 253.325 128.301L254.342 119.145C254.424 118.404 254.424 117.657 254.342 116.917L254.276 116.319C253.796 112.003 250.403 108.588 246.09 108.081ZM245 139.292C242.584 139.292 240.625 141.25 240.625 143.667C240.625 146.083 242.584 148.042 245 148.042C247.416 148.042 249.375 146.083 249.375 143.667C249.375 141.25 247.416 139.292 245 139.292Z" fill="white"/>
</svg>
