<svg width="100" height="94" viewBox="0 0 100 94" fill="none" xmlns="http://www.w3.org/2000/svg">
<path fill-rule="evenodd" clip-rule="evenodd" d="M33.4151 49.7852C14.8063 56.2865 1.21443 73.4782 0 94H99.823C98.6085 73.4782 85.0167 56.2865 66.4079 49.7852C62.0058 53.654 56.2326 56 49.9115 56C43.5904 56 37.8172 53.654 33.4151 49.7852Z" fill="#6075E6"/>
<path fill-rule="evenodd" clip-rule="evenodd" d="M98.3825 84.6809C94.8878 86.1737 91.0404 87 87 87C70.9837 87 58 74.0163 58 58C58 56.8477 58.0672 55.7112 58.1979 54.594C61.2485 53.5226 64.0285 51.8764 66.4079 49.7852C82.1182 55.2739 94.2528 68.3821 98.3825 84.6809Z" fill="#F6BB42"/>
<circle cx="49.9115" cy="25" r="25" fill="#6075E6"/>
<path d="M43 33C45.1667 36.5 51.2 41.4 58 33" stroke="#F6BB42" stroke-width="2"/>
</svg>
