<svg width="49" height="25" viewBox="0 0 49 25" fill="none" xmlns="http://www.w3.org/2000/svg">
<rect width="49" height="25" rx="3" fill="#323859"/>
<path d="M11.9395 18H10.3193V8.00586H15.959V9.38672H11.9395V12.5107H15.7061V13.8984H11.9395V18ZM19.4043 12.6543H20.5391C21.3001 12.6543 21.8516 12.513 22.1934 12.2305C22.5352 11.9479 22.7061 11.5286 22.7061 10.9727C22.7061 10.4076 22.5215 10.002 22.1523 9.75586C21.7832 9.50977 21.2272 9.38672 20.4844 9.38672H19.4043V12.6543ZM19.4043 14.0078V18H17.7705V8.00586H20.5938C21.8835 8.00586 22.8382 8.2474 23.458 8.73047C24.0778 9.21354 24.3877 9.94271 24.3877 10.918C24.3877 12.1621 23.7406 13.0485 22.4463 13.5771L25.2695 18H23.4102L21.0176 14.0078H19.4043ZM32.3789 18H26.7256V8.00586H32.3789V9.38672H28.3594V12.1074H32.126V13.4746H28.3594V16.6123H32.3789V18ZM40.1992 18H34.5459V8.00586H40.1992V9.38672H36.1797V12.1074H39.9463V13.4746H36.1797V16.6123H40.1992V18Z" fill="white"/>
</svg>
