<svg width="93" height="93" viewBox="0 0 93 93" fill="none" xmlns="http://www.w3.org/2000/svg">
<path d="M43.5937 73.625C43.5937 72.0199 44.8949 70.7188 46.5 70.7188H69.75C70.285 70.7188 70.7188 70.285 70.7188 69.75L70.7187 23.25C70.7187 22.715 70.285 22.2813 69.75 22.2813L46.5 22.2813C44.8949 22.2813 43.5937 20.9801 43.5937 19.375C43.5937 17.7699 44.8949 16.4688 46.5 16.4688H69.75C73.4952 16.4688 76.5312 19.5048 76.5312 23.25V69.75C76.5312 73.4952 73.4952 76.5312 69.75 76.5312H46.5C44.8949 76.5312 43.5937 75.2301 43.5937 73.625Z" fill="#0C1117"/>
<path d="M13.5625 50.8215C13.5625 52.9616 15.2974 54.6965 17.4375 54.6965H36.2544C36.3433 56.0737 36.4545 57.4499 36.5881 58.8245L36.7031 60.0071C36.89 61.9301 38.9319 63.0817 40.6742 62.2467C47.7574 58.8521 54.1697 54.2069 59.6026 48.5344L59.7187 48.4132C60.7537 47.3325 60.7537 45.6284 59.7187 44.5477L59.6026 44.4265C54.1697 38.754 47.7574 34.1088 40.6742 30.7142C38.9319 29.8792 36.89 31.0308 36.7031 32.9538L36.5881 34.1364C36.4545 35.511 36.3433 36.8872 36.2544 38.2645H17.4375C15.2974 38.2645 13.5625 39.9994 13.5625 42.1395V50.8215Z" fill="#0C1117"/>
</svg>
