<svg width="97" height="88" viewBox="0 0 97 88" fill="none" xmlns="http://www.w3.org/2000/svg">
<path d="M28.4778 0C13.1006 0 0 12.5028 0 28.7408C0 39.9427 4.82379 49.3736 11.2169 57.1859C17.588 64.9714 25.8078 71.5064 33.2387 76.9759L46.0599 86.413C47.464 87.4465 49.3052 87.4465 50.7094 86.413L63.5305 76.9759C70.9615 71.5064 79.1812 64.9714 85.5524 57.1859C91.9454 49.3736 96.7692 39.9427 96.7692 28.7408C96.7692 12.5028 83.6687 0 68.2914 0C60.3648 0 53.3899 4.04155 48.3846 9.271C43.3794 4.04155 36.4044 0 28.4778 0Z" fill="#6075E6"/>
<path fill-rule="evenodd" clip-rule="evenodd" d="M1.20301 38.3033C19.1661 37.6699 33.5339 22.9082 33.5339 4.7906C33.5339 3.33441 33.4411 1.8999 33.261 0.492659C31.7133 0.172656 30.1159 6.10352e-05 28.4778 6.10352e-05C13.1006 6.10352e-05 7.62939e-06 12.5028 7.62939e-06 28.7408C7.62939e-06 32.0848 0.429867 35.2709 1.20301 38.3033Z" fill="#F6BB42"/>
</svg>
