<svg width="309" height="274" viewBox="0 0 309 274" fill="none" xmlns="http://www.w3.org/2000/svg">
<path fill-rule="evenodd" clip-rule="evenodd" d="M107.916 107.257C113.122 107.514 121.228 109.746 121.633 111.173C122.266 113.401 120.906 121.752 123.18 126.251C124.15 128.169 127.831 127.997 129.258 128.621C134.031 130.711 148.161 134.674 151.074 139.664C152.241 141.663 159.414 166.47 163.225 179.125C163.655 180.552 164.14 181.872 164.668 183.094L164.862 182.144C166.416 174.495 167.193 169.865 167.193 168.253C167.193 165.734 165.184 155.106 167.193 152.404C169.182 149.728 173.974 147.54 176.131 147.497L176.195 147.496C177.611 147.496 178.84 147.054 179.881 146.168L181.407 145.4C189.173 141.503 193.711 139.365 195.019 138.986C197.107 138.383 200.661 139.669 198.884 141.6C197.699 142.887 194.723 145.165 189.954 148.432L188.156 149.861L188.373 149.975C190.697 151.198 192.064 152.228 192.472 153.064C192.894 153.926 192.692 154.946 191.866 156.123L191.991 156.245C193.035 157.27 193.558 157.958 193.558 158.308V160.019C194.597 161.541 194.857 162.81 194.337 163.827C193.818 164.844 192.994 165.725 191.866 166.47C191.034 168.657 190.045 170.213 188.896 171.139C187.747 172.065 185.762 172.836 182.941 173.452L180.388 179.558L178.319 188.136L177.277 197.708L177.579 197.927C178.982 198.949 179.881 199.707 179.881 200.49C179.881 201.71 174.22 230.393 165.413 231.676C163.509 231.954 153.631 230.592 150.388 227.953L150.436 228.238C151.199 232.848 151.037 235.243 149.951 235.421C136.605 237.609 98.7002 238.285 36.2372 237.449C35.8656 204.29 37.546 182.207 41.2785 171.199C50.8245 143.046 61.3494 133.43 65.0315 132.606C68.2569 131.885 79.4413 127.433 82.5678 126.251C84.6087 125.48 85.0459 123.167 87.3716 123.167L87.5596 123.168C89.8087 123.19 91.8032 123.593 92.9238 122.436C95.8645 119.4 95.0424 115.197 96.2624 111.173C96.9346 108.956 101.528 106.942 107.916 107.257Z" fill="white"/>
<path fill-rule="evenodd" clip-rule="evenodd" d="M93.614 115.207C93.9196 114.602 94.7307 114.68 95.2659 114.955C96.8711 116.129 95.1915 118.404 94.7475 119.836C93.6052 122.614 91.6213 125.329 88.8826 126.628C89.1096 129.39 89.3667 132.145 89.4616 134.916C92.9632 139.26 98.8668 140.846 104.107 142.065C112.338 144.342 121.628 139.677 124.406 131.539C121.244 129.743 120.221 125.038 121.164 121.756C121.246 121.525 121.604 121.423 121.731 121.681C122.597 123.462 122.481 125.635 123.465 127.394C132.913 128.299 145.105 131.864 151.294 139.506C154.037 143.329 155.124 148.301 156.475 152.732C159.357 161.867 161.654 171.186 164.48 180.33L164.814 178.6C165.727 173.834 166.557 169.004 165.94 164.157L165.929 163.925C165.728 160.068 164.521 152.901 167.511 150.297C170.216 148.23 174.135 146.569 177.529 147.522C183.569 144.833 188.783 140.306 195.216 138.542C197.196 138.135 200.045 138.617 199.577 141.304C198.28 146.003 192.848 147.827 189.135 150.249C191.515 150.895 194.417 153.789 192.557 156.314C192.541 156.359 192.527 156.393 192.513 156.419C194.021 157.088 194.232 158.768 193.862 160.209C193.824 160.589 193.724 160.262 193.948 160.607C195.649 162.212 194.897 166.686 192.334 166.838C192.502 168.958 191.14 171.017 189.416 172.173C187.557 173.419 184.87 173.472 183.331 175.178C179.718 181.549 178.472 189.071 178.078 196.367C180.46 197.259 182.596 199.925 180.433 202.187C180.39 202.192 180.347 202.197 180.304 202.2C179.05 205.548 178.566 209.117 177.902 212.614C176.882 218.579 174.222 224.057 170.826 229.027C166.899 235.606 156.338 234.563 151.017 230.317C151.039 231.431 151.222 232.538 150.866 233.615C150.339 234.776 149.055 234.274 148.928 233.13C146.116 234.712 145.453 229.491 148.58 230.319C148.339 226.544 148.2 222.763 148.087 218.982C144.547 220.128 144.395 214.254 148.015 215.429L148.011 213.805C147.984 201.354 148.122 188.86 149.765 176.507C149.917 175.583 150.174 174.69 150.324 173.771C150.34 173.676 150.488 173.703 150.489 173.794C150.743 191.088 149.613 208.42 150.792 225.72C151.774 226.019 152.165 227.146 152.892 227.802C154.505 229.292 156.703 230.018 158.851 230.27C164.868 231.114 167.466 229.276 170.145 224.045C168.937 224.853 167.304 223.427 168.04 222.148L168.063 222.11C168.828 220.755 170.989 221.567 170.715 223.084C173.409 218.769 174.819 213.904 175.86 208.967L176.001 208.378C176.507 206.282 177.164 203.88 178.38 201.984C170.967 200.095 163.716 194.337 162.556 186.439C160.674 192.353 158.124 198.134 155.694 203.886C154.943 205.886 154.631 208.036 153.555 209.891C153.305 210.32 152.67 210.21 152.529 209.757C151.561 205.431 154.493 201.316 156.015 197.421C157.258 195.22 160.826 185.168 163.038 185.144C160.553 174.247 157.237 163.431 154.08 152.67C151.027 138.139 144.805 135.337 131.625 130.762C134.002 142.88 144.856 154.609 139.08 167.319L138.94 167.648C138.349 169.05 137.859 170.462 138.271 172C138.671 173.492 139.583 174.788 140.312 176.13C144.388 183.712 141.582 192.567 140.006 200.463C138.015 209.723 136.049 218.991 133.991 228.237C133.586 230.081 133.323 231.981 132.71 233.769C132.394 234.691 130.816 234.603 130.918 233.527C131.112 231.44 131.698 229.404 132.128 227.354C134.69 214.081 138.157 200.964 140.361 187.634C141.779 177.765 136.197 176.249 136.405 169.873C137.164 166.612 139.172 163.702 139.057 160.226C139.503 149.589 131.757 140.813 130.8 130.467L129.111 129.864C128.267 129.562 127.424 129.258 126.584 128.946C131.008 159.889 129.664 191.509 127.453 222.605C127.001 224.04 127.431 234.063 125.537 233.173C125.441 233.733 125.144 234.284 124.497 234.281C118.623 234.335 112.748 234.428 106.874 234.498C104.048 234.238 100.165 235.317 97.7619 233.686C94.9873 232.894 94.6683 225.378 93.9265 222.7L93.6373 220.751C88.9226 188.917 84.7034 156.426 88.0924 124.276C83.3773 124.458 82.4041 129.548 82.0544 133.253C81.1801 141.433 75.8963 148.477 75.6429 156.75C75.6215 158.757 76.0003 160.702 76.8025 162.545C78.9308 167.06 82.6116 172.28 79.8606 177.323C76.607 181.248 76.8886 182.282 78.0825 187.133C81.4415 203.171 87.0197 218.59 92.3261 234.053C91.1732 240.063 84.2383 217.751 83.5858 216.068C80.516 217.612 78.8391 212.489 82.3602 212.124C80.0986 204.552 78.0173 196.924 76.2845 189.212L76.2386 188.994C75.4731 185.431 73.9675 181.259 76.51 178.098C83.0657 171.467 72.1789 164.055 73.5522 156.023C72.3664 156.902 70.5713 155.977 70.5983 154.5C70.5445 152.837 72.7779 151.985 73.8526 153.254C74.9575 146.737 78.8018 141.047 79.9651 134.549L80.0176 134.244C80.4118 131.947 80.523 129.531 81.6507 127.438C80.1156 128.435 78.4807 129.241 76.7991 129.952C79.8057 132.464 73.9836 134.757 74.4653 130.876C57.9773 135.648 54.2506 142.301 48.1968 157.581C49.3276 156.482 51.2647 157.904 50.5878 159.306C50.0478 160.782 47.692 160.35 47.6929 158.777L47.417 159.435C43.7461 168.214 40.405 177.207 38.7259 186.602C42.0196 186.137 41.181 191.402 38.1968 189.918C36.9991 198.274 36.9802 206.748 37.1266 215.171C39.9048 213.714 39.9884 218.665 37.1534 217.253C37.257 224.156 37.4089 231.059 37.5233 237.962C37.5465 239.431 35.2806 239.424 35.2449 237.962C34.9802 227.355 34.4979 216.73 34.7272 206.12C34.5115 187.706 39.8042 169.958 47.6901 153.462C54.6676 134.469 64.3059 132.309 82.0385 126.787C83.6754 124.357 87.1725 122.058 90.0257 123.584C91.622 121.007 92.4328 117.953 93.614 115.207ZM63.2324 181.403C63.2986 181.169 63.6327 181.228 63.6434 181.458C63.7918 184.438 63.6595 187.437 63.4558 190.429C63.3323 192.256 63.1806 194.08 63.052 195.895C62.7106 200.681 62.4355 205.473 62.2264 210.268C62.2996 210.238 62.3747 210.211 62.4533 210.19C62.8143 210.091 63.1754 210.091 63.5362 210.19C63.8581 210.28 64.1395 210.437 64.3819 210.664L64.4333 210.714C64.6316 210.897 64.7728 211.116 64.855 211.368C64.9721 211.592 65.0314 211.832 65.0312 212.088L65.03 212.152C65.0283 212.52 64.9372 212.862 64.7514 213.18C64.5709 213.486 64.3279 213.729 64.0223 213.911C63.7042 214.095 63.3627 214.186 62.9948 214.188C62.9555 214.192 62.916 214.195 62.8768 214.197C62.6032 214.208 62.3479 214.151 62.1118 214.027L62.0763 214.017C61.9869 216.449 61.9137 218.883 61.86 221.318C61.8118 223.439 61.7475 225.561 61.7046 227.682L61.6847 228.744L61.6458 231.089C61.6331 232.054 61.6393 232.977 61.3115 233.887L61.2721 233.992C61.0363 234.599 60.8524 235.445 60.2212 235.783C59.7175 236.053 59.0384 235.953 58.7489 235.427C58.5059 234.987 58.7166 234.355 59.0759 234.058C59.0688 234.038 59.0581 234.02 59.0491 234.001C58.9937 233.84 58.9096 233.688 58.8597 233.525C58.7023 233.011 58.7454 232.462 58.7436 231.927C58.7436 230.984 58.7756 230.04 58.8008 229.098C58.8562 227.093 58.9205 225.089 58.9989 223.086C59.2645 216.364 59.7647 209.643 60.3375 202.94L60.5319 200.678C60.7909 197.67 61.0589 194.659 61.4383 191.666C61.456 191.523 61.4741 191.38 61.4937 191.237C61.29 191.135 61.1006 190.994 60.9503 190.836C60.3483 190.204 59.9831 189.259 59.6407 188.445L59.562 188.259C59.1903 187.39 58.8472 186.511 58.6703 185.578L58.6534 185.492C58.5727 185.095 58.4134 184.391 58.8347 184.198C59.0545 184.098 59.1937 184.17 59.2654 184.39C59.2745 184.418 59.267 184.45 59.2511 184.475C59.4244 184.741 59.696 184.99 59.8676 185.237L60.4547 186.076L60.745 186.498C61.1131 187.04 61.5062 187.558 61.9119 188.07C62.2316 185.825 62.6231 183.589 63.2324 181.403ZM87.3101 231.429C88.0446 230.853 89.2401 231.166 89.2401 232.228C89.2401 233.295 88.0428 233.602 87.3101 233.027L87.2736 233L87.2386 232.971C86.8397 232.659 86.8263 231.848 87.2085 231.509L87.2386 231.484C87.2617 231.465 87.2851 231.447 87.3101 231.429ZM55.3156 229.354L55.3787 229.355C55.711 229.355 56.0202 229.439 56.3079 229.608C56.433 229.702 56.5563 229.799 56.6814 229.895C56.9101 230.124 57.0673 230.396 57.1549 230.709L57.2212 231.198C57.23 231.452 57.1781 231.688 57.062 231.908C56.9869 232.137 56.8601 232.335 56.6814 232.501C56.5134 232.682 56.3168 232.809 56.0883 232.882C55.8866 232.988 55.6716 233.042 55.4417 233.042L55.3787 233.041C55.0447 233.041 54.7353 232.957 54.4476 232.789C54.3226 232.694 54.1993 232.598 54.0742 232.501C53.8472 232.273 53.6882 232.001 53.6008 231.688C53.5792 231.525 53.5579 231.361 53.5345 231.198C53.5257 230.944 53.5792 230.709 53.6935 230.489C53.7686 230.26 53.8955 230.062 54.0742 229.895C54.2423 229.715 54.4387 229.588 54.6674 229.515C54.8689 229.408 55.0854 229.354 55.3156 229.354ZM138.966 225.956L139.434 226.019C139.883 226.12 140.244 226.451 140.485 226.828C140.614 227.03 140.683 227.248 140.694 227.482C140.746 227.715 140.735 227.949 140.662 228.183C140.608 228.412 140.503 228.612 140.347 228.782C140.294 228.866 140.231 228.943 140.16 229.011C140.013 229.256 139.792 229.416 139.563 229.581C139.37 229.704 139.161 229.77 138.936 229.781C138.787 229.82 138.637 229.82 138.487 229.781C138.264 229.77 138.055 229.704 137.862 229.581C137.747 229.493 137.633 229.404 137.52 229.316C137.42 229.2 137.327 229.08 137.24 228.955C137.181 228.818 137.124 228.682 137.067 228.546C136.961 228.219 137.013 227.929 137.07 227.602C137.079 227.547 137.093 227.497 137.113 227.443L137.152 227.339C137.255 227.068 137.309 226.975 137.492 226.739L137.561 226.646C137.596 226.6 137.632 226.554 137.672 226.514C137.787 226.396 137.949 226.297 138.078 226.196C138.353 226.036 138.65 225.958 138.966 225.956ZM78.296 224.811L78.3555 224.812C78.6147 224.814 78.8579 224.878 79.0828 225.009L79.3759 225.236C79.5546 225.416 79.6779 225.627 79.7476 225.872C79.7637 226.001 79.7817 226.129 79.7994 226.256C79.8066 226.455 79.7656 226.64 79.6743 226.814C79.6173 226.993 79.5171 227.146 79.3759 227.279C79.2456 227.418 79.09 227.518 78.9113 227.577C78.7553 227.658 78.5876 227.701 78.4093 227.702L78.3555 227.7C78.0947 227.7 77.8516 227.634 77.6265 227.504L77.3334 227.279C77.1547 227.098 77.0314 226.885 76.9617 226.64C76.9456 226.512 76.9278 226.385 76.9099 226.256C76.9027 226.058 76.9438 225.872 77.035 225.7C77.0939 225.522 77.1922 225.366 77.3334 225.236C77.4638 225.095 77.6193 224.994 77.798 224.937C77.954 224.855 78.1187 224.814 78.296 224.811ZM66.5026 224.221C66.8759 224.217 67.2549 224.322 67.5605 224.539C67.8572 224.749 68.0821 224.977 68.2271 225.318C68.2664 225.411 68.3055 225.502 68.3396 225.595C68.4933 226.004 68.5219 226.415 68.3093 226.816C68.1038 227.204 67.6606 227.373 67.2637 227.489C66.9279 227.59 66.5473 227.606 66.2131 227.486C66.047 227.427 65.8843 227.364 65.7342 227.273C65.4537 227.1 65.3018 226.894 65.1142 226.64C64.9676 226.39 64.8944 226.118 64.8944 225.829C64.8944 225.538 64.9676 225.268 65.1142 225.016C65.4017 224.524 65.9344 224.224 66.5026 224.221ZM47.5607 224.565C48.0326 224.565 48.447 224.784 48.7313 225.152C49.0188 225.525 49.1243 225.99 48.9974 226.453C48.8634 226.943 48.4579 227.372 47.9556 227.495C47.5841 227.586 47.2801 227.583 46.9102 227.52C46.5975 227.466 46.3582 227.28 46.1186 227.087C45.8452 226.864 45.7612 226.456 45.8058 226.128C45.8487 225.799 46.0008 225.584 46.2313 225.389L46.2329 225.384L46.1472 225.45C46.1795 225.422 46.2115 225.391 46.2438 225.361C46.2544 225.343 46.2633 225.323 46.2722 225.304C46.4045 225.078 46.5832 224.901 46.8066 224.769C47.0406 224.633 47.2908 224.565 47.5607 224.565ZM157.565 219.152C157.824 219.082 158.085 219.082 158.344 219.152C158.535 219.196 158.701 219.284 158.843 219.414C158.986 219.508 159.103 219.627 159.191 219.775L159.219 219.825C159.423 220.172 159.455 220.569 159.368 220.955C159.259 221.432 158.819 221.867 158.344 221.979L158.328 221.982L158.312 221.986C158.119 222.047 157.924 222.056 157.731 222.011C157.536 222.002 157.356 221.945 157.19 221.838C156.979 221.702 156.802 221.527 156.666 221.316C156.559 221.148 156.502 220.968 156.493 220.773C156.459 220.644 156.459 220.515 156.493 220.387C156.502 220.192 156.559 220.011 156.666 219.843L156.895 219.548L156.918 219.529C157.1 219.346 157.316 219.221 157.565 219.152ZM139.574 209.693C141.916 209.693 141.913 213.328 139.574 213.328C137.231 213.328 137.234 209.693 139.574 209.693ZM53.8024 209.234C54.0492 209.178 54.2958 209.189 54.5406 209.266C54.6889 209.328 54.8355 209.391 54.982 209.452L55.3573 209.741C55.427 209.8 55.4609 209.865 55.5252 209.949L55.6057 210.054C55.7219 210.209 55.7247 210.242 55.8523 210.574C55.938 210.892 55.938 211.21 55.8523 211.529C55.811 211.682 55.7486 211.827 55.6682 211.961C55.5947 212.09 55.5067 212.203 55.4077 212.307L55.3573 212.358C55.1893 212.538 54.9909 212.665 54.7622 212.74C54.6175 212.825 54.462 212.866 54.2958 212.866C54.0492 212.921 53.8024 212.91 53.5578 212.833C53.4095 212.771 53.2629 212.708 53.1162 212.647L52.7411 212.358L52.4517 211.983L52.3593 211.762L52.2658 211.541L52.1997 211.05C52.1908 210.794 52.2426 210.558 52.3586 210.336C52.4032 210.181 52.482 210.043 52.5962 209.929C52.6786 209.789 52.7892 209.679 52.9288 209.596C53.043 209.482 53.1807 209.403 53.3362 209.359C53.481 209.275 53.6364 209.234 53.8024 209.234ZM169.673 206.637C169.868 206.63 170.05 206.67 170.218 206.76C170.277 206.78 170.335 206.805 170.39 206.833C170.606 206.96 170.778 207.132 170.905 207.346C171.008 207.511 171.065 207.688 171.074 207.879C171.113 208.051 171.11 208.225 171.063 208.397L171.048 208.449C171.008 208.59 170.949 208.721 170.871 208.84C170.863 208.855 170.855 208.869 170.844 208.881C170.724 209.071 170.565 209.226 170.369 209.343C170.151 209.468 169.916 209.532 169.663 209.534C169.157 209.534 168.721 209.261 168.455 208.84C168.417 208.781 168.396 208.706 168.369 208.646C168.346 208.588 168.308 208.515 168.288 208.449C168.221 208.195 168.221 207.941 168.288 207.688C168.333 207.502 168.417 207.339 168.544 207.201C168.646 207.046 168.78 206.923 168.946 206.833C169.152 206.713 169.374 206.649 169.609 206.638L169.673 206.637ZM70.7609 204.858C71.0083 204.791 71.2543 204.785 71.5001 204.843L71.5616 204.858C71.758 204.905 71.9279 204.994 72.0743 205.126C72.2369 205.234 72.3675 205.375 72.4621 205.55C72.598 205.784 72.6659 206.038 72.6676 206.309C72.6659 206.581 72.598 206.835 72.4621 207.069C72.328 207.296 72.1475 207.475 71.9208 207.609L71.7242 207.704C71.5598 207.807 71.3847 207.863 71.1951 207.871C71.0684 207.906 70.9413 207.906 70.8164 207.871C70.6876 207.871 70.5679 207.84 70.4572 207.775C70.3357 207.741 70.2319 207.68 70.1426 207.591C69.9871 207.491 69.8658 207.359 69.7764 207.192L69.6315 206.851L69.5816 206.472L69.6315 206.095L69.7103 205.909C69.7816 205.653 69.9104 205.432 70.0979 205.244C70.2855 205.058 70.5071 204.93 70.7609 204.858ZM159.38 201.843C159.641 201.761 159.9 201.75 160.16 201.807C160.335 201.807 160.499 201.852 160.651 201.941C160.817 201.988 160.96 202.07 161.082 202.192C161.294 202.329 161.46 202.511 161.584 202.738L161.78 203.205C161.898 203.507 161.855 203.952 161.784 204.256C161.725 204.506 161.611 204.724 161.441 204.91C161.355 205.055 161.241 205.169 161.096 205.255C160.93 205.406 160.74 205.513 160.523 205.576L160.463 205.593L160.442 205.598C160.438 205.6 160.435 205.6 160.431 205.6C160.429 205.602 160.426 205.602 160.424 205.602C160.338 205.623 160.251 205.636 160.16 205.639C159.9 205.696 159.641 205.686 159.38 205.604C159.227 205.539 159.071 205.473 158.916 205.407C158.784 205.307 158.653 205.205 158.521 205.103C158.419 204.971 158.317 204.838 158.215 204.708C158.072 204.485 157.996 204.242 157.985 203.982C157.938 203.809 157.938 203.637 157.985 203.464C157.985 203.287 158.03 203.125 158.117 202.972C158.196 202.73 158.33 202.52 158.521 202.343C158.653 202.241 158.784 202.14 158.916 202.039C159.071 201.973 159.227 201.907 159.38 201.843ZM45.4074 195.444C45.6771 195.371 45.9471 195.371 46.2169 195.444L46.5795 195.596C46.7582 195.693 46.8996 195.823 47.0068 195.989C47.1426 196.136 47.2335 196.309 47.28 196.508C47.3856 196.779 47.3731 197.21 47.2891 197.487C47.1944 197.802 47.0479 198.052 46.8209 198.288C46.4439 198.678 45.8647 198.79 45.352 198.672C45.2107 198.64 45.0767 198.577 44.9552 198.501C44.5676 198.261 44.3067 197.843 44.3085 197.38C44.3085 197.33 44.312 197.28 44.3192 197.23C44.2942 197.128 44.285 197.022 44.2888 196.911L44.3424 196.508L44.3458 196.497C44.4175 196.241 44.5461 196.02 44.7336 195.832C44.9069 195.661 45.1091 195.536 45.3401 195.462L45.3985 195.444H45.4074ZM180.25 155.31C179.762 151.306 177.927 147 172.329 149.35L171.913 149.506C170.528 150.031 168.914 150.72 168.071 151.931C167.49 152.766 167.686 154.384 167.606 155.358C167.241 158.525 167.437 161.688 167.817 164.841C168.308 172.234 166.754 179.893 163.66 186.611C166.757 191.622 170.9 196.296 176.553 198.384C176.792 192.687 177.907 187.095 179.094 181.535L179.141 181.293C179.616 178.786 179.853 176.213 181.499 174.128C184.848 170.492 189.453 172.55 191.657 166.709C191.194 166.475 191.449 165.674 192.007 165.828C193.94 166.171 194.254 162.588 192.931 161.724C191.553 160.884 192.94 159.333 192.354 158.214C192.027 157.731 191.321 157.715 191.001 157.159C190.153 155.113 194.397 153.801 189.406 151.495C188.384 151.131 187.242 151.357 186.212 151.352C184.696 151.494 183.492 152.562 182.105 152.898C183.615 156.807 179.806 160.571 176.369 157.449C174.499 159.217 172.407 163.248 176.954 161.369C179.179 159.883 181.095 157.963 183.678 157.048L183.733 157.031C184.692 156.717 188.888 154.678 188.68 156.443C187.108 157.96 184.516 157.942 182.695 159.174C180.172 160.341 178.558 163.17 175.536 163.131C174.84 167.361 179.639 164.787 181.426 163.62L181.922 163.351C184.443 161.989 187.001 160.728 189.941 160.711C190.753 160.705 190.749 161.957 189.941 161.967C186.11 161.991 182.992 164.386 179.782 166.167C179.466 168.637 183.082 167.556 184.453 167.191C185.892 166.989 188.202 165.433 189.461 166.255C189.953 167.52 187.786 167.426 187.032 167.81C190.476 169.464 187.459 170.506 186.535 167.964L186.265 168.056C183.959 168.831 178.367 170.427 179.032 166.52C178.188 166.893 177.159 167.117 176.226 166.909C173.9 170.35 170.191 169.019 175.583 166.673C174.368 166.108 173.962 163.925 175.129 163.113C170.885 162.854 174.036 158.4 175.793 156.915C175.627 156.748 175.466 156.576 175.316 156.403C174.303 156.886 173.239 157.179 172.1 157.283C171.01 157.381 170.767 155.526 171.843 155.374C172.995 155.211 174.057 154.904 175.072 154.324C176.61 153.66 177.135 156.515 178.675 156.616C179.514 156.782 180.082 156.046 180.25 155.31ZM144.515 192.145C144.886 192.145 145.217 192.3 145.487 192.547C145.757 192.794 145.873 193.164 145.889 193.517C145.896 193.707 145.857 193.884 145.771 194.048C145.715 194.218 145.621 194.365 145.487 194.49C145.237 194.738 144.867 194.892 144.515 194.892C144.143 194.892 143.812 194.736 143.542 194.49C143.273 194.241 143.157 193.873 143.14 193.517C143.133 193.33 143.173 193.153 143.258 192.988C143.308 192.836 143.39 192.7 143.503 192.585L143.542 192.547C143.793 192.297 144.163 192.145 144.515 192.145ZM155.777 183.668L155.837 183.669C156.151 183.671 156.443 183.749 156.714 183.907C156.832 183.998 156.95 184.087 157.066 184.179C157.283 184.397 157.431 184.652 157.513 184.947C157.597 185.255 157.597 185.564 157.513 185.871C157.485 186.048 157.419 186.22 157.315 186.368C157.161 186.624 156.957 186.829 156.7 186.981C156.434 187.137 156.146 187.213 155.837 187.215C155.528 187.213 155.24 187.137 154.974 186.981C154.716 186.829 154.513 186.624 154.361 186.368C154.255 186.22 154.189 186.048 154.161 185.871C154.077 185.564 154.077 185.255 154.161 184.947C154.237 184.673 154.37 184.433 154.562 184.226L154.607 184.179C154.765 184.009 154.951 183.889 155.167 183.819C155.357 183.719 155.56 183.669 155.777 183.668ZM69.8244 183.764C69.9568 183.728 70.0873 183.728 70.2195 183.764C70.4161 183.773 70.6 183.832 70.7699 183.939C70.87 184.018 70.97 184.095 71.0701 184.171L71.1574 184.276C71.3438 184.503 71.3486 184.542 71.4917 184.888C71.5508 185.081 71.5597 185.274 71.5169 185.467C71.5169 185.598 71.4829 185.719 71.4184 185.832C71.3828 185.955 71.3221 186.062 71.2309 186.152C71.1664 186.261 71.0808 186.348 70.9717 186.413C70.8325 186.54 70.668 186.627 70.4786 186.672L70.0943 186.724C70.0444 186.717 69.9926 186.71 69.9425 186.704C69.8822 186.702 69.8236 186.695 69.7663 186.684L69.7083 186.672L69.6554 186.658C69.5854 186.637 69.5173 186.61 69.4511 186.575C69.326 186.54 69.217 186.477 69.1239 186.384C68.9633 186.281 68.8346 186.141 68.7417 185.968L68.7167 185.911C68.6827 185.85 68.6541 185.787 68.6325 185.719C68.5719 185.612 68.5416 185.498 68.5398 185.374C68.5042 185.21 68.5066 185.048 68.5491 184.885L68.5648 184.831L68.7024 184.504C68.7739 184.393 68.8489 184.28 68.9452 184.189C69.0033 184.138 69.1452 184.027 69.2251 183.972L69.274 183.939C69.444 183.832 69.628 183.773 69.8244 183.764ZM48.2808 181.208C48.5382 180.195 49.8677 179.875 50.5914 180.599C51.315 181.323 50.9953 182.652 49.9822 182.91L49.8659 182.938C48.8866 183.187 48.0039 182.302 48.2523 181.323L48.2808 181.208ZM170.933 172.941C170.926 172.841 171.055 172.806 171.119 172.865C171.98 173.637 172.529 174.563 173.574 175.161C174.625 175.762 175.708 175.714 176.803 176.102C177.175 176.234 177.177 176.731 176.803 176.861C174.73 177.585 171.09 175.131 170.933 172.941ZM73.5342 172.784C73.7649 172.713 73.9973 172.702 74.2278 172.754C74.385 172.754 74.5314 172.793 74.6654 172.872C74.8137 172.913 74.9408 172.988 75.0496 173.095C75.1802 173.172 75.2839 173.278 75.3623 173.408C75.5162 173.576 75.6198 173.773 75.6732 173.998L75.734 174.461L75.6732 174.924C75.6143 175.061 75.5553 175.201 75.4981 175.338L75.3385 175.555C75.2091 175.727 75.1883 175.729 74.8745 175.962C74.6745 176.089 74.4583 176.159 74.2278 176.168C74.0739 176.211 73.9202 176.211 73.7649 176.168C73.6095 176.168 73.4628 176.128 73.3271 176.05C73.1804 176.009 73.0519 175.934 72.9428 175.826C72.7535 175.703 72.6052 175.54 72.496 175.338C72.437 175.201 72.3783 175.061 72.3211 174.924L72.2584 174.461L72.3211 173.998L72.3245 173.984C72.4067 173.694 72.5534 173.442 72.7641 173.229L73.1109 172.961C73.2465 172.874 73.3877 172.829 73.5342 172.784ZM156.952 173.131C157.447 172.995 157.99 173.138 158.353 173.501C158.716 173.864 158.859 174.405 158.723 174.901C158.589 175.383 158.201 175.774 157.717 175.905C157.572 175.944 157.426 175.966 157.277 175.959C157.029 175.957 156.797 175.894 156.58 175.769L156.302 175.553C156.166 175.428 156.071 175.279 156.015 175.108C155.928 174.943 155.889 174.767 155.896 174.575L155.894 174.541C155.889 174.473 155.897 174.405 155.919 174.339C155.919 174.269 155.93 174.202 155.948 174.135C156.078 173.653 156.471 173.263 156.952 173.131ZM50.2412 168.291C50.4002 168.285 50.5485 168.318 50.6861 168.391C50.8309 168.437 50.9542 168.516 51.0578 168.63C51.1722 168.734 51.2508 168.859 51.2973 169.002C51.3705 169.14 51.4027 169.288 51.3973 169.447C51.3973 169.656 51.3437 169.851 51.2401 170.03C51.1793 170.109 51.1186 170.187 51.0578 170.264C50.9148 170.409 50.7451 170.507 50.5485 170.563L50.4342 170.602C50.2662 170.663 50.1018 170.666 49.9267 170.643C49.7426 170.618 49.5727 170.568 49.4227 170.454C49.276 170.368 49.16 170.252 49.0743 170.105L48.976 169.873C48.9545 169.794 48.9456 169.676 48.9402 169.594C48.9402 169.581 48.9402 169.571 48.9385 169.558C48.9385 169.488 48.9599 169.319 48.9776 169.249C49.0171 169.102 49.0973 168.963 49.1886 168.845C49.2673 168.722 49.3745 168.625 49.5067 168.554L49.5185 168.545L49.5317 168.536C49.5727 168.507 49.6157 168.479 49.6586 168.448C49.8373 168.344 50.0321 168.291 50.2412 168.291ZM142.519 167.022C142.805 167.022 143.071 167.095 143.317 167.238C143.326 167.242 143.335 167.245 143.342 167.249C143.578 167.388 143.766 167.576 143.905 167.812C144.048 168.057 144.12 168.321 144.12 168.604C144.12 168.888 144.048 169.151 143.905 169.395C143.766 169.632 143.578 169.819 143.342 169.959C143.335 169.964 143.326 169.967 143.317 169.971C143.071 170.114 142.805 170.185 142.519 170.187C142.235 170.185 141.968 170.114 141.722 169.971C141.239 169.689 140.937 169.161 140.937 168.604C140.937 168.046 141.239 167.519 141.722 167.238C141.968 167.095 142.235 167.022 142.519 167.022ZM68.3089 164.955L68.3575 164.954C68.547 164.947 68.7237 164.986 68.8863 165.074C69.0561 165.129 69.2044 165.224 69.3297 165.358L69.5905 165.576L69.6663 165.637C69.6787 165.648 69.691 165.658 69.7029 165.669C69.8783 165.846 69.998 166.053 70.0659 166.293C70.0873 166.43 70.105 166.566 70.1195 166.704C70.1586 167.061 69.9479 167.428 69.7156 167.682C69.5905 167.816 69.4421 167.91 69.2707 167.967C69.1063 168.053 68.9276 168.092 68.738 168.085C68.3502 168.052 67.9823 167.969 67.7035 167.669C67.6712 167.633 67.6408 167.596 67.6088 167.558L67.3854 167.301C67.2157 167.129 67.0976 166.927 67.0334 166.695C67.0154 166.571 66.9995 166.45 66.9834 166.328C66.9671 165.962 67.1458 165.619 67.3854 165.358C67.6067 165.116 67.9819 164.969 68.3089 164.955ZM59.2887 161.192C61.147 161.192 61.1434 164.075 59.2887 164.075C57.4319 164.075 57.4354 161.192 59.2887 161.192ZM152.726 157.149L152.785 157.15C153.092 157.152 153.38 157.229 153.646 157.385L153.993 157.651C154.204 157.865 154.35 158.116 154.432 158.405C154.452 158.557 154.472 158.709 154.493 158.859C154.502 159.095 154.452 159.315 154.345 159.519C154.277 159.73 154.159 159.913 153.993 160.069C153.837 160.235 153.655 160.353 153.442 160.421C153.239 160.528 153.019 160.579 152.785 160.57C152.476 160.568 152.188 160.491 151.922 160.335C151.806 160.246 151.691 160.157 151.575 160.069C151.38 159.871 151.241 159.643 151.157 159.381L151.137 159.315L151.075 158.859C151.066 158.625 151.116 158.405 151.223 158.201C151.291 157.989 151.409 157.806 151.575 157.651C151.73 157.484 151.915 157.367 152.125 157.299C152.312 157.2 152.512 157.15 152.726 157.149ZM144.355 151.753C144.522 151.747 144.675 151.781 144.82 151.856C144.968 151.904 145.097 151.988 145.206 152.105C145.437 152.289 145.578 152.657 145.578 152.955C145.578 153.254 145.437 153.622 145.206 153.806C145.056 153.954 144.879 154.058 144.675 154.115L144.355 154.158C144.045 154.173 143.728 154.01 143.507 153.806C143.462 153.765 143.419 153.724 143.374 153.685C143.173 153.499 143.085 153.222 143.072 152.955C143.067 152.814 143.098 152.682 143.162 152.559C143.203 152.43 143.274 152.321 143.374 152.226C143.419 152.187 143.462 152.146 143.507 152.105C143.748 151.881 144.03 151.769 144.355 151.753ZM197.389 142.138C198.564 140.708 197.88 139.69 196.115 140.044C193.076 140.455 190.215 142.376 187.538 143.754C184.616 145.298 181.605 146.571 178.624 148.021C179.854 148.776 180.769 149.958 181.467 151.308C182.862 150.248 184.645 149.742 186.385 149.676C189.543 146.651 194.771 145.959 197.389 142.138ZM58.6633 146.888C58.9817 146.889 59.28 146.964 59.5596 147.113L59.6192 147.147L60.0016 147.443C60.1874 147.615 60.3179 147.818 60.3947 148.053C60.5127 148.278 60.5663 148.523 60.5573 148.784C60.5663 149.045 60.5127 149.288 60.3947 149.513C60.3179 149.749 60.1874 149.951 60.0016 150.123C59.8962 150.26 59.7603 150.367 59.5977 150.446C59.4457 150.509 59.2957 150.573 59.1438 150.637C58.9741 150.691 58.7775 150.698 58.5935 150.707C58.2593 150.705 57.9485 150.621 57.6587 150.453L57.2836 150.164C57.1031 149.996 56.9743 149.797 56.8992 149.567C56.7929 149.364 56.739 149.147 56.739 148.915L56.7404 148.852C56.7404 148.838 56.7404 148.821 56.7423 148.805C56.7636 148.637 56.787 148.469 56.8099 148.301C56.869 148.055 56.9816 147.838 57.1496 147.656C57.1925 147.57 57.2497 147.5 57.3231 147.443C57.5588 147.207 57.8374 147.047 58.1592 146.955C58.3272 146.934 58.4952 146.91 58.6633 146.888ZM141.578 142.152L141.632 142.153C141.873 142.153 142.097 142.214 142.304 142.333C142.395 142.403 142.485 142.473 142.574 142.542C142.74 142.709 142.855 142.905 142.917 143.13L142.965 143.484C142.971 143.668 142.933 143.838 142.849 143.997C142.796 144.162 142.704 144.305 142.574 144.426C142.454 144.557 142.311 144.648 142.145 144.702C141.988 144.786 141.816 144.823 141.632 144.816C141.393 144.816 141.168 144.755 140.96 144.634C140.871 144.566 140.78 144.496 140.69 144.426C140.54 144.274 140.431 144.096 140.366 143.894L140.349 143.838L140.301 143.484C140.294 143.3 140.331 143.13 140.415 142.971C140.469 142.805 140.562 142.662 140.69 142.542C140.812 142.412 140.955 142.321 141.12 142.267C141.262 142.192 141.416 142.154 141.578 142.152ZM69.1082 140.216L69.1705 140.217C69.5261 140.219 69.8567 140.308 70.1641 140.487C70.2963 140.589 70.4287 140.691 70.5608 140.794C70.8056 141.039 70.9736 141.329 71.0685 141.663L71.138 142.185C71.1487 142.457 71.0915 142.709 70.9682 142.943C70.8898 143.188 70.7538 143.398 70.5608 143.577C70.3841 143.769 70.173 143.904 69.9282 143.983C69.6941 144.106 69.4421 144.164 69.1705 144.153C68.8149 144.153 68.4843 144.063 68.177 143.885C68.0449 143.783 67.9127 143.679 67.7786 143.577C67.5354 143.331 67.3675 143.041 67.2728 142.709L67.2031 142.185C67.1923 141.915 67.2495 141.661 67.3728 141.427C67.4515 141.184 67.5873 140.971 67.7786 140.794C67.9573 140.601 68.168 140.465 68.4128 140.387C68.6289 140.273 68.8602 140.217 69.1082 140.216ZM135.276 135.302C135.439 135.259 135.601 135.259 135.764 135.302C136.007 135.312 136.234 135.386 136.445 135.52L136.815 135.806C136.82 135.811 136.825 135.817 136.831 135.824C137.054 136.049 137.209 136.315 137.295 136.621L137.36 137.102C137.369 137.35 137.317 137.582 137.204 137.797C137.137 138.003 137.026 138.183 136.873 138.338L136.815 138.396C136.648 138.574 136.454 138.701 136.227 138.775C136.084 138.859 135.928 138.9 135.764 138.9C135.521 138.955 135.276 138.945 135.033 138.868C134.888 138.805 134.742 138.744 134.595 138.684L134.549 138.657C133.996 138.355 133.655 137.722 133.655 137.102C133.655 136.481 133.996 135.847 134.549 135.545C134.565 135.538 134.579 135.529 134.595 135.52C134.806 135.386 135.033 135.312 135.276 135.302Z" fill="black"/>
<path fill-rule="evenodd" clip-rule="evenodd" d="M133.562 41.292C124.007 38.4871 91.1474 41.3622 90.3349 41.9697C89.0052 43.0748 82.5373 46.5813 81.5309 47.3819C72.4307 57.0289 81.106 71.3549 80.4384 82.9927C80.481 87.1207 78.7222 90.8899 77.9138 94.8612C77.5725 96.9424 77.6477 99.0951 78.7322 100.964C80.6389 104.302 84.6655 104.979 87.9403 106.325C89.5699 107.027 91.0924 108.022 92.488 109.111C101.885 117.425 107.115 123.118 120.826 121.243C120.896 121.897 121.476 122.541 122.195 122.248C123.878 121.563 125.549 120.835 127.247 120.185C127.61 121.06 128.653 121.31 129.359 120.537L129.363 120.543C132.506 117.993 134.505 114.506 135.99 110.773C137.029 108.619 137.88 106.372 138.53 104.058C138.603 103.796 138.593 103.563 138.527 103.361C141.527 93.0225 142.637 82.1262 141.847 71.3919C141.687 69.1772 141.269 66.9332 141.372 64.7092C141.465 62.6999 142.33 60.7992 142.99 58.9279C146.392 50.9726 141.191 43.7967 133.562 41.292Z" fill="white"/>
<path fill-rule="evenodd" clip-rule="evenodd" d="M134.763 28.3752L134.865 28.2962C135.967 27.4318 137.006 26.2989 138.559 26.7237C139.833 27.0723 140.476 28.1268 140.75 29.4012C141.138 28.9954 141.515 28.5754 141.883 28.1411C142.883 26.9614 145.119 27.5727 145.417 29.0759C146.021 32.1036 146.052 35.185 145.464 38.2181C145.375 38.6775 145.269 39.135 145.146 39.5872C145.816 38.7526 146.44 37.8821 146.999 36.9652C147.605 35.9697 148.973 36.463 149.068 37.5264C149.093 37.8017 149.107 38.0805 149.111 38.3611C149.538 38.5113 149.833 38.9509 149.72 39.4907C149.099 42.4613 148.31 45.3908 147.363 48.2702C148.886 47.4623 150.592 46.9833 152.199 47.5534C154.751 48.4614 155.358 51.2461 154.86 53.6429C154.233 56.6564 152.26 59.1783 149.715 60.8316C149.413 61.2856 149.115 61.7432 148.831 62.2097C148.825 63.5269 148.586 64.8406 148.103 66.0614C147.56 67.4323 146.602 68.6173 145.423 69.5181C145.008 70.421 143.91 71.0804 142.947 70.8976L142.896 70.8872L142.894 70.889C143.141 71.772 143.353 72.6639 143.537 73.5575C144.963 80.4813 144.241 87.6886 142.941 94.5734L142.9 94.793C141.733 100.92 140.375 107.265 137.735 112.954C135.348 118.098 131.3 122.622 125.516 123.744C118.711 125.065 111.179 122.972 105.327 119.482C103.206 118.216 105.15 114.881 107.262 116.168C110.311 118.023 113.622 119.319 117.124 120.002C120.398 120.638 124.06 120.854 127.199 119.535C131.572 117.698 134.17 113.21 135.814 108.984C136.783 106.491 137.508 103.917 138.184 101.333C139.054 98.0102 139.865 94.6661 140.475 91.2844C141.609 84.9769 141.977 78.4263 140.777 72.1008C140.394 70.0829 139.853 68.0525 139.147 66.1007C139.036 65.9631 138.931 65.8094 138.836 65.6414C138.098 64.3473 137.589 62.8764 137.04 61.4769C136.559 60.6422 136.034 59.8397 135.476 59.055C134.643 58.4142 133.849 57.7292 133.122 56.9817C135.234 55.6137 137.098 53.901 138.439 51.7194C138.66 51.3596 138.52 51.0157 138.258 50.8218C137.187 52.1618 135.8 53.2965 134.342 54.3019C133.595 54.9418 132.791 55.5166 131.948 56.036C131.345 56.1552 130.736 56.2371 130.146 56.3043C128.464 56.4955 126.774 56.424 125.101 56.2006C121.484 55.718 106.188 51.5045 99.7406 53.1425C98.3975 53.4837 97.7642 54.6885 97.053 55.8199C96.4361 56.804 95.6514 57.6186 94.7101 58.2894L94.6048 58.3633C92.7643 59.6377 89.0636 63.6692 87.5081 67.2675C85.4995 71.9132 83.5703 85.8348 84.4584 85.9546C86.7815 86.2691 88.0681 87.4917 89.9605 88.8036C90.0856 88.8894 90.0123 89.1217 89.8515 89.0627C88.6024 88.6123 87.2515 88.346 85.9416 88.128C84.7568 87.9296 83.5095 87.8938 82.3659 88.3174C80.6111 88.968 79.7551 90.439 79.4031 92.0977C79.2655 92.7465 79.2047 93.4239 79.1976 94.0941L79.1966 94.2885C79.1975 96.4017 79.5915 98.7445 81.1257 100.303C81.778 100.966 82.6625 101.413 83.5882 101.537C84.6014 101.672 85.2268 101.215 86.1578 100.977C87.23 100.704 88.0663 101.41 87.9662 102.33C88.1932 102.529 88.413 102.738 88.631 102.95L88.6312 102.951L88.6328 102.952C88.7757 103.017 88.9116 103.102 89.0349 103.206C89.2368 103.378 89.4065 103.565 89.5424 103.767C89.8444 103.826 90.1338 103.994 90.3715 104.302C90.8611 104.933 91.3132 105.571 91.7332 106.221C92.4855 107.02 93.2342 107.821 93.9723 108.634C94.8606 109.612 95.7254 110.611 96.5958 111.605L97.0316 112.102C97.5015 112.636 97.9697 113.17 98.4379 113.707L98.5776 113.864C99.0486 114.392 99.4095 114.781 99.46 115.54C99.4958 116.103 98.89 116.486 98.3879 116.357C97.6136 116.158 97.2543 115.55 96.7904 114.947L96.0898 114.048L95.4304 113.201C95.1034 112.779 94.7728 112.359 94.444 111.939C94.3457 112.713 93.5273 113.337 92.7803 113.371L92.6062 113.377C90.8522 113.436 88.7205 113.188 87.3855 111.951C86.7851 112.557 86.0381 113.035 85.1178 113.321C83.0271 113.971 80.8898 112.818 80.0446 111.065C78.4059 111.767 76.5546 111.909 74.7838 111.392C73.7623 111.093 73.4091 109.819 74.1209 109.04L74.153 109.006L74.1612 108.997C74.0143 108.806 73.9335 108.572 73.9205 108.317C73.9046 108.008 74.1299 107.68 74.0834 107.391C73.9062 106.291 72.1113 107.106 71.5409 107.345C71.4319 107.39 71.3297 107.412 71.2343 107.415C70.3524 107.672 69.3934 106.513 69.8553 105.556C70.8899 103.419 71.8996 101.265 72.9467 99.1309C72.8145 99.1755 72.6787 99.2167 72.5447 99.2506C70.663 99.7332 68.381 98.8074 68.8153 96.5392C68.9153 96.0066 69.3978 95.642 69.8767 95.4775C70.8095 95.1558 71.51 95.3882 72.2284 95.0879C73.0379 94.7519 73.8831 94.1352 74.5943 93.5543C75.3538 92.9359 76.0096 92.2407 76.5904 91.4864C76.8227 90.3907 77.2248 89.3434 77.8681 88.4425C77.9074 88.3889 77.9467 88.3353 77.9878 88.2835C73.8622 87.2996 74.4025 83.2414 72.5827 79.645L72.4289 79.3469C71.193 76.9412 70.1147 74.229 70.7381 71.4896C70.8488 71.0052 71.0097 70.5423 71.217 70.1097C70.8864 70.1508 70.554 70.1884 70.2234 70.2259C69.4639 70.3117 68.692 69.3322 68.994 68.6119C69.153 68.2348 69.3281 67.8702 69.5175 67.5163C70.0429 66.5404 70.688 65.6539 71.4475 64.8532C70.1716 64.8192 68.8939 64.8192 67.6323 64.6726C66.4404 64.535 65.1877 63.8826 65.2244 62.5082C65.2613 61.1977 66.4109 60.2057 67.4768 59.5664C68.526 58.1706 69.8567 57.0106 71.3619 56.1486C71.0641 56.0817 70.7624 56.032 70.4558 56.0016L70.302 55.9879C69.4425 55.92 68.6705 55.6841 67.8914 55.3248C67.1945 55.0031 67.2052 54.0272 67.6609 53.5357C69.1341 51.9428 71.3413 52.4615 73.0588 53.3743C72.9392 53.2225 72.8082 53.0763 72.6655 52.9364L72.5785 52.8533C71.7346 52.0674 73.0011 50.8062 73.842 51.5894C74.1077 51.837 74.3458 52.106 74.5581 52.3911L74.5783 52.3489C75.6893 50.0947 77.3144 48.0771 79.2371 46.4604L79.6889 46.0846C83.156 43.1879 84.2258 41.815 88.8365 42.2415C88.6399 41.4037 88.6592 40.4614 88.7035 39.6865L88.7096 39.5819C88.8865 36.6685 89.9605 33.1814 92.8018 31.8731C93.5398 31.5353 94.3761 32.0875 94.1795 32.933C94.042 33.5317 93.874 34.1144 93.6649 34.681C94.285 34.0286 94.9497 33.4191 95.6538 32.8579C98.5237 30.5701 102.359 28.6022 106.131 29.2457C108.204 29.6013 109.83 30.9025 111.565 31.9892C113.309 33.0831 115.257 33.7319 117.299 33.966C120.153 34.2949 123.018 33.9643 125.839 33.4424C127.778 32.5969 129.66 31.6067 131.497 30.5397C132.626 29.8837 133.725 29.167 134.763 28.3752ZM84.0958 91.6526C84.6997 91.4971 85.377 91.4989 85.9828 91.6508C87.5464 92.044 89.001 93.3523 89.0921 95.0021C89.1332 95.7474 88.5328 96.4605 87.8359 96.6518C87.046 96.8699 86.367 96.4838 85.906 95.8654C85.411 95.204 85.2877 94.4873 84.6819 93.8868L84.5422 93.7507C84.0273 93.2582 83.2486 92.6215 82.5339 92.7357C82.4285 92.7518 82.3499 92.6088 82.4571 92.5516C83.0397 92.2335 83.4221 91.8242 84.0958 91.6526ZM92.2175 83.883C92.4932 83.6578 92.8577 83.922 92.7279 84.2458L92.7178 84.2691C92.3908 84.959 92.775 85.7687 93.1717 86.346C93.513 86.8446 92.8679 87.3183 92.414 87.1038C91.1381 86.4979 91.2043 84.7052 92.2175 83.883ZM96.8815 63.1551C96.8582 62.9871 97.0816 62.9174 97.1388 63.0836C98.0912 65.8486 98.3646 68.2973 98.2092 71.2214L98.1945 71.4809C98.0263 74.2974 97.5331 77.2784 95.8289 79.5915C95.434 80.1259 94.6263 79.8114 94.7568 79.1393C95.2803 76.4494 96.2864 73.8953 96.6777 71.1731C97.087 68.3277 97.271 66.0023 96.8815 63.1551ZM87.986 73.2054C88.1253 72.4672 89.2601 71.7076 89.8337 72.4494C90.0267 72.7014 89.7997 73.0106 89.5674 73.1035C89.3494 73.1893 89.1546 73.0714 88.9402 73.1143C88.7667 73.1493 88.64 73.2575 88.5556 73.4055L88.5381 73.4378C88.3702 73.7595 87.927 73.52 87.986 73.2054ZM87.5214 67.325C87.9288 66.5708 88.867 66.09 89.6693 66.56C89.9338 66.7155 89.8301 67.1677 89.5085 67.1534L89.3179 67.1457C88.7459 67.1249 88.1738 67.1365 87.6929 67.4984C87.5857 67.5788 87.4678 67.4269 87.5214 67.325ZM88.9539 46.7263C86.6685 45.6985 84.3957 46.6263 82.5296 48.0734C82.3752 48.1931 82.3003 48.3329 82.2839 48.4734C83.5297 47.9881 84.8562 47.67 86.1242 47.4074C87.161 47.1926 88.2077 47.0476 89.2555 46.9904C89.1969 46.8852 89.1006 46.7922 88.9539 46.7263Z" fill="black"/>
<path fill-rule="evenodd" clip-rule="evenodd" d="M121.083 108.479C119.882 107.989 118.81 107.171 118.026 106.127C117.754 105.763 117.683 105.38 117.74 105.029C117.804 104.635 118.038 104.278 118.356 104.038C118.675 103.797 119.074 103.679 119.46 103.739C119.795 103.792 120.129 103.975 120.393 104.356L120.448 104.432C120.914 105.063 121.521 105.58 122.213 105.913C122.88 106.235 123.625 106.385 124.397 106.297C125.866 106.131 126.879 105.337 127.956 104.257C128.089 104.121 128.223 103.98 128.357 103.837C128.442 103.708 128.559 103.625 128.69 103.581C128.835 103.533 128.999 103.535 129.149 103.588C129.294 103.638 129.423 103.734 129.51 103.862C129.593 103.983 129.64 104.133 129.624 104.305C129.526 105.424 128.941 106.422 128.111 107.206C127.188 108.077 125.965 108.679 124.814 108.89C123.545 109.123 122.253 108.956 121.083 108.479ZM125.412 91.2202C126.762 92.0406 128.818 93.9536 127.366 95.9875C125.657 97.7808 123.197 95.7246 121.985 94.7947C120.861 94.074 119.598 95.9276 120.641 96.7691C129.401 103.256 132.956 91.4347 126.095 90.2556C125.339 90.1257 125.059 90.9664 125.412 91.2202ZM109.713 83.6739C109.863 81.8229 112.681 81.4025 112.962 83.2342C113.213 84.875 112.917 86.3823 112.178 87.8595C111.472 89.2708 109.698 88.6123 109.563 87.3272C109.383 85.6046 109.621 84.8253 109.713 83.6739ZM131.169 82.8544C131.562 82.3397 132.129 81.9883 132.809 82.1868C134.932 82.8076 134.306 85.8234 133.561 87.2913C133.155 88.0885 131.845 88.2906 131.253 87.5887C130.288 86.4441 129.826 84.1583 131.053 83.0308C131.086 82.9726 131.123 82.9137 131.169 82.8544ZM112.148 75.5744L112.484 75.5157C113.521 75.3361 114.812 75.1636 115.546 75.9982C115.935 76.4407 116.069 77.2633 115.546 77.6869C114.625 78.4322 113.608 78.1433 112.504 78.2064C111.595 78.2586 110.721 78.4091 109.845 78.6595C107.924 79.2088 106.359 80.2115 104.718 81.3125C104.502 81.4569 104.282 81.1815 104.385 80.98C105.332 79.1242 107.168 77.5998 109.007 76.6706C109.988 76.1746 111.062 75.7631 112.148 75.5744ZM129.232 74.7431L129.489 74.7956C132.284 75.3798 135.914 76.5469 137.237 79.2921C137.288 79.6803 137.234 79.7635 137.191 79.8179L137.177 79.836C137.141 79.8824 137.113 79.9464 136.944 79.9992C136.898 79.9881 136.85 79.9763 136.803 79.9638C136.196 79.8048 135.716 79.5858 135.252 79.3585L134.748 79.1103C134.164 78.8237 133.574 78.5475 132.949 78.3436C131.616 77.9085 130.244 77.6021 128.851 77.4385C128.549 77.403 128.259 77.3011 128.029 77.1265C127.812 76.9607 127.645 76.7312 127.57 76.4261C127.471 76.0312 127.5 75.7323 127.711 75.3761C127.871 75.1086 128.099 74.9232 128.36 74.8167C128.627 74.7082 128.931 74.6826 129.232 74.7431Z" fill="black"/>
<rect x="200" y="92" width="109" height="32" rx="5" fill="white"/>
<path d="M227.696 115V102.15H229.797V113.198H235.237V115H227.696ZM248.86 108.558C248.86 110.649 248.336 112.275 247.287 113.436C246.244 114.596 244.765 115.176 242.849 115.176C240.909 115.176 239.418 114.602 238.375 113.453C237.338 112.299 236.819 110.661 236.819 108.54C236.819 106.419 237.341 104.79 238.384 103.653C239.433 102.517 240.927 101.948 242.866 101.948C244.776 101.948 246.253 102.525 247.296 103.68C248.339 104.834 248.86 106.46 248.86 108.558ZM239.052 108.558C239.052 110.14 239.371 111.341 240.01 112.161C240.648 112.976 241.595 113.383 242.849 113.383C244.097 113.383 245.037 112.979 245.67 112.17C246.309 111.361 246.628 110.157 246.628 108.558C246.628 106.981 246.312 105.786 245.679 104.972C245.052 104.157 244.114 103.75 242.866 103.75C241.606 103.75 240.654 104.157 240.01 104.972C239.371 105.786 239.052 106.981 239.052 108.558ZM256.876 108.03H261.604V114.481C260.831 114.733 260.087 114.912 259.372 115.018C258.663 115.123 257.896 115.176 257.069 115.176C255.124 115.176 253.624 114.602 252.569 113.453C251.515 112.299 250.987 110.673 250.987 108.575C250.987 106.507 251.582 104.89 252.771 103.724C253.961 102.552 255.599 101.966 257.685 101.966C259.026 101.966 260.298 102.224 261.499 102.739L260.761 104.488C259.718 104.008 258.675 103.768 257.632 103.768C256.261 103.768 255.177 104.198 254.38 105.06C253.583 105.921 253.185 107.099 253.185 108.593C253.185 110.163 253.542 111.358 254.257 112.179C254.978 112.993 256.012 113.4 257.359 113.4C258.039 113.4 258.766 113.315 259.539 113.146V109.832H256.876V108.03ZM264.698 115V102.15H266.799V115H264.698ZM280.905 115H278.33L272.011 104.761H271.94L271.984 105.332C272.066 106.422 272.107 107.418 272.107 108.32V115H270.2V102.15H272.749L279.051 112.337H279.104C279.092 112.202 279.068 111.713 279.033 110.869C278.998 110.02 278.98 109.357 278.98 108.883V102.15H280.905V115Z" fill="#323859"/>
</svg>
