<svg xmlns="http://www.w3.org/2000/svg" viewBox="0 0 494.03 579.36"><defs><style>.cls-1{fill:#fff;}.cls-2{fill:#296d7a;}</style></defs><g id="Layer_2" data-name="Layer 2"><g id="Layer_1-2" data-name="Layer 1"><polygon class="cls-1" points="424.56 98.61 245.66 0 0 137.13 189.51 226.99 424.56 98.61"/><polygon class="cls-2" points="380.01 471.75 379.44 472.07 379.44 472.07 380.01 471.75"/><polygon class="cls-1" points="420.54 491.9 494.03 448.95 493.44 422.46 420.54 462.64 420.54 491.9"/><polygon class="cls-1" points="417.09 464.54 391.72 478.53 417.09 491.94 417.09 464.54"/><polygon class="cls-1" points="248.85 579.33 328.53 531.63 327.75 513.79 248.85 558.49 248.85 579.33"/><polygon class="cls-1" points="245.41 558.22 162.07 511.51 162.07 534.63 245.41 579.36 245.41 558.22"/><polygon class="cls-1" points="63.94 458.16 0.81 423.32 0.89 447.63 63.94 480.46 63.94 458.16"/><polygon class="cls-1" points="67.38 460.06 67.38 480.34 85.13 469.86 67.38 460.06"/><polygon class="cls-1" points="222.31 485.53 222.26 532.18 235.86 539.68 236.03 499.12 236.98 262.57 237.5 262.58 480.98 129.72 465.38 121.11 223.24 253.14 222.31 485.53"/><polygon class="cls-1" points="184.78 474.11 184.78 474.11 185.73 238.09 0.04 151.7 0.75 410.06 184.63 511.44 184.78 474.11"/><polygon class="cls-1" points="247.47 498.32 247.43 545.75 492.81 408.78 492.06 135.82 248.38 269.83 247.47 498.32"/><polygon class="cls-1" points="196.25 467.47 196.2 517.81 210.7 525.81 210.87 483.92 210.87 483.92 211.84 245.51 212.39 245.51 212.18 245.19 452.51 114.02 436.67 105.29 197.16 236.03 196.25 467.47 196.25 467.47"/></g></g></svg>