<svg width="72" height="65" viewBox="0 0 72 65" fill="none" xmlns="http://www.w3.org/2000/svg">
<path d="M21.1886 0C9.74733 0 0 9.20861 0 21.1683C0 29.4188 3.58908 36.3649 8.34579 42.1189C13.0862 47.8531 19.202 52.6662 24.7309 56.6947L34.2703 63.6453C35.315 64.4065 36.685 64.4065 37.7297 63.6453L47.2691 56.6947C52.798 52.6662 58.9138 47.8531 63.6542 42.1189C68.4109 36.3649 72 29.4188 72 21.1683C72 9.20861 62.2527 0 50.8114 0C44.9137 0 39.7241 2.9767 36 6.82832C32.2759 2.9767 27.0863 0 21.1886 0Z" fill="#F6BB41"/>
</svg>
