<svg width="81" height="102" viewBox="0 0 81 102" fill="none" xmlns="http://www.w3.org/2000/svg">
<path fill-rule="evenodd" clip-rule="evenodd" d="M40.5 102C62.8675 102 81 83.8675 81 61.5C81 56.0798 79.9353 50.9084 78.0035 46.1833C75.1138 51.4706 69.5013 55.0568 63.0511 55.0568C53.6466 55.0568 46.0227 47.4329 46.0227 38.0284C46.0227 31.8213 49.3438 26.3898 54.306 23.4141C49.9973 21.8519 45.3482 21 40.5 21C18.1325 21 0 39.1325 0 61.5C0 83.8675 18.1325 102 40.5 102Z" fill="#6075E6"/>
<path d="M5 20.5568C16.3333 5.89016 51 -7.87892 76.5 20.5568" stroke="#F6BB42" stroke-width="7" stroke-linecap="round"/>
</svg>
