<svg xmlns="http://www.w3.org/2000/svg" version="1.0" viewBox="50.3 172.56 275.6 28.79"><g fill="#FAFAFA"><g><g><path d="M 9.21875 0 C 9.699219 0 9.945312 -0.25 9.945312 -0.726562 L 9.945312 -26.503906 C 9.945312 -26.984375 9.699219 -27.230469 9.21875 -27.230469 L 3.421875 -27.230469 C 2.941406 -27.230469 2.695312 -26.984375 2.695312 -26.503906 L 2.695312 -0.726562 C 2.695312 -0.25 2.941406 0 3.421875 0 Z M 9.21875 0" transform="translate(47.606 200.625)"/></g></g></g><g fill="#FAFAFA"><g><g><path d="M 9.007812 0 C 9.484375 0 9.734375 -0.25 9.734375 -0.726562 L 9.734375 -13.722656 L 24.800781 0 C 25.9375 1.046875 26.753906 0.585938 26.753906 -0.65625 L 26.753906 -26.503906 C 26.753906 -26.984375 26.503906 -27.230469 26.023438 -27.230469 L 20.476562 -27.230469 C 19.996094 -27.230469 19.75 -26.984375 19.75 -26.503906 L 19.75 -13.96875 L 4.503906 -27.40625 C 3.492188 -28.292969 2.730469 -27.851562 2.730469 -26.609375 L 2.730469 -0.726562 C 2.730469 -0.25 2.976562 0 3.457031 0 Z M 9.007812 0" transform="translate(65.51 200.625)"/></g></g></g><g fill="#FAFAFA"><g><g><path d="M 11.117188 0.726562 C 16.273438 0.726562 21.789062 -1.277344 21.789062 -7.625 C 21.789062 -12.675781 18.261719 -14.855469 15.035156 -16.34375 C 11.808594 -17.835938 9.253906 -18.632812 9.253906 -20.261719 C 9.253906 -21.488281 10.460938 -21.894531 12.125 -21.894531 C 13.757812 -21.894531 15.832031 -21.488281 17.605469 -20.882812 C 18.046875 -20.722656 18.367188 -20.917969 18.507812 -21.34375 L 19.820312 -25.8125 C 19.960938 -26.292969 19.820312 -26.574219 19.359375 -26.714844 C 16.878906 -27.480469 13.96875 -27.957031 11.878906 -27.957031 C 6.789062 -27.957031 1.878906 -25.707031 1.878906 -19.75 C 1.878906 -15.496094 4.609375 -13.367188 7.765625 -11.734375 C 10.957031 -10.085938 14.378906 -9.113281 14.378906 -7.304688 C 14.378906 -5.921875 13.03125 -5.40625 11.152344 -5.40625 C 9.183594 -5.40625 6.578125 -5.957031 4.253906 -6.71875 C 3.8125 -6.859375 3.492188 -6.753906 3.332031 -6.277344 L 1.773438 -1.523438 C 1.632812 -1.046875 1.808594 -0.761719 2.285156 -0.621094 C 5.585938 0.320312 8.421875 0.726562 11.117188 0.726562 Z M 11.117188 0.726562" transform="translate(100.255 200.625)"/></g></g></g><g fill="#FAFAFA"><g><g><path d="M 13.507812 0 C 13.96875 0 14.234375 -0.25 14.234375 -0.726562 L 14.234375 -21.0625 L 19.714844 -21.0625 C 20.191406 -21.0625 20.441406 -21.308594 20.441406 -21.789062 L 20.441406 -26.503906 C 20.441406 -26.984375 20.191406 -27.230469 19.714844 -27.230469 L 1.453125 -27.230469 C 0.976562 -27.230469 0.726562 -26.984375 0.726562 -26.503906 L 0.726562 -21.789062 C 0.726562 -21.308594 0.976562 -21.0625 1.453125 -21.0625 L 6.933594 -21.0625 L 6.933594 -0.726562 C 6.933594 -0.25 7.199219 0 7.660156 0 Z M 13.507812 0" transform="translate(128.796 200.625)"/></g></g></g><g fill="#FAFAFA"><g><g><path d="M 15 -27.230469 C 14.449219 -28.347656 13.578125 -28.347656 13.03125 -27.230469 L 0.550781 -0.867188 C 0.320312 -0.355469 0.550781 0 1.082031 0 L 7.480469 0 C 7.871094 0 8.171875 -0.210938 8.316406 -0.585938 L 9.199219 -2.871094 L 18.828125 -2.871094 L 19.714844 -0.585938 C 19.855469 -0.210938 20.15625 0 20.546875 0 L 26.945312 0 C 27.480469 0 27.710938 -0.355469 27.480469 -0.867188 Z M 14.023438 -15.15625 L 16.699219 -8.316406 L 11.328125 -8.316406 Z M 14.023438 -15.15625" transform="translate(155.262 200.625)"/></g></g></g><g fill="#FAFAFA"><g><g><path d="M 9.21875 0 C 9.699219 0 9.945312 -0.25 9.945312 -0.726562 L 9.945312 -9.359375 L 18.703125 -9.359375 C 19.164062 -9.359375 19.429688 -9.625 19.429688 -10.085938 L 19.429688 -14.449219 C 19.429688 -14.925781 19.164062 -15.175781 18.703125 -15.175781 L 9.945312 -15.175781 L 9.945312 -21.0625 L 20.371094 -21.0625 C 20.847656 -21.0625 21.097656 -21.308594 21.097656 -21.789062 L 21.097656 -26.503906 C 21.097656 -26.984375 20.847656 -27.230469 20.371094 -27.230469 L 3.421875 -27.230469 C 2.941406 -27.230469 2.695312 -26.984375 2.695312 -26.503906 L 2.695312 -0.726562 C 2.695312 -0.25 2.941406 0 3.421875 0 Z M 9.21875 0" transform="translate(188.588 200.625)"/></g></g></g><g fill="#FAFAFA"><g><g><path d="M 16.34375 0.726562 C 25.226562 0.726562 31.148438 -4.859375 31.148438 -13.617188 C 31.148438 -22.375 25.226562 -27.957031 16.34375 -27.957031 C 7.480469 -27.957031 1.59375 -22.375 1.59375 -13.617188 C 1.59375 -4.859375 7.480469 0.726562 16.34375 0.726562 Z M 16.34375 -5.816406 C 11.84375 -5.816406 8.863281 -8.792969 8.863281 -13.617188 C 8.863281 -18.4375 11.84375 -21.414062 16.34375 -21.414062 C 20.882812 -21.414062 23.898438 -18.4375 23.898438 -13.617188 C 23.898438 -8.792969 20.882812 -5.816406 16.34375 -5.816406 Z M 16.34375 -5.816406" transform="translate(216.26 200.625)"/></g></g></g><g fill="#FAFAFA"><g><g><path d="M 18.152344 0 C 18.632812 0 18.878906 -0.25 18.878906 -0.726562 L 18.878906 -5.441406 C 18.878906 -5.921875 18.632812 -6.167969 18.152344 -6.167969 L 9.945312 -6.167969 L 9.945312 -26.503906 C 9.945312 -26.984375 9.699219 -27.230469 9.21875 -27.230469 L 3.421875 -27.230469 C 2.941406 -27.230469 2.695312 -26.984375 2.695312 -26.503906 L 2.695312 -0.726562 C 2.695312 -0.25 2.941406 0 3.421875 0 Z M 18.152344 0" transform="translate(254.302 200.625)"/></g></g></g><g fill="#FAFAFA"><g><g><path d="M 18.152344 0 C 18.632812 0 18.878906 -0.25 18.878906 -0.726562 L 18.878906 -5.441406 C 18.878906 -5.921875 18.632812 -6.167969 18.152344 -6.167969 L 9.945312 -6.167969 L 9.945312 -26.503906 C 9.945312 -26.984375 9.699219 -27.230469 9.21875 -27.230469 L 3.421875 -27.230469 C 2.941406 -27.230469 2.695312 -26.984375 2.695312 -26.503906 L 2.695312 -0.726562 C 2.695312 -0.25 2.941406 0 3.421875 0 Z M 18.152344 0" transform="translate(279.208 200.625)"/></g></g></g><g fill="#FAFAFA"><g><g><path d="M 11.117188 0.726562 C 16.273438 0.726562 21.789062 -1.277344 21.789062 -7.625 C 21.789062 -12.675781 18.261719 -14.855469 15.035156 -16.34375 C 11.808594 -17.835938 9.253906 -18.632812 9.253906 -20.261719 C 9.253906 -21.488281 10.460938 -21.894531 12.125 -21.894531 C 13.757812 -21.894531 15.832031 -21.488281 17.605469 -20.882812 C 18.046875 -20.722656 18.367188 -20.917969 18.507812 -21.34375 L 19.820312 -25.8125 C 19.960938 -26.292969 19.820312 -26.574219 19.359375 -26.714844 C 16.878906 -27.480469 13.96875 -27.957031 11.878906 -27.957031 C 6.789062 -27.957031 1.878906 -25.707031 1.878906 -19.75 C 1.878906 -15.496094 4.609375 -13.367188 7.765625 -11.734375 C 10.957031 -10.085938 14.378906 -9.113281 14.378906 -7.304688 C 14.378906 -5.921875 13.03125 -5.40625 11.152344 -5.40625 C 9.183594 -5.40625 6.578125 -5.957031 4.253906 -6.71875 C 3.8125 -6.859375 3.492188 -6.753906 3.332031 -6.277344 L 1.773438 -1.523438 C 1.632812 -1.046875 1.808594 -0.761719 2.285156 -0.621094 C 5.585938 0.320312 8.421875 0.726562 11.117188 0.726562 Z M 11.117188 0.726562" transform="translate(304.115 200.625)"/></g></g></g></svg>