<svg xmlns="http://www.w3.org/2000/svg" xmlns:xlink="http://www.w3.org/1999/xlink" viewBox="0 0 759.54 417.22">
  <defs>
    <style>
      .cls-1, .cls-10 {
        fill: none;
      }

      .cls-2 {
        clip-path: url(#clip-path);
      }

      .cls-3 {
        fill: url(#linear-gradient);
      }

      .cls-12, .cls-4 {
        fill: #fff;
      }

      .cls-5 {
        clip-path: url(#clip-path-4);
      }

      .cls-6 {
        fill: #343a40;
      }

      .cls-7 {
        fill: #1c1c1c;
      }

      .cls-8 {
        opacity: 0.2;
      }

      .cls-9 {
        clip-path: url(#clip-path-6);
      }

      .cls-10 {
        stroke: #fff;
        stroke-miterlimit: 10;
        stroke-width: 26px;
      }

      .cls-11 {
        clip-path: url(#clip-path-7);
      }

      .cls-12 {
        font-size: 19.69px;
        font-family: ProximaNova-Bold, Proxima Nova;
        font-weight: 700;
      }

      .cls-13 {
        letter-spacing: -0.01em;
      }

      .cls-14 {
        letter-spacing: -0.03em;
      }

      .cls-15 {
        font-size: 45.95px;
        fill: #f5c064;
        font-family: ProximaNova-Extrabld, Proxima Nova;
      }

      .cls-16 {
        letter-spacing: -0.03em;
      }
    </style>
    <clipPath id="clip-path" transform="translate(0 0)">
      <rect class="cls-1" x="66.75" y="122.18" width="612" height="170"/>
    </clipPath>
    <linearGradient id="linear-gradient" x1="66.75" y1="292.18" x2="67.75" y2="292.18" gradientTransform="matrix(619.2, 0, 0, -619.2, -41267.8, 181126.29)" gradientUnits="userSpaceOnUse">
      <stop offset="0" stop-color="#cd56ec"/>
      <stop offset="1" stop-color="#7c3de4"/>
    </linearGradient>
    <clipPath id="clip-path-4" transform="translate(0 0)">
      <path class="cls-1" d="M155.76,207.12a59.77,59.77,0,1,0,59.77-59.77,59.77,59.77,0,0,0-59.77,59.77"/>
    </clipPath>
    <clipPath id="clip-path-6" transform="translate(0 0)">
      <rect class="cls-1" x="546.75" width="212.79" height="212.79"/>
    </clipPath>
    <clipPath id="clip-path-7" transform="translate(0 0)">
      <rect class="cls-1" y="204.43" width="212.79" height="212.79"/>
    </clipPath>
  </defs>
  <title>Asset 1</title>
  <g id="Layer_2" data-name="Layer 2">
    <g id="Layer_1-2" data-name="Layer 1">
      <g class="cls-2">
        <g class="cls-2">
          <rect class="cls-3" x="66.75" y="122.18" width="612" height="170"/>
        </g>
        <g class="cls-2">
          <path class="cls-4" d="M275.3,207.12a59.77,59.77,0,1,1-59.77-59.77,59.77,59.77,0,0,1,59.77,59.77" transform="translate(0 0)"/>
        </g>
        <g class="cls-5">
          <path class="cls-6" d="M214.67,174.19c2.44,2,4.62,5.06,3.88,8.15a6.08,6.08,0,0,1-5.92,4.31,8.39,8.39,0,0,1-6.6-3.77c-.93,3.44,2.52,6.7,6,7.37A11.6,11.6,0,0,0,225.18,175c-1.19-3.37-4-6.43-3.51-10,.41-3.23,3.35-5.46,6-7.3-1.05.71-9.72-2.7-11.55-2.86-2.64-.23-5-.11-6.95,1.89-6.56,6.79.36,13.17,5.46,17.42" transform="translate(0 0)"/>
          <path class="cls-6" d="M207.05,164.57c3.48-2.65,7.55-5.49,11.85-4.64,4.57.91,6.73,5.2,11.32,5.93a12,12,0,0,0,11.47-4.56c3.88,8.89,14.8,14,24.12,11.32.49-.14,1-.35,1.21-.83a1.71,1.71,0,0,0-.13-1.13,67.64,67.64,0,0,0-5.75-13.09c-9.52-15.3-35.82-16.58-51.95-15.82-15.65.74-59.2,10.42-60.73,31.08-2.26,30.56,50.4-2,58.59-8.26" transform="translate(0 0)"/>
        </g>
        <g class="cls-2">
          <path class="cls-6" d="M242.13,192.31a10,10,0,0,1,13.82-3.1c1.13.77,2.2-1.08,1.07-1.84-5.37-3.67-13.5-1.75-16.73,3.87a1.06,1.06,0,0,0,1.84,1.07" transform="translate(0 0)"/>
          <path class="cls-6" d="M199.72,192.66c-5.26-3.85-13.43-2.13-16.84,3.36-.72,1.17,1.12,2.24,1.84,1.08a10,10,0,0,1,13.92-2.6c1.11.82,2.17-1,1.08-1.84" transform="translate(0 0)"/>
          <rect class="cls-4" x="250.54" y="185.62" width="5.59" height="1.91" transform="translate(-19.64 343.01) rotate(-66.19)"/>
          <polygon class="cls-7" points="234.77 202.59 214.3 204.88 213.92 201.52 234.39 199.21 234.77 202.59"/>
          <path class="cls-7" d="M170.13,211.84l-17.86,2.24L152,212.2a1.9,1.9,0,0,1,1.65-2.12l16-2Z" transform="translate(0 0)"/>
          <path class="cls-7" d="M155.08,218.06l-.79.1a1.5,1.5,0,0,1-1.68-1.3l-.47-3.82a2.64,2.64,0,0,1,2.3-3l1.14-.14.81,6.45a1.5,1.5,0,0,1-1.31,1.67" transform="translate(0 0)"/>
          <path class="cls-7" d="M253.46,219c-14.34,1.67-27.1-6.71-28.59-18.73L277,194.45c1.11,11.94-9.34,22.87-23.58,24.51" transform="translate(0 0)"/>
          <path class="cls-7" d="M165.28,207.18s0,.1,0,.15c1.35,12.1,14.12,20.61,28.53,19s25-12.72,23.64-24.83c0-.13,0-.24-.05-.38Z" transform="translate(0 0)"/>
          <path class="cls-6" d="M209.37,239.56c7.9-.08,15.86-.87,23.33-3.59,4.92-1.8,11.09-4.86,11.47-10.79.09-1.37-2-1.37-2.13,0-.34,5.18-6.85,7.72-11,9.12-7,2.35-14.32,3-21.66,3.13a1.07,1.07,0,0,0,0,2.13" transform="translate(0 0)"/>
          <polygon class="cls-4" points="287.49 185.6 281.17 183.41 275.34 185.96 281.37 187.77 287.49 185.6"/>
          <polygon class="cls-4" points="291.34 185.8 284.85 183.55 278.87 186.17 285.05 188.03 291.34 185.8"/>
          <polygon class="cls-4" points="282.98 190.1 285.31 183.84 282.88 177.95 280.95 183.93 282.98 190.1"/>
          <polygon class="cls-4" points="282.98 193.71 285.31 187.44 282.88 181.55 280.95 187.54 282.98 193.71"/>
          <polygon class="cls-4" points="299.63 173.27 291.69 170.52 284.37 173.73 291.94 176 299.63 173.27"/>
          <polygon class="cls-4" points="304.46 173.53 296.32 170.7 288.8 174 296.57 176.33 304.46 173.53"/>
          <polygon class="cls-4" points="293.97 178.93 296.9 171.06 293.85 163.66 291.41 171.18 293.97 178.93"/>
          <polygon class="cls-4" points="293.97 183.46 296.9 175.58 293.85 168.19 291.41 175.71 293.97 183.46"/>
          <path class="cls-4" d="M255.62,215a18,18,0,0,0,10.43-6.13c.44-.52-.31-1.28-.75-.75a17.17,17.17,0,0,1-10,5.85c-.67.13-.39,1.16.29,1" transform="translate(0 0)"/>
          <path class="cls-4" d="M268.35,206.55a7.92,7.92,0,0,0,2.42-3,.53.53,0,1,0-.92-.54,7.22,7.22,0,0,1-.41.78l-.24.37-.12.17-.07.09c-.05.07.08-.09,0,0s-.37.44-.57.64l-.32.3-.17.15-.08.06s-.12.1,0,0a.57.57,0,0,0-.25.32.58.58,0,0,0,.05.41.54.54,0,0,0,.73.19" transform="translate(0 0)"/>
          <path class="cls-4" d="M194.29,222.59a19.18,19.18,0,0,0,12.31-6.07c.47-.51-.28-1.26-.75-.76a18.1,18.1,0,0,1-11.56,5.77c-.67.06-.68,1.13,0,1.06" transform="translate(0 0)"/>
          <path class="cls-4" d="M178.42,163.43a22.73,22.73,0,0,0-9,8.81c-.33.6.59,1.14.92.54a21.74,21.74,0,0,1,8.58-8.43c.6-.33.07-1.25-.54-.92" transform="translate(0 0)"/>
          <path class="cls-4" d="M167.64,175.2c-.18.37-.35.74-.52,1.12a.58.58,0,0,0-.05.41.53.53,0,0,0,.24.31.55.55,0,0,0,.41.06.5.5,0,0,0,.32-.25c.17-.37.34-.74.52-1.11a.58.58,0,0,0,.05-.41A.52.52,0,0,0,168,175a.5.5,0,0,0-.31.24" transform="translate(0 0)"/>
          <path class="cls-6" d="M220.72,218.63a2.34,2.34,0,0,0,4.67,0,.4.4,0,0,0-.4-.4.41.41,0,0,0-.4.4,1.54,1.54,0,0,1-3.07,0,.41.41,0,0,0-.4-.4.4.4,0,0,0-.4.4" transform="translate(0 0)"/>
          <g class="cls-8">
            <g class="cls-9">
              <path class="cls-10" d="M746.54,106.39A93.4,93.4,0,1,1,653.14,13,93.4,93.4,0,0,1,746.54,106.39Z" transform="translate(0 0)"/>
            </g>
          </g>
          <g class="cls-8">
            <g class="cls-11">
              <path class="cls-10" d="M199.79,310.82a93.4,93.4,0,1,1-93.4-93.39A93.4,93.4,0,0,1,199.79,310.82Z" transform="translate(0 0)"/>
            </g>
          </g>
        </g>
        <text class="cls-12" transform="translate(349.99 177.8)"><tspan class="cls-13">G</tspan><tspan x="14.06" y="0">ANTENG D</tspan><tspan class="cls-14" x="112.54" y="0">O</tspan><tspan x="126.94" y="0">ANG</tspan></text>
        <text class="cls-15" transform="translate(349.14 221.97)">KLIK IKLAN</text>
        <text class="cls-12" transform="translate(420.88 246.87)"><tspan class="cls-16">J</tspan><tspan x="8.92" y="0">ARANG - </tspan><tspan class="cls-16" x="93.05" y="0">J</tspan><tspan x="101.97" y="0">ARANG</tspan></text>
      </g>
    </g>
  </g>
</svg>
