<svg xmlns="http://www.w3.org/2000/svg" xmlns:xlink="http://www.w3.org/1999/xlink" viewBox="0 0 214.11 214.11">
  <defs>
    <style>
      .cls-1 {
        fill: none;
      }

      .cls-2 {
        clip-path: url(#clip-path);
      }

      .cls-3 {
        fill: url(#linear-gradient);
      }

      .cls-4 {
        fill: #ddd;
      }

      .cls-5 {
        fill: #fff;
      }

      .cls-6 {
        fill: #5c2c80;
      }
    </style>
    <clipPath id="clip-path">
      <path class="cls-1" d="M0,107.05A107.06,107.06,0,1,0,107.05,0,107.05,107.05,0,0,0,0,107.05"/>
    </clipPath>
    <linearGradient id="linear-gradient" x1="-6592.41" y1="8109.72" x2="-6591.41" y2="8109.72" gradientTransform="matrix(214.11, 0, 0, -214.11, 1411495.21, 1736471.26)" gradientUnits="userSpaceOnUse">
      <stop offset="0" stop-color="#f98b57"/>
      <stop offset="1" stop-color="#e55539"/>
    </linearGradient>
  </defs>
  <title>Asset 10</title>
  <g id="Layer_2" data-name="Layer 2">
    <g id="Layer_1-2" data-name="Layer 1">
      <g class="cls-2">
        <rect class="cls-3" width="214.11" height="214.11"/>
      </g>
      <g>
        <rect class="cls-4" x="51.95" y="48.66" width="113.14" height="118.29"/>
        <rect class="cls-5" x="57.9" y="55.09" width="101.23" height="88.71"/>
        <path class="cls-6" d="M147.73,94.38l15,15a1.66,1.66,0,0,0,3.09-.83V50a2.76,2.76,0,0,0-2.76-2.76H132.39A2.76,2.76,0,0,0,129.63,50v58.5a1.66,1.66,0,0,0,3.09.83Z"/>
        <path class="cls-5" d="M158.27,84.39c3.22,0,3.22-5,0-5s-3.22,5,0,5"/>
        <path class="cls-5" d="M155.7,53.76a78.67,78.67,0,0,1,.68,20.9,2.51,2.51,0,0,0,2.5,2.5,2.56,2.56,0,0,0,2.5-2.5,83.21,83.21,0,0,0-.86-22.23,2.51,2.51,0,0,0-3.07-1.74,2.55,2.55,0,0,0-1.75,3.07"/>
      </g>
    </g>
  </g>
</svg>
