<svg xmlns="http://www.w3.org/2000/svg" xmlns:xlink="http://www.w3.org/1999/xlink" viewBox="0 0 214.11 214.11">
  <defs>
    <style>
      .cls-1 {
        fill: none;
      }

      .cls-2 {
        clip-path: url(#clip-path);
      }

      .cls-3 {
        fill: url(#linear-gradient);
      }

      .cls-4 {
        fill: #ef929c;
      }

      .cls-5 {
        fill: #ddd;
      }

      .cls-6 {
        fill: #fff;
      }

      .cls-7 {
        fill: #502872;
      }

      .cls-8 {
        fill: #5c2c80;
      }
    </style>
    <clipPath id="clip-path">
      <path class="cls-1" d="M0,107.05A107.06,107.06,0,1,0,107.05,0,107.05,107.05,0,0,0,0,107.05"/>
    </clipPath>
    <linearGradient id="linear-gradient" x1="-6599.25" y1="8426" x2="-6598.25" y2="8426" gradientTransform="matrix(214.11, 0, 0, -214.11, 1412959.79, 1804190.38)" gradientUnits="userSpaceOnUse">
      <stop offset="0" stop-color="#f98b57"/>
      <stop offset="1" stop-color="#e55539"/>
    </linearGradient>
  </defs>
  <title>Asset 6</title>
  <g id="Layer_2" data-name="Layer 2">
    <g id="Layer_1-2" data-name="Layer 1">
      <g class="cls-2">
        <rect class="cls-3" width="214.11" height="214.11"/>
      </g>
      <g>
        <path class="cls-4" d="M68.56,53.52h84.13A10.27,10.27,0,0,1,163,63.79v84.13a10.27,10.27,0,0,1-10.27,10.28H85.05a5.61,5.61,0,0,0-3.79,1.46L67.71,172a5.63,5.63,0,0,1-9.42-4.16v-104A10.27,10.27,0,0,1,68.56,53.52"/>
        <path class="cls-5" d="M68.07,53.38h84.1a10.26,10.26,0,0,1,10.26,10.27v84.09A10.26,10.26,0,0,1,152.17,158H84.56a5.64,5.64,0,0,0-3.79,1.47L67.23,171.78a5.63,5.63,0,0,1-9.42-4.17v-104A10.27,10.27,0,0,1,68.07,53.38"/>
        <path class="cls-6" d="M72.14,53.38h76a9.27,9.27,0,0,1,9.27,9.27v76a9.27,9.27,0,0,1-9.27,9.27H87a5.12,5.12,0,0,0-3.43,1.33L71.37,160.34a5.08,5.08,0,0,1-8.5-3.77V62.65a9.27,9.27,0,0,1,9.27-9.27"/>
        <path class="cls-4" d="M1.66,91.18V25.3a8,8,0,0,1,8-8H75.58a8,8,0,0,1,8,8.05v53a4.42,4.42,0,0,0,1.15,3l9.64,10.6a4.41,4.41,0,0,1-3.26,7.38H9.7a8,8,0,0,1-8-8"/>
        <path class="cls-7" d="M1.6,90.93V25.13a8,8,0,0,1,8-8h65.8a8,8,0,0,1,8,8V78a4.4,4.4,0,0,0,1.15,3l9.63,10.59A4.41,4.41,0,0,1,91,99H9.63a8,8,0,0,1-8-8"/>
        <path class="cls-8" d="M1.6,87.75V28.31a7.25,7.25,0,0,1,7.25-7.25H68.3a7.25,7.25,0,0,1,7.25,7.25V76.1a4,4,0,0,0,1,2.68l8.7,9.57a4,4,0,0,1-3,6.66H8.85A7.26,7.26,0,0,1,1.6,87.75"/>
        <path class="cls-6" d="M16.4,24.21a8.62,8.62,0,0,0-6.78,3.2A9.68,9.68,0,0,0,7.7,31a8.37,8.37,0,0,0,0,4.16,2.5,2.5,0,0,0,4.82-1.33,4.48,4.48,0,0,1-.11-.62l.09.66a5.34,5.34,0,0,1,0-1.44l-.09.66a6.7,6.7,0,0,1,.44-1.59c-.09.2-.17.4-.25.6a7.17,7.17,0,0,1,.89-1.54l-.39.51a7.51,7.51,0,0,1,1.25-1.27l-.5.39a6.74,6.74,0,0,1,1.51-.89l-.59.25a6.09,6.09,0,0,1,1.39-.38l-.66.09a5.86,5.86,0,0,1,.94-.05,2.53,2.53,0,0,0,2.5-2.5,2.56,2.56,0,0,0-2.5-2.5"/>
        <path class="cls-6" d="M10.39,47.3c3.22,0,3.22-5,0-5s-3.22,5,0,5"/>
      </g>
    </g>
  </g>
</svg>
