<svg xmlns="http://www.w3.org/2000/svg" xmlns:xlink="http://www.w3.org/1999/xlink" viewBox="0 0 214.11 248.8"><defs><style>.cls-1,.cls-5{fill:none;}.cls-2{clip-path:url(#clip-path);}.cls-3{fill:url(#linear-gradient);}.cls-4{fill:#fff;}.cls-5{stroke:#ededed;stroke-linecap:round;stroke-linejoin:round;stroke-width:0.91px;}.cls-6{fill:#5c2c80;}.cls-7{fill:#ddd;}.cls-8{fill:#65368e;}</style><clipPath id="clip-path"><path class="cls-1" d="M0,107.05A107.06,107.06,0,1,0,107.05,0,107.05,107.05,0,0,0,0,107.05"/></clipPath><linearGradient id="linear-gradient" x1="-6306.73" y1="8426" x2="-6305.73" y2="8426" gradientTransform="matrix(214.11, 0, 0, -214.11, 1350328.89, 1804190.38)" gradientUnits="userSpaceOnUse"><stop offset="0" stop-color="#f98b57"/><stop offset="1" stop-color="#e55539"/></linearGradient></defs><title>Asset 4</title><g id="Layer_2" data-name="Layer 2"><g id="Layer_1-2" data-name="Layer 1"><g class="cls-2"><rect class="cls-3" width="214.11" height="214.11"/><rect class="cls-4" x="82.1" y="134.96" width="51.41" height="54.41"/><path class="cls-4" d="M144.39,93.63s4.55,67.79-36.43,67.79S70.27,93.63,70.27,93.63s-2-40.31,39.08-40.31c38.22,0,35,40.31,35,40.31"/><path class="cls-4" d="M70.54,106.1s-3.83-5.54-8.39-2.85-3.1,12.62,0,17.58,8.12,7.42,10.89,3.61"/><path class="cls-5" d="M62.65,109.46s5.13-1.72,8.77,5.84"/><path class="cls-5" d="M68.93,111.6s-5.58,3-1.89,7.47"/><path class="cls-4" d="M144.38,107s3.84-5.55,8.39-2.85,3.1,12.62,0,17.58-8.12,7.42-10.89,3.61"/><path class="cls-5" d="M152.27,110.36s-5.13-1.71-8.77,5.85"/><path class="cls-5" d="M146,112.51s5.58,3,1.89,7.47"/><path class="cls-6" d="M116.52,35.37C93.49,35.72,85.23,50.52,85,51l-.08,0c-.89-.33-13.62-4.69-19.81,8.29-5.3,11.12.87,31.63,3.17,38.41.72,3.07,1.51,6.1,2.27,9L74,82.34a21.51,21.51,0,0,1,2.85-8C78.7,71.28,86,61,96.7,68.11c11.64,7.8,25.27,19.68,44.9,9.16l2.69,30.29c1.83-5.7,4-10.35,5-15.85h0C163.9,48,135.8,35.09,116.52,35.37"/><path class="cls-7" d="M83.66,150.4S91,165,102.85,171.71c8.61,4.9,19.75,3,25.59-5,2.92-4,5.14-9.87,5.14-18.51,0,0-9.5,12.5-23.66,13.09S83.66,150.4,83.66,150.4"/><path class="cls-8" d="M15.26,248.8c0-21.63,15.25-37.79,27.16-47.11a67.64,67.64,0,0,1,20.82-11c6.46-2.11,15.66-6.08,19.67-12.46,0,0,22,22,50.67,0,0,0,13.21,10.35,19.67,12.46a67.64,67.64,0,0,1,20.82,11C186,211,201.23,227.17,201.23,248.8"/><path class="cls-6" d="M149.09,188.76a142.34,142.34,0,0,1-15.51-10.55c-28.64,22-50.67,0-50.67,0C79,184.4,70.25,188.32,63.83,190.47c24.45,19.15,63,21,85.26-1.71"/></g><path class="cls-4" d="M107.39,47.07c8.21-1.65,17.92-3.39,25.12,2.07a2.52,2.52,0,0,0,3.42-.9,2.56,2.56,0,0,0-.9-3.42c-8.27-6.27-19.52-4.47-29-2.57a2.5,2.5,0,0,0,1.33,4.82"/><path class="cls-4" d="M140.91,56c3.22,0,3.22-5,0-5s-3.22,5,0,5"/></g></g></svg>