<svg xmlns="http://www.w3.org/2000/svg" xmlns:xlink="http://www.w3.org/1999/xlink" viewBox="0 0 213.44 213.44">
  <defs>
    <style>
      .cls-1 {
        fill: none;
      }

      .cls-2 {
        clip-path: url(#clip-path);
      }

      .cls-3 {
        fill: url(#linear-gradient);
      }

      .cls-4 {
        fill: #ddd;
      }

      .cls-5 {
        fill: #fff;
      }

      .cls-6 {
        fill: #5c2c80;
      }

      .cls-7 {
        fill: #502872;
      }
    </style>
    <clipPath id="clip-path">
      <rect class="cls-1" width="213.44" height="213.43"/>
    </clipPath>
    <linearGradient id="linear-gradient" x1="-6303.88" y1="8877.27" x2="-6302.88" y2="8877.27" gradientTransform="matrix(213.44, 0, 0, -213.44, 1345470.87, 1894829.45)" gradientUnits="userSpaceOnUse">
      <stop offset="0" stop-color="#f98b57"/>
      <stop offset="1" stop-color="#e55539"/>
    </linearGradient>
  </defs>
  <title>Asset 18</title>
  <g id="Layer_2" data-name="Layer 2">
    <g id="Layer_1-2" data-name="Layer 1">
      <g class="cls-2">
        <rect class="cls-3" width="213.44" height="213.44"/>
      </g>
      <g>
        <path class="cls-4" d="M96.15,65.5c-42.43,0-76.82,23.88-76.82,53.34,0,12.53,6.23,24,16.64,33.14L25.59,168.73a4,4,0,0,0,5.26,5.62l21.72-11.58a101.49,101.49,0,0,0,43.58,9.42c42.43,0,76.82-23.89,76.82-53.35S138.58,65.5,96.15,65.5"/>
        <path class="cls-5" d="M93.43,61.46c-42.42,0-76.82,23.88-76.82,53.35,0,12.52,6.24,24,16.65,33.14L22.88,164.7a4,4,0,0,0,5.26,5.61l21.72-11.58a101.29,101.29,0,0,0,43.57,9.42c42.43,0,76.83-23.88,76.83-53.34s-34.4-53.35-76.83-53.35"/>
        <path class="cls-6" d="M83.72,115.71A6.72,6.72,0,1,1,77,109a6.72,6.72,0,0,1,6.72,6.72"/>
        <path class="cls-6" d="M103.72,115.71A6.72,6.72,0,1,1,97,109a6.72,6.72,0,0,1,6.72,6.72"/>
        <path class="cls-6" d="M123.72,115.71A6.72,6.72,0,1,1,117,109a6.72,6.72,0,0,1,6.72,6.72"/>
        <polygon class="cls-7" points="137.89 100.28 143.72 117.61 156.92 89.78 134.38 79.09 121.38 106.49 137.89 100.28"/>
        <polygon class="cls-7" points="179.68 100.28 173.85 117.61 160.65 89.78 183.19 79.09 196.19 106.49 179.68 100.28"/>
        <path class="cls-6" d="M191.26,62a31.48,31.48,0,1,1-31.48-31.48A31.48,31.48,0,0,1,191.26,62"/>
        <path class="cls-5" d="M162.76,42.31l3.9,7.9A3.12,3.12,0,0,0,169,51.92l8.72,1.27a3.12,3.12,0,0,1,1.73,5.32l-6.31,6.15a3.12,3.12,0,0,0-.9,2.76l1.49,8.69a3.12,3.12,0,0,1-4.53,3.29l-7.8-4.1a3.12,3.12,0,0,0-2.91,0l-7.8,4.1a3.12,3.12,0,0,1-4.53-3.29l1.49-8.69a3.09,3.09,0,0,0-.9-2.76l-6.31-6.15a3.12,3.12,0,0,1,1.73-5.32l8.73-1.27a3.15,3.15,0,0,0,2.35-1.71l3.9-7.9a3.12,3.12,0,0,1,5.6,0"/>
      </g>
    </g>
  </g>
</svg>
