<svg xmlns="http://www.w3.org/2000/svg" xmlns:xlink="http://www.w3.org/1999/xlink" viewBox="0 0 213.44 213.44">
  <defs>
    <style>
      .cls-1, .cls-5 {
        fill: none;
      }

      .cls-2 {
        clip-path: url(#clip-path);
      }

      .cls-3 {
        fill: url(#linear-gradient);
      }

      .cls-4 {
        fill: #fff;
      }

      .cls-5 {
        stroke: #ededed;
        stroke-linecap: round;
        stroke-linejoin: round;
        stroke-width: 0.91px;
      }

      .cls-6 {
        fill: #5c2c80;
      }

      .cls-7 {
        fill: #ddd;
      }

      .cls-8 {
        fill: #65368e;
      }
    </style>
    <clipPath id="clip-path">
      <rect class="cls-1" width="213.44" height="213.43"/>
    </clipPath>
    <linearGradient id="linear-gradient" x1="-6303.88" y1="9164.8" x2="-6302.88" y2="9164.8" gradientTransform="matrix(213.44, 0, 0, -213.44, 1345470.87, 1956197.28)" gradientUnits="userSpaceOnUse">
      <stop offset="0" stop-color="#f98b57"/>
      <stop offset="1" stop-color="#e55539"/>
    </linearGradient>
  </defs>
  <title>Asset 14</title>
  <g id="Layer_2" data-name="Layer 2">
    <g id="Layer_1-2" data-name="Layer 1">
      <g class="cls-2">
        <rect class="cls-3" width="213.44" height="213.44"/>
      </g>
      <g class="cls-2">
        <rect class="cls-4" x="82.01" y="135.13" width="51.41" height="54.41"/>
        <path class="cls-4" d="M144.31,93.8s4.55,67.79-36.43,67.79S70.18,93.8,70.18,93.8s-2-40.31,39.08-40.31c38.22,0,35.05,40.31,35.05,40.31"/>
        <path class="cls-4" d="M70.46,106.27s-3.84-5.54-8.39-2.85S59,116,62.07,121s8.11,7.42,10.88,3.61"/>
        <path class="cls-5" d="M62.57,109.63s5.13-1.71,8.77,5.84"/>
        <path class="cls-5" d="M68.85,111.77s-5.58,3-1.9,7.48"/>
        <path class="cls-4" d="M144.29,107.18s3.84-5.54,8.39-2.85,3.11,12.62,0,17.58-8.11,7.42-10.88,3.61"/>
        <path class="cls-5" d="M152.18,110.53s-5.13-1.71-8.77,5.85"/>
        <path class="cls-5" d="M145.9,112.68s5.58,3,1.9,7.47"/>
        <path class="cls-6" d="M116.44,35.54c-23,.35-31.29,15.15-31.55,15.61l-.08,0c-.88-.33-13.62-4.68-19.81,8.29-5.3,11.12.87,31.63,3.18,38.41.72,3.07,1.5,6.1,2.27,9l3.46-24.41a21.51,21.51,0,0,1,2.85-8c1.85-3,9.2-13.33,19.85-6.19,11.65,7.8,25.27,19.68,44.9,9.16l2.69,30.29c1.83-5.7,4-10.35,5-15.85h0c14.58-43.71-13.51-56.62-32.79-56.34"/>
        <path class="cls-7" d="M83.58,150.57s7.33,14.55,19.19,21.31c8.61,4.9,19.74,3,25.59-5,2.91-4,5.13-9.87,5.13-18.51,0,0-9.49,12.5-23.65,13.09s-26.26-10.89-26.26-10.89"/>
        <path class="cls-8" d="M186.34,213.43A92.52,92.52,0,0,0,174,201.86a67.8,67.8,0,0,0-20.83-11c-6.45-2.11-19.67-12.46-19.67-12.46-28.64,22-50.66,0-50.66,0-4,6.38-13.22,10.35-19.67,12.46a67.8,67.8,0,0,0-20.83,11A92.52,92.52,0,0,0,30,213.43Z"/>
        <path class="cls-6" d="M149,188.93a142.34,142.34,0,0,1-15.51-10.55c-28.64,22-50.66,0-50.66,0-3.89,6.19-12.67,10.11-19.09,12.26,24.45,19.15,63,21,85.26-1.71"/>
        <path class="cls-4" d="M107.31,47.24c8.21-1.65,17.92-3.39,25.11,2.07a2.52,2.52,0,0,0,3.42-.9A2.55,2.55,0,0,0,135,45c-8.28-6.27-19.53-4.47-29-2.57a2.52,2.52,0,0,0-1.75,3.07,2.55,2.55,0,0,0,3.08,1.75"/>
        <path class="cls-4" d="M140.82,56.15c3.22,0,3.23-5,0-5s-3.22,5,0,5"/>
      </g>
    </g>
  </g>
</svg>
