<svg xmlns="http://www.w3.org/2000/svg" xmlns:xlink="http://www.w3.org/1999/xlink" viewBox="0 0 213.44 213.43">
  <defs>
    <style>
      .cls-1 {
        fill: none;
      }

      .cls-2 {
        clip-path: url(#clip-path);
      }

      .cls-3 {
        fill: url(#linear-gradient);
      }

      .cls-4 {
        fill: #ddd;
      }

      .cls-5 {
        fill: #fff;
      }

      .cls-6 {
        fill: #5c2c80;
      }
    </style>
    <clipPath id="clip-path">
      <rect class="cls-1" width="213.44" height="213.43"/>
    </clipPath>
    <linearGradient id="linear-gradient" x1="-6001.04" y1="8876.31" x2="-6000.04" y2="8876.31" gradientTransform="matrix(213.44, 0, 0, -213.44, 1280832.83, 1894623.52)" gradientUnits="userSpaceOnUse">
      <stop offset="0" stop-color="#f98b57"/>
      <stop offset="1" stop-color="#e55539"/>
    </linearGradient>
  </defs>
  <title>Asset 17</title>
  <g id="Layer_2" data-name="Layer 2">
    <g id="Layer_1-2" data-name="Layer 1">
      <g class="cls-2">
        <rect class="cls-3" width="213.44" height="213.43"/>
      </g>
      <g>
        <path class="cls-4" d="M170.57,143.17H53.32A9.13,9.13,0,0,1,44.19,134V62a9.13,9.13,0,0,1,9.13-9.13H170.57A9.12,9.12,0,0,1,179.69,62V134a9.12,9.12,0,0,1-9.12,9.13"/>
        <path class="cls-5" d="M165.8,139.49H58.09a8.39,8.39,0,0,1-8.39-8.38V64.89a8.39,8.39,0,0,1,8.39-8.38H165.8a8.38,8.38,0,0,1,8.38,8.38v66.22a8.38,8.38,0,0,1-8.38,8.38"/>
        <path class="cls-6" d="M142.46,95.89,96.89,69.57a3.8,3.8,0,0,0-5.7,3.29v52.63a3.8,3.8,0,0,0,5.7,3.29l45.57-26.32a3.78,3.78,0,0,0,0-6.57"/>
        <path class="cls-6" d="M177.77,160.08H45.86a2.15,2.15,0,1,1,0-4.3H177.77a2.15,2.15,0,0,1,0,4.3"/>
        <path class="cls-5" d="M76.11,155.41A7,7,0,1,1,67,151.7a7,7,0,0,1,9.1,3.71"/>
        <path class="cls-5" d="M108.91,86.64q9.63,5.16,19.34,10.16a2.57,2.57,0,0,0,3.42-.9,2.53,2.53,0,0,0-.9-3.42q-9.71-5-19.33-10.16a2.5,2.5,0,0,0-2.53,4.32"/>
        <path class="cls-5" d="M136.71,100.75c3.21,0,3.22-5,0-5s-3.23,5,0,5"/>
      </g>
    </g>
  </g>
</svg>
