<svg xmlns="http://www.w3.org/2000/svg" xmlns:xlink="http://www.w3.org/1999/xlink" viewBox="0 0 213.44 213.43">
  <defs>
    <style>
      .cls-1 {
        fill: none;
      }

      .cls-2 {
        clip-path: url(#clip-path);
      }

      .cls-3 {
        fill: url(#linear-gradient);
      }

      .cls-4 {
        fill: #fff;
      }

      .cls-5 {
        fill: #ddd;
      }

      .cls-6 {
        fill: #5c2c80;
      }

      .cls-7 {
        fill: #502872;
      }
    </style>
    <clipPath id="clip-path">
      <rect class="cls-1" width="213.44" height="213.43"/>
    </clipPath>
    <linearGradient id="linear-gradient" x1="-6915.93" y1="8876.31" x2="-6914.93" y2="8876.31" gradientTransform="matrix(213.44, 0, 0, -213.44, 1476103.33, 1894623.52)" gradientUnits="userSpaceOnUse">
      <stop offset="0" stop-color="#f98b57"/>
      <stop offset="1" stop-color="#e55539"/>
    </linearGradient>
  </defs>
  <title>Asset 20</title>
  <g id="Layer_2" data-name="Layer 2">
    <g id="Layer_1-2" data-name="Layer 1">
      <g class="cls-2">
        <rect class="cls-3" width="213.44" height="213.43"/>
      </g>
      <g>
        <path class="cls-4" d="M177.93,160H44.81a4,4,0,0,1-4-4V129.65a4,4,0,0,1,4-4H177.93a4,4,0,0,1,4,4V156a4,4,0,0,1-4,4"/>
        <path class="cls-5" d="M177.93,160H44.81a4,4,0,0,1-4-4v-2.31H181.93V156a4,4,0,0,1-4,4"/>
        <path class="cls-6" d="M93.32,46.45a5,5,0,0,0-5,5V92.5H80.69a5,5,0,0,0-3.63,8.44l31.22,33a4.92,4.92,0,0,0,3.35,1.53v-89Z"/>
        <path class="cls-7" d="M143.14,92.5h-7.63v-41a5,5,0,0,0-5-5H111.63v89a4.93,4.93,0,0,0,3.91-1.53l31.23-33a5,5,0,0,0-3.63-8.44"/>
        <path class="cls-4" d="M131.68,103.64a125.83,125.83,0,0,1-13.38,15.69,2.5,2.5,0,0,0,3.53,3.54A132.18,132.18,0,0,0,136,106.16a2.51,2.51,0,0,0-.9-3.42,2.57,2.57,0,0,0-3.42.9"/>
        <path class="cls-4" d="M139.49,101.46c3.22,0,3.22-5,0-5s-3.22,5,0,5"/>
        <path class="cls-6" d="M171.49,139.81a5.29,5.29,0,1,1-5.28-5.28,5.28,5.28,0,0,1,5.28,5.28"/>
      </g>
    </g>
  </g>
</svg>
