<svg xmlns="http://www.w3.org/2000/svg" xmlns:xlink="http://www.w3.org/1999/xlink" viewBox="0 0 213.44 213.44">
  <defs>
    <style>
      .cls-1 {
        fill: none;
      }

      .cls-2 {
        clip-path: url(#clip-path);
      }

      .cls-3 {
        fill: url(#linear-gradient);
      }

      .cls-4 {
        fill: #ddd;
      }

      .cls-5 {
        fill: #fff;
      }

      .cls-6 {
        fill: #5c2c80;
      }
    </style>
    <clipPath id="clip-path" transform="translate(0 0)">
      <rect class="cls-1" width="213.44" height="213.44"/>
    </clipPath>
    <linearGradient id="linear-gradient" x1="-6001.04" y1="9163.83" x2="-6000.04" y2="9163.83" gradientTransform="matrix(213.44, 0, 0, -213.44, 1280832.83, 1955991.35)" gradientUnits="userSpaceOnUse">
      <stop offset="0" stop-color="#f98b57"/>
      <stop offset="1" stop-color="#e55539"/>
    </linearGradient>
  </defs>
  <title>Asset 12</title>
  <g id="Layer_2" data-name="Layer 2">
    <g id="Layer_1-2" data-name="Layer 1">
      <g class="cls-2">
        <rect class="cls-3" width="213.44" height="213.44"/>
      </g>
      <g>
        <path class="cls-4" d="M117.34,185.84a9.32,9.32,0,0,1-6.82-2.87L58.57,131.55a26,26,0,0,1-2.39-2.32c-1-1.08-2.67-3-4.9-5.92a79.78,79.78,0,0,1-6-8.82,57.51,57.51,0,0,1-4.85-11.22,42.82,42.82,0,0,1-2.16-13.15c0-13.67,4-24.62,11.86-32.51S68.9,45.72,82.5,45.72a37.08,37.08,0,0,1,12,2.07,46.78,46.78,0,0,1,11,5.47q4.81,3.26,8.29,6.12,1.81,1.48,3.55,3.08c1.15-1.06,2.34-2.09,3.55-3.09,2.32-1.9,5.07-3.94,8.29-6.11a46.71,46.71,0,0,1,11-5.47,37.37,37.37,0,0,1,12-2.07c13.59,0,24.48,4,32.36,11.89s11.87,18.84,11.87,32.51-6.84,27.71-20.34,41.55l-52,51.37a9.3,9.3,0,0,1-6.75,2.8" transform="translate(0 0)"/>
        <path class="cls-5" d="M117.34,62.46q-1.74-1.59-3.55-3.08-3.48-2.87-8.29-6.12a46.78,46.78,0,0,0-11-5.47,37.08,37.08,0,0,0-12-2.07c-13.6,0-24.49,4-32.37,11.89S38.27,76.45,38.27,90.12a42.82,42.82,0,0,0,2.16,13.15,57.51,57.51,0,0,0,4.85,11.22,79.78,79.78,0,0,0,6,8.82c2.23,2.87,3.87,4.84,4.9,5.92a26,26,0,0,0,2.39,2.32l52,51.42a9.32,9.32,0,0,0,6.82,2.87,8.44,8.44,0,0,0,.87,0l-.69-123.5a1.37,1.37,0,0,0-.18.16" transform="translate(0 0)"/>
        <path class="cls-6" d="M53.56,103.76a4.73,4.73,0,0,1-3.49-1.48L23.38,75.88a13.85,13.85,0,0,1-1.22-1.19c-.53-.56-1.37-1.57-2.52-3a41.13,41.13,0,0,1-3.08-4.53,29.29,29.29,0,0,1-2.49-5.76A22,22,0,0,1,13,54.6c0-7,2-12.64,6.09-16.69s9.64-6.11,16.62-6.11a18.94,18.94,0,0,1,6.14,1.06,24,24,0,0,1,5.67,2.81c1.65,1.12,3.07,2.16,4.26,3.14.62.51,1.23,1,1.82,1.59q.9-.82,1.83-1.59c1.19-1,2.6-2,4.25-3.14a24.18,24.18,0,0,1,5.67-2.81,19.31,19.31,0,0,1,6.15-1.06c7,0,12.57,2.05,16.62,6.11s6.09,9.67,6.09,16.69S90.66,68.83,83.73,75.94L57,102.32a4.75,4.75,0,0,1-3.47,1.44" transform="translate(0 0)"/>
        <path class="cls-5" d="M35.61,37.43c-11.5-1.12-20.77,15-11.9,23.49,2,2,5.14-1.14,3.1-3.1-3-2.88-2.69-7.36-.68-10.72s5.54-5.67,9.48-5.28a2.2,2.2,0,0,0,2.19-2.19,2.24,2.24,0,0,0-2.19-2.2" transform="translate(0 0)"/>
        <path class="cls-5" d="M31.85,69.6c2.82,0,2.83-4.39,0-4.39s-2.83,4.39,0,4.39" transform="translate(0 0)"/>
      </g>
    </g>
  </g>
</svg>
