<svg xmlns="http://www.w3.org/2000/svg" xmlns:xlink="http://www.w3.org/1999/xlink" viewBox="0 0 213.44 213.44">
  <defs>
    <style>
      .cls-1 {
        fill: none;
      }

      .cls-2 {
        clip-path: url(#clip-path);
      }

      .cls-3 {
        fill: url(#linear-gradient);
      }

      .cls-4 {
        fill: #ef929c;
      }

      .cls-5 {
        fill: #ddd;
      }

      .cls-6 {
        fill: #fff;
      }

      .cls-7 {
        fill: #502872;
      }

      .cls-8 {
        fill: #5c2c80;
      }
    </style>
    <clipPath id="clip-path" transform="translate(0 0)">
      <rect class="cls-1" width="213.44" height="213.44"/>
    </clipPath>
    <linearGradient id="linear-gradient" x1="-6600.38" y1="9163.83" x2="-6599.38" y2="9163.83" gradientTransform="matrix(213.44, 0, 0, -213.44, 1408752.95, 1955991.35)" gradientUnits="userSpaceOnUse">
      <stop offset="0" stop-color="#f98b57"/>
      <stop offset="1" stop-color="#e55539"/>
    </linearGradient>
  </defs>
  <title>Asset 15</title>
  <g id="Layer_2" data-name="Layer 2">
    <g id="Layer_1-2" data-name="Layer 1">
      <g class="cls-2">
        <rect class="cls-3" width="213.44" height="213.44"/>
      </g>
      <g>
        <path class="cls-4" d="M94.39,67.34h84.13a10.27,10.27,0,0,1,10.27,10.28v84.13A10.27,10.27,0,0,1,178.52,172H110.88a5.65,5.65,0,0,0-3.79,1.46L93.54,185.8a5.63,5.63,0,0,1-9.42-4.17v-104A10.27,10.27,0,0,1,94.39,67.34" transform="translate(0 0)"/>
        <path class="cls-5" d="M93.91,67.2H178a10.26,10.26,0,0,1,10.26,10.27v84.09A10.26,10.26,0,0,1,178,171.82H110.39a5.66,5.66,0,0,0-3.79,1.47L93.06,185.6a5.63,5.63,0,0,1-9.42-4.17v-104A10.27,10.27,0,0,1,93.91,67.2" transform="translate(0 0)"/>
        <path class="cls-6" d="M98,67.2h76a9.27,9.27,0,0,1,9.27,9.27v76a9.27,9.27,0,0,1-9.27,9.27H112.86a5.07,5.07,0,0,0-3.42,1.33L97.2,174.16a5.08,5.08,0,0,1-8.5-3.77V76.47A9.27,9.27,0,0,1,98,67.2" transform="translate(0 0)"/>
        <path class="cls-4" d="M27.49,105V39.12a8,8,0,0,1,8-8h65.88a8,8,0,0,1,8,8v53a4.39,4.39,0,0,0,1.14,3l9.65,10.61A4.41,4.41,0,0,1,117,113H35.53a8,8,0,0,1-8-8" transform="translate(0 0)"/>
        <path class="cls-7" d="M27.43,104.75V39a8,8,0,0,1,8-8h65.8a8,8,0,0,1,8,8V91.86a4.4,4.4,0,0,0,1.15,3l9.63,10.6a4.4,4.4,0,0,1-3.26,7.36H35.46a8,8,0,0,1-8-8" transform="translate(0 0)"/>
        <path class="cls-8" d="M27.43,101.57V42.13a7.26,7.26,0,0,1,7.26-7.25H94.13a7.25,7.25,0,0,1,7.25,7.25V89.92a4,4,0,0,0,1,2.68l8.7,9.57a4,4,0,0,1-2.94,6.66H34.69a7.26,7.26,0,0,1-7.26-7.26" transform="translate(0 0)"/>
        <path class="cls-6" d="M42.23,38a8.64,8.64,0,0,0-6.77,3.2,9.85,9.85,0,0,0-1.93,3.59A8.37,8.37,0,0,0,33.48,49a2.5,2.5,0,0,0,4.82-1.33c0-.21-.08-.41-.11-.62l.09.66a5.78,5.78,0,0,1,0-1.44l-.09.66a6.7,6.7,0,0,1,.44-1.59l-.25.6a7.17,7.17,0,0,1,.89-1.54l-.39.51a7.91,7.91,0,0,1,1.25-1.27l-.5.39a6.81,6.81,0,0,1,1.52-.89l-.6.25A6.09,6.09,0,0,1,42,43l-.66.09a5.86,5.86,0,0,1,.94,0,2.51,2.51,0,0,0,2.5-2.5,2.56,2.56,0,0,0-2.5-2.5" transform="translate(0 0)"/>
        <path class="cls-6" d="M36.22,61.12c3.22,0,3.23-5,0-5s-3.22,5,0,5" transform="translate(0 0)"/>
      </g>
    </g>
  </g>
</svg>
