<svg xmlns="http://www.w3.org/2000/svg" xmlns:xlink="http://www.w3.org/1999/xlink" viewBox="0 0 214.11 214.11"><defs><style>.cls-1{fill:none;}.cls-2{clip-path:url(#clip-path);}.cls-3{fill:url(#linear-gradient);}.cls-4{fill:#ddd;}.cls-5{fill:#fff;}.cls-6{fill:#5c2c80;}</style><clipPath id="clip-path"><path class="cls-1" d="M0,107.05A107.06,107.06,0,1,0,107.06,0,107.06,107.06,0,0,0,0,107.05"/></clipPath><linearGradient id="linear-gradient" x1="-6008.25" y1="8426" x2="-6007.25" y2="8426" gradientTransform="matrix(214.11, 0, 0, -214.11, 1286422.23, 1804190.38)" gradientUnits="userSpaceOnUse"><stop offset="0" stop-color="#f98b57"/><stop offset="1" stop-color="#e55539"/></linearGradient></defs><title>Asset 1</title><g id="Layer_2" data-name="Layer 2"><g id="Layer_1-2" data-name="Layer 1"><g class="cls-2"><rect class="cls-3" width="214.11" height="214.11"/></g><path class="cls-4" d="M107.05,190.4a9.31,9.31,0,0,1-6.81-2.87L48.29,136.11a26,26,0,0,1-2.39-2.32c-1-1.08-2.67-3-4.9-5.92a79.78,79.78,0,0,1-6-8.82,57.51,57.51,0,0,1-4.85-11.22A42.84,42.84,0,0,1,28,94.68C28,81,32,70.06,39.85,62.17S58.62,50.28,72.21,50.28a37,37,0,0,1,12,2.07,46.85,46.85,0,0,1,11,5.47q4.82,3.26,8.29,6.12c1.21,1,2.39,2,3.54,3.08,1.16-1.07,2.34-2.09,3.56-3.1,2.32-1.89,5.07-3.93,8.28-6.1a46.78,46.78,0,0,1,11-5.47,37.36,37.36,0,0,1,12-2.07c13.6,0,24.49,4,32.37,11.89S186.13,81,186.13,94.68s-6.85,27.71-20.34,41.54l-52,51.38a9.3,9.3,0,0,1-6.76,2.8"/><path class="cls-5" d="M107.05,67c-1.15-1.07-2.33-2.09-3.54-3.08q-3.48-2.86-8.29-6.12a46.85,46.85,0,0,0-11-5.47,37,37,0,0,0-12-2.07c-13.59,0-24.48,4-32.36,11.89S28,81,28,94.68a42.84,42.84,0,0,0,2.17,13.15A57.51,57.51,0,0,0,35,119.05a79.78,79.78,0,0,0,6,8.82c2.23,2.87,3.87,4.84,4.9,5.92a26,26,0,0,0,2.39,2.32l52,51.42a9.31,9.31,0,0,0,6.81,2.87c.3,0,.59,0,.87,0l-.69-123.5-.18.16"/><path class="cls-6" d="M43.28,108.32a4.77,4.77,0,0,1-3.5-1.48L13.1,80.44a15.08,15.08,0,0,1-1.23-1.19c-.52-.56-1.37-1.57-2.51-3a40.31,40.31,0,0,1-3.08-4.54,28.35,28.35,0,0,1-2.49-5.75,22.1,22.1,0,0,1-1.12-6.76c0-7,2.05-12.64,6.1-16.69s9.64-6.11,16.62-6.11a19,19,0,0,1,6.14,1.06,24.18,24.18,0,0,1,5.67,2.81c1.65,1.12,3.07,2.16,4.26,3.14.62.51,1.23,1,1.82,1.59.59-.55,1.2-1.08,1.82-1.59,1.19-1,2.61-2,4.26-3.14A24.18,24.18,0,0,1,55,37.42a19.25,19.25,0,0,1,6.14-1.06c7,0,12.58,2,16.62,6.11s6.1,9.67,6.1,16.69S80.37,73.39,73.44,80.5L46.75,106.88a4.8,4.8,0,0,1-3.47,1.44"/><path class="cls-5" d="M25.32,42C13.83,40.86,4.55,57,13.42,65.48c2,2,5.15-1.14,3.11-3.1-3-2.88-2.69-7.36-.68-10.72s5.54-5.67,9.47-5.28a2.22,2.22,0,0,0,2.2-2.2A2.24,2.24,0,0,0,25.32,42"/><path class="cls-5" d="M21.57,74.16c2.82,0,2.82-4.39,0-4.39s-2.83,4.39,0,4.39"/></g></g></svg>