<svg xmlns="http://www.w3.org/2000/svg" xmlns:xlink="http://www.w3.org/1999/xlink" viewBox="0 0 169.78 83.74"><defs><style>.cls-1,.cls-11,.cls-12,.cls-13,.cls-5{fill:none;}.cls-2{fill:#7547a5;}.cls-3{fill:#f2a62f;}.cls-4{fill:#f3775d;}.cls-5{stroke:#f3775d;stroke-width:0.14px;}.cls-12,.cls-5{stroke-miterlimit:10;}.cls-6{fill:#4b246d;}.cls-7{fill:#5c2c80;}.cls-8{fill:#eaedfb;}.cls-9{fill:#fff;}.cls-10{opacity:0.57;}.cls-11{stroke:#a2c9f8;stroke-width:1.11px;}.cls-11,.cls-13{stroke-linecap:round;stroke-linejoin:round;}.cls-12,.cls-13{stroke:#fff;}.cls-12{stroke-width:1.03px;}.cls-13{stroke-width:1.55px;}.cls-14{fill:#dde2f2;}.cls-15{clip-path:url(#clip-path);}.cls-16{fill:#343a40;}.cls-17{fill:#375a64;}.cls-18{fill:#1a2e35;}.cls-19{opacity:0.3;}.cls-20{fill:#d88d2b;}.cls-21{clip-path:url(#clip-path-2);}.cls-22{fill:#fafafa;}.cls-23{fill:#c7cfe2;}.cls-24{clip-path:url(#clip-path-3);}</style><clipPath id="clip-path"><circle class="cls-1" cx="42.24" cy="55.94" r="26.15"/></clipPath><clipPath id="clip-path-2"><path class="cls-2" d="M6.14,79.63,12,64.53a.85.85,0,0,1,1.58,0l5.84,15.1Z"/></clipPath><clipPath id="clip-path-3"><rect class="cls-3" x="123.74" y="53.48" width="40.4" height="12.26" rx="3.2"/></clipPath></defs><title>Asset 1</title><g id="Layer_2" data-name="Layer 2"><g id="Layer_1-2" data-name="Layer 1"><path class="cls-4" d="M130.3,81.49s24.4-10.86,23.84-32.75-23.7-32.08-39.4-18.56-25.86,2.18-34-9.24S54.46-4.9,30.65,1.76C5.71,8.74-2,34,.51,50.85,2.28,63,8.77,73.22,17.62,81.11l.88.76Z"/><path class="cls-5" d="M130.3,81.49s24.4-10.86,23.84-32.75-23.7-32.08-39.4-18.56-25.86,2.18-34-9.24S54.46-4.9,30.65,1.76C5.71,8.74-2,34,.51,50.85,2.28,63,8.77,73.22,17.62,81.11l.88.76Z"/><rect class="cls-6" x="100.05" y="74.89" width="16.7" height="4.09"/><path class="cls-7" d="M119.91,81.11h-23A1.07,1.07,0,0,1,95.83,80h0A1.07,1.07,0,0,1,96.9,79h23A1.07,1.07,0,0,1,121,80h0A1.07,1.07,0,0,1,119.91,81.11Z"/><path class="cls-7" d="M146,27.85a2.41,2.41,0,0,0-2.41-2.41H73.24a2.41,2.41,0,0,0-2.41,2.41V68.57H146Z"/><rect class="cls-8" x="74.05" y="28.89" width="68.71" height="36.53"/><path class="cls-9" d="M73.24,75.31h70.34A2.41,2.41,0,0,0,146,72.9V68.57H70.83V72.9A2.41,2.41,0,0,0,73.24,75.31Z"/><path class="cls-6" d="M109.83,71.94a1.43,1.43,0,1,1-1.42-1.43A1.43,1.43,0,0,1,109.83,71.94Z"/><g class="cls-10"><polygon class="cls-9" points="93.13 28.89 77.45 65.43 83 65.43 98.86 28.89 93.13 28.89"/><polygon class="cls-9" points="133.15 28.89 117.46 65.43 123.02 65.43 138.87 28.89 133.15 28.89"/><polygon class="cls-9" points="105.93 28.89 90.25 65.43 106.68 65.43 122.54 28.89 105.93 28.89"/></g><rect class="cls-9" x="78.94" y="36.52" width="29.16" height="20.66"/><rect class="cls-11" x="78.94" y="36.52" width="29.16" height="20.66"/><line class="cls-12" x1="111.45" y1="38.08" x2="138.1" y2="38.08"/><line class="cls-12" x1="111.45" y1="44.31" x2="127.84" y2="44.31"/><line class="cls-12" x1="111.45" y1="41.16" x2="116.15" y2="41.16"/><line class="cls-12" x1="111.45" y1="48.36" x2="138.1" y2="48.36"/><line class="cls-12" x1="111.45" y1="54.59" x2="138.1" y2="54.59"/><line class="cls-12" x1="111.45" y1="51.44" x2="127.17" y2="51.44"/><circle class="cls-7" cx="92.95" cy="46.72" r="6.41" transform="translate(30.38 129.84) rotate(-79.72)"/><line class="cls-13" x1="89.7" y1="46.72" x2="95.99" y2="46.72"/><rect class="cls-14" x="3.25" y="81.14" width="164.07" height="2.6" rx="0.9"/><circle class="cls-9" cx="42.16" cy="55.92" r="26.15"/><g class="cls-15"><path class="cls-16" d="M40.68,41.61c1.14.8,2.2,2,2,3.42a2.64,2.64,0,0,1-2.42,2.09,3.68,3.68,0,0,1-3-1.41c-.29,1.54,1.33,2.83,2.89,3a5.08,5.08,0,0,0,5.17-7.12c-.64-1.42-1.95-2.66-1.89-4.22s1.27-2.5,2.37-3.4c-.43.35-4.33-.82-5.13-.83a3.45,3.45,0,0,0-3,1.08C35.06,37.41,38.31,40,40.68,41.61Z"/><path class="cls-16" d="M37,37.7c1.43-1.29,3.1-2.67,5-2.45s3.12,2,5.15,2.17A5.22,5.22,0,0,0,52,35a9.15,9.15,0,0,0,10.93,4.06c.21-.08.44-.19.5-.41a.75.75,0,0,0-.1-.48,28.91,28.91,0,0,0-3-5.5c-4.7-6.33-16.21-5.94-23.21-5-6.8.88-25.44,6.67-25.36,15.73C11.88,56.81,33.67,40.71,37,37.7Z"/></g><path class="cls-16" d="M48.94,59.92a4.4,4.4,0,1,1,7.41-3.55h0a4.39,4.39,0,0,1-7.41,3.55Zm5.85-6.15a4.09,4.09,0,1,0,1.26,2.63A4,4,0,0,0,54.79,53.77Z"/><rect class="cls-16" x="47.69" y="55.43" width="8.31" height="0.26" transform="translate(-4.39 4.45) rotate(-4.72)"/><path class="cls-16" d="M51.4,55.66a2.55,2.55,0,0,0-.3,1.43,2.58,2.58,0,1,0,5.15-.43,2.51,2.51,0,0,0-.53-1.36Z"/><path class="cls-16" d="M30.43,61.45a4.4,4.4,0,1,1,7.42-3.55h0a4.41,4.41,0,0,1-7.42,3.55Zm5.85-6.16a4.1,4.1,0,1,0,1.26,2.63h0A4,4,0,0,0,36.28,55.29Z"/><rect class="cls-16" x="29.18" y="56.95" width="8.31" height="0.26" transform="translate(-4.58 2.93) rotate(-4.72)"/><path class="cls-16" d="M33,57.09a2.58,2.58,0,1,0,4.85,1,2.54,2.54,0,0,0-.52-1.36Z"/><path class="cls-16" d="M48.26,49.3a4.37,4.37,0,0,1,4.87-1.48,3.73,3.73,0,0,1,1.27.72.48.48,0,0,0,.66,0,.46.46,0,0,0,0-.66,5.32,5.32,0,0,0-6.1-.43,4.44,4.44,0,0,0-1.36,1.23.47.47,0,0,0,.68.64Z"/><path class="cls-16" d="M36.1,49.47A5.35,5.35,0,0,0,30,48.69a4.61,4.61,0,0,0-1.42,1.14.48.48,0,0,0,0,.66.47.47,0,0,0,.66,0,4.39,4.39,0,0,1,4.89-1.16,3.63,3.63,0,0,1,1.29.83c.43.43,1.07-.25.65-.67Z"/><rect class="cls-9" x="53.02" y="46.08" width="0.84" height="2.45" transform="translate(31.01 -20.45) rotate(30.17)"/><path class="cls-9" d="M24.19,39.4a9.94,9.94,0,0,0-3.6,4.16c-.12.27.29.49.42.22a9.43,9.43,0,0,1,3.42-4c.25-.17,0-.57-.24-.4Z"/><path class="cls-16" d="M39.32,71.2A26.62,26.62,0,0,0,45.57,70a11.13,11.13,0,0,0,4.15-2.29,3.14,3.14,0,0,0,1.05-2.33.36.36,0,0,0-.72,0c0,1.46-1.46,2.41-2.6,3A18.65,18.65,0,0,1,42.63,70a31,31,0,0,1-3.33.46c-.46,0-.45.77,0,.73Z"/><path class="cls-16" d="M42,61a1,1,0,0,0,.76.81,1,1,0,0,0,1-.37,1,1,0,0,0,.23-.64.18.18,0,0,0-.35,0,.07.07,0,0,1,0,.05h0v0s0,.07,0,.11l0,0s0,0,0,0l0,0a.24.24,0,0,1-.06.11v0h0s0,0,0,0l-.08.08s0,0,0,0h0l0,0-.11.06h0l-.06,0h-.28l-.11,0h0l-.06,0a.24.24,0,0,1-.09-.06h0l-.05,0,0-.05,0,0s0,0,0,0l-.06-.1,0-.06s0,0,0,0v0a.74.74,0,0,1,0-.14.17.17,0,0,0-.21-.12A.18.18,0,0,0,42,61Z"/><path class="cls-9" d="M64.08,65.26a.32.32,0,0,0,0-.63.32.32,0,0,0,0,.63Z"/><path class="cls-16" d="M63.85,61.58c1.49,1,3.62,3.2,5.5,3.18,1.48,0,3.32-1.6,4.47-2.42,2.36-1.7,4.73-4.17,3-7.13a.7.7,0,0,0-1.3.35A3.42,3.42,0,0,0,76.25,58c.53.71,1.74,0,1.2-.71l-.57-1.77-1.3.35c1.59,2.67-1.79,4.84-3.74,6.08a4.53,4.53,0,0,1-2.54,1.07c-1.52,0-3.49-1.85-4.75-2.69-.75-.5-1.45.71-.7,1.21Z"/><path class="cls-16" d="M77.9,57.25A9.91,9.91,0,0,1,79,55.72c.32-.35.89-1.1,1.38-1.18l-.54-.07.12.08-.32-.41c0-.28,0,0-.12.11s-.15.28-.24.42a7.13,7.13,0,0,1-.79.86c-.58.57-1.18,1.12-1.78,1.68s.34,1.61,1,1a24.8,24.8,0,0,0,2.53-2.49c.43-.53,1.18-1.6.58-2.25s-1.67.17-2.19.66a11.18,11.18,0,0,0-2,2.43c-.47.77.74,1.47,1.21.7Z"/><path class="cls-16" d="M17.4,62.66c-.78,2.21-1.47,4.45-2,6.72a.75.75,0,0,0,.32.79c2.62,1.87,5.27,3.67,8,5.4.76.48,1.47-.73.71-1.21q-4.07-2.6-8-5.4l.32.79c.58-2.27,1.26-4.5,2.05-6.71.3-.85-1.05-1.22-1.35-.38Z"/><path class="cls-16" d="M23.62,75.85A3.25,3.25,0,0,1,24,77.61l1.31-.35a2,2,0,0,1-.44-1.56.72.72,0,0,0-.49-.86.7.7,0,0,0-.86.49A3.33,3.33,0,0,0,24.05,78a.7.7,0,0,0,1.3-.35,4.57,4.57,0,0,0-.53-2.46c-.41-.8-1.62-.09-1.2.7Z"/><path class="cls-16" d="M23.84,74.33a18,18,0,0,0-5.12,2.85.69.69,0,0,0,.14,1.09,2.22,2.22,0,0,0,2.3-.19c1.06-.58,2.07-1.25,3.1-1.88a.69.69,0,0,0-.7-1.2l-1.94,1.17c-.42.26-1.53,1.19-2.06.9l.14,1.09a16.72,16.72,0,0,1,4.51-2.49c.84-.3.48-1.65-.37-1.34Z"/><path class="cls-17" d="M79.37,62.09l-3.55-9.24h0c-.88-2-2.29-5.07-2.45-5.27a22.1,22.1,0,0,0-3-1.85,17.87,17.87,0,0,1-2-1.35l4.24-3.45L69.77,38l.54-.5s3.7,0,5,1.41.79,3.92.81,4.62a14.2,14.2,0,0,0,1.8,7.33l.31.65h0L79,53.2h0l3.54,7.53a1.72,1.72,0,1,1-3.17,1.36Z"/><path class="cls-17" d="M70.34,42.79l-2.59-3-.38.34s.07,2.77,1.31,4.07Z"/><path class="cls-18" d="M75.37,44l-.06,0-.14.11-.53.38-2,1.39v-.07a4.88,4.88,0,0,1,.58.34,2,2,0,0,1,.54.5c.25.43.46.91.69,1.4.46,1,1,2.09,1.45,3.24a1,1,0,0,0,.26.4.77.77,0,0,0,.43.15.69.69,0,0,0,.69-.49.7.7,0,0,0,0-.43c-.06-.14-.13-.28-.18-.42l-.36-.83c-.47-1.07-.89-2-1.24-2.85a2.08,2.08,0,0,1-.15-.62c0-.2,0-.39-.05-.56,0-.36,0-.66,0-.91s0-.44,0-.57v-.15s0,0,0-.05v.77c0,.25,0,.55,0,.9a5.54,5.54,0,0,0,0,.56,1.91,1.91,0,0,0,.16.6c.35.81.78,1.78,1.25,2.85l.36.82c.06.14.13.27.19.43a.82.82,0,0,1,0,.49.81.81,0,0,1-.79.56.8.8,0,0,1-.49-.18,1,1,0,0,1-.29-.43c-.5-1.15-1-2.24-1.44-3.24-.23-.49-.45-1-.68-1.4a1.89,1.89,0,0,0-.51-.47,5.7,5.7,0,0,0-.57-.34l-.06,0,.06,0,2-1.37.54-.36.14-.1Z"/><g class="cls-19"><polygon points="74.01 42.71 72.13 44.27 71.02 43.62 72.95 42.06 74.01 42.71"/></g><path class="cls-18" d="M71.2,43.16a2.25,2.25,0,0,1,.87.4,2.32,2.32,0,0,1,.76.56,2.31,2.31,0,0,1-.86-.39A2.56,2.56,0,0,1,71.2,43.16Z"/><path class="cls-18" d="M71.77,42.68a2.44,2.44,0,0,1,.87.4c.45.27.79.52.76.57a2.24,2.24,0,0,1-.86-.4C72.09,43,71.74,42.73,71.77,42.68Z"/><path class="cls-18" d="M72.25,42.19a2.24,2.24,0,0,1,.86.4,2.6,2.6,0,0,1,.77.56,2.32,2.32,0,0,1-.87-.39C72.56,42.49,72.22,42.24,72.25,42.19Z"/><path class="cls-18" d="M68.39,44.38l.07-.05.19-.16.71-.58,2.35-1.92,2.36-1.9.71-.58L75,39S75,39,75,39L75,39l-.2.15-.73.57c-.61.48-1.45,1.14-2.37,1.89S69.91,43,69.32,43.55l-.69.6-.18.17S68.38,44.38,68.39,44.38Z"/><path class="cls-16" d="M78,55.88a1.19,1.19,0,0,1,.09-.15s.12-.16,0,0,0,0,.06-.06l.12-.13.13-.12.05,0-.07.05c.11-.06.2-.14.31-.2A1.59,1.59,0,0,1,79,55L79,55l-.09,0,.19-.07.31-.1.15,0,.09,0c.09,0-.19,0-.1,0h.16s-.19,0-.12,0-.12-.06-.11,0,.09,0,0,0a.38.38,0,0,1-.15-.2s-.06-.14,0-.18a.45.45,0,0,0,0,.11s0-.2,0-.07,0,0,0,.07-.07.2,0,.07a.88.88,0,1,0,0,.08c0,.06-.09.11-.11.17s.11-.14,0-.07l0,.06-.13.13-.11.1.07-.06-.11.08-.32.19-.16.07c-.06,0-.12,0,.05,0l-.11,0c-.27.1-.55.19-.83.27s0,0,.05,0h-.12l.09,0a.65.65,0,1,0,.06,0c-.12-.07.14.13,0,0s.08.12.09.15,0,.08,0,0,0,0,0,.12a.86.86,0,1,0-1.71,0,1.38,1.38,0,0,0,1,1.26,2.13,2.13,0,0,0,1.34-.07,4.72,4.72,0,0,0,2-1.11c.61-.64,1.09-1.8.35-2.54s-1.7-.28-2.42,0A3.73,3.73,0,0,0,76.47,55a.86.86,0,0,0,1.48.86Z"/><path class="cls-3" d="M21.48,42.24s-5.11-6.91-1.22-14.68c3.21-6.4,11.28-9.15,17.46-5.76,2.9,1.6,5.19,3.51,7.3,8.81Z"/><path class="cls-20" d="M45.38,31.86l-.13.07L18.53,45.25a1.26,1.26,0,0,1-1.7-.56A1.28,1.28,0,0,1,17.44,43L44.17,29.68a1.27,1.27,0,0,1,1.7.56A1.28,1.28,0,0,1,45.38,31.86Z"/><path class="cls-2" d="M6.14,79.63,12,64.53a.85.85,0,0,1,1.58,0l5.84,15.1Z"/><g class="cls-21"><rect class="cls-22" x="7.49" y="67.78" width="10.37" height="2.9"/><rect class="cls-22" x="6.93" y="73.27" width="11.73" height="2.9"/></g><path class="cls-7" d="M20.31,80.9H5.3a1,1,0,0,1-1-1.05h0a1,1,0,0,1,1-1h15a1,1,0,0,1,1.05,1h0A1,1,0,0,1,20.31,80.9Z"/><rect class="cls-23" x="128.78" y="64.65" width="4.81" height="15.4"/><rect class="cls-23" x="154.14" y="64.65" width="4.81" height="15.4"/><rect class="cls-3" x="123.74" y="53.48" width="40.4" height="12.26" rx="3.2"/><g class="cls-24"><polygon class="cls-9" points="123.24 70.05 115.96 70.05 132.92 51.23 140.21 51.23 123.24 70.05"/><polygon class="cls-9" points="152.81 70.05 145.53 70.05 162.5 51.23 169.78 51.23 152.81 70.05"/><polygon class="cls-9" points="137.72 70.05 130.44 70.05 147.41 51.23 154.69 51.23 137.72 70.05"/></g><rect class="cls-23" x="126.74" y="79.65" width="34.5" height="1.64" rx="0.82"/></g></g></svg>