<svg xmlns="http://www.w3.org/2000/svg" xmlns:xlink="http://www.w3.org/1999/xlink" viewBox="0 0 214.11 214.11">
  <defs>
    <style>
      .cls-1 {
        fill: none;
      }

      .cls-2 {
        clip-path: url(#clip-path);
      }

      .cls-3 {
        fill: url(#linear-gradient);
      }

      .cls-4 {
        fill: #ddd;
      }

      .cls-5 {
        fill: #fff;
      }

      .cls-6 {
        fill: #5c2c80;
      }

      .cls-7 {
        fill: #502872;
      }
    </style>
    <clipPath id="clip-path">
      <path class="cls-1" d="M0,107.05A107.06,107.06,0,1,0,107.05,0,107.05,107.05,0,0,0,0,107.05"/>
    </clipPath>
    <linearGradient id="linear-gradient" x1="-6304.41" y1="8109.72" x2="-6303.41" y2="8109.72" gradientTransform="matrix(214.11, 0, 0, -214.11, 1349832.3, 1736471.26)" gradientUnits="userSpaceOnUse">
      <stop offset="0" stop-color="#f98b57"/>
      <stop offset="1" stop-color="#e55539"/>
    </linearGradient>
  </defs>
  <title>Asset 9</title>
  <g id="Layer_2" data-name="Layer 2">
    <g id="Layer_1-2" data-name="Layer 1">
      <g class="cls-2">
        <rect class="cls-3" width="214.11" height="214.11"/>
      </g>
      <g>
        <path class="cls-4" d="M111.41,55.38c-42.43,0-76.82,23.88-76.82,53.35,0,12.52,6.23,24,16.65,33.14L40.86,158.62a4,4,0,0,0,5.25,5.61l21.73-11.58a101.29,101.29,0,0,0,43.57,9.42c42.43,0,76.82-23.88,76.82-53.34s-34.39-53.35-76.82-53.35"/>
        <path class="cls-5" d="M108.7,51.34c-42.43,0-76.83,23.89-76.83,53.35,0,12.53,6.24,24,16.65,33.14L38.14,154.58a4,4,0,0,0,5.26,5.61l21.72-11.57A101.48,101.48,0,0,0,108.7,158c42.42,0,76.82-23.88,76.82-53.34s-34.4-53.35-76.82-53.35"/>
        <path class="cls-6" d="M99,105.59a6.72,6.72,0,1,1-6.71-6.71A6.71,6.71,0,0,1,99,105.59"/>
        <path class="cls-6" d="M119,105.59a6.72,6.72,0,1,1-6.71-6.71,6.71,6.71,0,0,1,6.71,6.71"/>
        <path class="cls-6" d="M139,105.59a6.72,6.72,0,1,1-6.71-6.71,6.71,6.71,0,0,1,6.71,6.71"/>
        <polygon class="cls-7" points="153.15 90.16 158.99 107.49 172.19 79.66 149.65 68.97 136.65 96.37 153.15 90.16"/>
        <polygon class="cls-7" points="194.95 90.16 189.11 107.49 175.91 79.66 198.45 68.97 211.45 96.37 194.95 90.16"/>
        <path class="cls-6" d="M206.52,51.86A31.48,31.48,0,1,1,175,20.38a31.47,31.47,0,0,1,31.48,31.48"/>
        <path class="cls-5" d="M178,32.19l3.9,7.9a3.12,3.12,0,0,0,2.35,1.71L193,43.07a3.12,3.12,0,0,1,1.73,5.32l-6.31,6.16a3.11,3.11,0,0,0-.9,2.76L189,66a3.12,3.12,0,0,1-4.53,3.29l-7.8-4.11a3.16,3.16,0,0,0-2.9,0L166,69.29A3.12,3.12,0,0,1,161.44,66l1.49-8.69a3.14,3.14,0,0,0-.9-2.76l-6.31-6.16a3.12,3.12,0,0,1,1.73-5.32l8.72-1.27a3.14,3.14,0,0,0,2.35-1.71l3.9-7.9a3.12,3.12,0,0,1,5.6,0"/>
      </g>
    </g>
  </g>
</svg>
