<svg xmlns="http://www.w3.org/2000/svg" xmlns:xlink="http://www.w3.org/1999/xlink" viewBox="0 0 214.11 214.11">
  <defs>
    <style>
      .cls-1 {
        fill: none;
      }

      .cls-2 {
        clip-path: url(#clip-path);
      }

      .cls-3 {
        fill: url(#linear-gradient);
      }

      .cls-4 {
        fill: #ddd;
      }

      .cls-5 {
        fill: #fff;
      }

      .cls-6 {
        fill: #5c2c80;
      }
    </style>
    <clipPath id="clip-path">
      <path class="cls-1" d="M0,107.05A107.06,107.06,0,1,0,107.06,0,107.06,107.06,0,0,0,0,107.05"/>
    </clipPath>
    <linearGradient id="linear-gradient" x1="-6008.25" y1="8109.72" x2="-6007.25" y2="8109.72" gradientTransform="matrix(214.11, 0, 0, -214.11, 1286422.23, 1736471.26)" gradientUnits="userSpaceOnUse">
      <stop offset="0" stop-color="#f98b57"/>
      <stop offset="1" stop-color="#e55539"/>
    </linearGradient>
  </defs>
  <title>Asset 8</title>
  <g id="Layer_2" data-name="Layer 2">
    <g id="Layer_1-2" data-name="Layer 1">
      <g class="cls-2">
        <rect class="cls-3" width="214.11" height="214.11"/>
      </g>
      <g>
        <path class="cls-4" d="M166.29,144H49a9.12,9.12,0,0,1-9.12-9.12V62.83A9.12,9.12,0,0,1,49,53.71H166.29a9.12,9.12,0,0,1,9.12,9.12v72.09a9.12,9.12,0,0,1-9.12,9.12"/>
        <path class="cls-5" d="M161.52,140.37H53.8A8.38,8.38,0,0,1,45.42,132V65.76a8.38,8.38,0,0,1,8.38-8.38H161.52a8.38,8.38,0,0,1,8.38,8.38V132a8.38,8.38,0,0,1-8.38,8.38"/>
        <path class="cls-6" d="M138.18,96.76,92.61,70.45a3.8,3.8,0,0,0-5.7,3.29v52.62a3.8,3.8,0,0,0,5.7,3.29l45.57-26.31a3.8,3.8,0,0,0,0-6.58"/>
        <path class="cls-6" d="M173.49,161H41.57a2.15,2.15,0,1,1,0-4.3H173.49a2.15,2.15,0,0,1,0,4.3"/>
        <path class="cls-5" d="M71.83,156.29a6.95,6.95,0,1,1-9.1-3.71,6.95,6.95,0,0,1,9.1,3.71"/>
        <path class="cls-5" d="M104.63,87.51q9.63,5.16,19.34,10.16a2.5,2.5,0,1,0,2.52-4.32q-9.7-5-19.34-10.16a2.57,2.57,0,0,0-3.42.9,2.53,2.53,0,0,0,.9,3.42"/>
        <path class="cls-5" d="M132.42,101.63c3.22,0,3.23-5,0-5s-3.22,5,0,5"/>
      </g>
    </g>
  </g>
</svg>
