<svg xmlns="http://www.w3.org/2000/svg" viewBox="0 0 113.87 119.71"><defs><style>.cls-1{fill:#ddd;}.cls-2{fill:#fff;}.cls-3{fill:#7d6eeb;}</style></defs><g id="Layer_2" data-name="Layer 2"><g id="Layer_12" data-name="Layer 12"><rect class="cls-1" y="1.42" width="113.14" height="118.29"/><rect class="cls-2" x="5.95" y="7.85" width="101.23" height="88.71"/><path class="cls-3" d="M95.78,47.14l15,15a1.66,1.66,0,0,0,3.09-.83V2.76A2.76,2.76,0,0,0,111.11,0H80.45a2.76,2.76,0,0,0-2.76,2.76v58.5a1.66,1.66,0,0,0,3.09.83Z"/><path class="cls-2" d="M106.32,37.16c3.22,0,3.22-5,0-5s-3.22,5,0,5Z"/><path class="cls-2" d="M103.75,6.52a78.26,78.26,0,0,1,.68,20.9,2.51,2.51,0,0,0,2.5,2.5,2.56,2.56,0,0,0,2.5-2.5,83.56,83.56,0,0,0-.85-22.22,2.52,2.52,0,0,0-3.08-1.75,2.56,2.56,0,0,0-1.75,3.07Z"/></g></g></svg>