<svg xmlns="http://www.w3.org/2000/svg" viewBox="0 0 161.36 156.35"><defs><style>.cls-1{fill:#ef929c;}.cls-2{fill:#ddd;}.cls-3{fill:#fff;}.cls-4{fill:#604deb;}.cls-5{fill:#7d6eeb;}</style></defs><g id="Layer_2" data-name="Layer 2"><g id="Layer_12" data-name="Layer 12"><path class="cls-1" d="M67,36.42h84.13a10.27,10.27,0,0,1,10.27,10.27v84.13a10.27,10.27,0,0,1-10.27,10.27H83.45a5.62,5.62,0,0,0-3.79,1.47L66.11,154.87a5.63,5.63,0,0,1-9.42-4.16v-104A10.27,10.27,0,0,1,67,36.42Z"/><path class="cls-2" d="M66.47,36.28h84.1a10.26,10.26,0,0,1,10.26,10.26v84.1a10.26,10.26,0,0,1-10.26,10.26H83a5.58,5.58,0,0,0-3.79,1.47L65.63,154.68a5.63,5.63,0,0,1-9.42-4.17v-104A10.27,10.27,0,0,1,66.47,36.28Z"/><path class="cls-3" d="M70.54,36.28h76a9.27,9.27,0,0,1,9.27,9.27v76a9.27,9.27,0,0,1-9.27,9.27H85.43A5.07,5.07,0,0,0,82,132.12L69.77,143.24a5.08,5.08,0,0,1-8.5-3.77V45.55A9.27,9.27,0,0,1,70.54,36.28Z"/><path class="cls-1" d="M.06,74.08V8.2a8,8,0,0,1,8-8H74a8,8,0,0,1,8,8v53a4.38,4.38,0,0,0,1.15,3l9.64,10.61a4.41,4.41,0,0,1-3.26,7.38H8.1A8,8,0,0,1,.06,74.08Z"/><path class="cls-4" d="M0,73.83V8A8,8,0,0,1,8,0h65.8a8,8,0,0,1,8,8v52.9a4.4,4.4,0,0,0,1.15,3l9.63,10.59a4.41,4.41,0,0,1-3.26,7.37H8A8,8,0,0,1,0,73.83Z"/><path class="cls-5" d="M0,70.65V11.21A7.25,7.25,0,0,1,7.26,4H66.7A7.25,7.25,0,0,1,74,11.21V59a4,4,0,0,0,1,2.68l8.7,9.57a4,4,0,0,1-3,6.66H7.26A7.26,7.26,0,0,1,0,70.65Z"/><path class="cls-3" d="M14.8,7.11A8.63,8.63,0,0,0,8,10.3,10,10,0,0,0,6.1,13.9a8.37,8.37,0,0,0,0,4.16,2.5,2.5,0,0,0,4.82-1.33,4.48,4.48,0,0,1-.11-.62l.09.66a5.34,5.34,0,0,1,0-1.44l-.09.66a6.7,6.7,0,0,1,.44-1.59L11,15a7.1,7.1,0,0,1,.89-1.53l-.39.5a7.45,7.45,0,0,1,1.25-1.26l-.5.39a6.59,6.59,0,0,1,1.52-.89l-.6.25a6.09,6.09,0,0,1,1.39-.38l-.66.09a5.86,5.86,0,0,1,.94-.05,2.53,2.53,0,0,0,2.5-2.5,2.56,2.56,0,0,0-2.5-2.5Z"/><path class="cls-3" d="M8.79,30.2c3.22,0,3.22-5,0-5s-3.22,5,0,5Z"/></g></g></svg>