<svg xmlns="http://www.w3.org/2000/svg" xmlns:xlink="http://www.w3.org/1999/xlink" viewBox="0 0 185.97 213.43"><defs><style>.cls-1,.cls-4{fill:none;}.cls-2{clip-path:url(#clip-path);}.cls-3{fill:#fff;}.cls-4{stroke:#ededed;stroke-linecap:round;stroke-linejoin:round;stroke-width:0.91px;}.cls-5{fill:#7d6eeb;}.cls-6{fill:#ddd;}.cls-7{fill:#604deb;}</style><clipPath id="clip-path" transform="translate(-15.17 -35.54)"><rect class="cls-1" width="213.44" height="213.44"/></clipPath></defs><g id="Layer_2" data-name="Layer 2"><g id="Layer_12" data-name="Layer 12"><g class="cls-2"><rect class="cls-3" x="66.84" y="99.59" width="51.41" height="54.41"/><path class="cls-3" d="M144.3,93.81s4.56,67.79-36.43,67.79S70.18,93.81,70.18,93.81s-2-40.32,39.08-40.32C147.48,53.49,144.3,93.81,144.3,93.81Z" transform="translate(-15.17 -35.54)"/><path class="cls-3" d="M70.46,106.27s-3.84-5.54-8.39-2.85S59,116,62.07,121s8.11,7.42,10.88,3.6" transform="translate(-15.17 -35.54)"/><path class="cls-4" d="M62.57,109.63s5.13-1.71,8.77,5.84" transform="translate(-15.17 -35.54)"/><path class="cls-4" d="M68.85,111.77s-5.59,3-1.9,7.48" transform="translate(-15.17 -35.54)"/><path class="cls-3" d="M144.29,107.18s3.84-5.54,8.39-2.85,3.1,12.62,0,17.58-8.11,7.42-10.88,3.61" transform="translate(-15.17 -35.54)"/><path class="cls-4" d="M152.18,110.53s-5.13-1.71-8.77,5.85" transform="translate(-15.17 -35.54)"/><path class="cls-4" d="M145.9,112.68s5.58,3,1.9,7.47" transform="translate(-15.17 -35.54)"/><path class="cls-5" d="M116.44,35.55c-23,.34-31.29,15.14-31.55,15.6l-.08,0c-.89-.33-13.62-4.68-19.81,8.29-5.3,11.12.87,31.63,3.18,38.41.72,3.07,1.5,6.1,2.27,9l3.46-24.41a21.51,21.51,0,0,1,2.85-8c1.85-3,9.2-13.33,19.85-6.19,11.65,7.81,25.27,19.68,44.9,9.16l2.69,30.29c1.83-5.7,4-10.35,5-15.85h0C163.81,48.17,135.71,35.26,116.44,35.55Z" transform="translate(-15.17 -35.54)"/><path class="cls-6" d="M83.58,150.57s7.33,14.55,19.18,21.31c8.61,4.9,19.75,3,25.6-5,2.91-4,5.13-9.87,5.13-18.51,0,0-9.49,12.5-23.65,13.09S83.58,150.57,83.58,150.57Z" transform="translate(-15.17 -35.54)"/><path class="cls-5" d="M15.17,249c0-21.63,15.26-37.79,27.16-47.11a67.8,67.8,0,0,1,20.83-11c6.45-2.11,15.66-6.08,19.67-12.46,0,0,22,22,50.66,0,0,0,13.22,10.35,19.67,12.46a67.8,67.8,0,0,1,20.83,11c11.9,9.32,27.15,25.48,27.15,47.11" transform="translate(-15.17 -35.54)"/><path class="cls-7" d="M149,188.93a142.34,142.34,0,0,1-15.51-10.55c-28.64,22-50.66,0-50.66,0-3.9,6.19-12.67,10.11-19.09,12.26C88.19,209.79,126.76,211.65,149,188.93Z" transform="translate(-15.17 -35.54)"/><path class="cls-3" d="M107.31,47.24c8.21-1.65,17.91-3.39,25.11,2.07a2.52,2.52,0,0,0,3.42-.9A2.56,2.56,0,0,0,135,45c-8.28-6.27-19.53-4.47-29-2.57a2.52,2.52,0,0,0-1.75,3.07,2.55,2.55,0,0,0,3.08,1.75Z" transform="translate(-15.17 -35.54)"/><path class="cls-3" d="M140.82,56.15c3.22,0,3.23-5,0-5s-3.22,5,0,5Z" transform="translate(-15.17 -35.54)"/></g></g></g></svg>