<svg xmlns="http://www.w3.org/2000/svg" viewBox="0 0 183.45 154.04"><defs><style>.cls-1{fill:#ddd;}.cls-2{fill:#fff;}.cls-3{fill:#7d6eeb;}</style></defs><g id="Layer_2" data-name="Layer 2"><g id="Layer_12" data-name="Layer 12"><path class="cls-1" d="M104.38,154a9.28,9.28,0,0,1-6.81-2.87l-52-51.42a29,29,0,0,1-2.39-2.32c-1-1.08-2.66-3.05-4.89-5.92a77.1,77.1,0,0,1-6-8.82,56.32,56.32,0,0,1-4.85-11.22,42.84,42.84,0,0,1-2.17-13.15c0-13.67,4-24.62,11.87-32.5s18.76-11.9,32.36-11.9A37.08,37.08,0,0,1,81.5,16a46.78,46.78,0,0,1,11,5.47q4.81,3.25,8.29,6.12,1.82,1.49,3.55,3.08c1.15-1.06,2.34-2.09,3.55-3.09,2.32-1.9,5.07-3.94,8.29-6.11a46.59,46.59,0,0,1,11-5.47,37.31,37.31,0,0,1,12-2.07c13.6,0,24.48,4,32.36,11.9s11.87,18.83,11.87,32.5S176.61,86,163.12,99.87l-52,51.37A9.26,9.26,0,0,1,104.38,154Z"/><path class="cls-2" d="M104.38,30.66q-1.74-1.59-3.55-3.08-3.47-2.86-8.29-6.12A46.78,46.78,0,0,0,81.5,16a37.08,37.08,0,0,0-12-2.07c-13.6,0-24.49,4-32.36,11.9S25.31,44.65,25.31,58.32a42.84,42.84,0,0,0,2.17,13.15,56.32,56.32,0,0,0,4.85,11.22,77.1,77.1,0,0,0,6,8.82c2.23,2.87,3.87,4.84,4.89,5.92a29,29,0,0,0,2.39,2.32l52,51.42a9.28,9.28,0,0,0,6.81,2.87,8.44,8.44,0,0,0,.87,0l-.69-123.5Z"/><path class="cls-3" d="M40.61,72a4.8,4.8,0,0,1-3.5-1.47L10.43,44.08A13.44,13.44,0,0,1,9.2,42.89c-.53-.56-1.37-1.57-2.52-3A42.57,42.57,0,0,1,3.6,35.32a29.9,29.9,0,0,1-2.49-5.76A22,22,0,0,1,0,22.8c0-7,2.05-12.64,6.09-16.69S15.73,0,22.71,0a19,19,0,0,1,6.15,1.06,24.18,24.18,0,0,1,5.67,2.81C36.18,5,37.6,6,38.79,7c.62.5,1.22,1,1.82,1.58.59-.55,1.2-1.08,1.82-1.59C43.62,6,45,5,46.69,3.87a23.92,23.92,0,0,1,5.66-2.81A19.31,19.31,0,0,1,58.5,0c7,0,12.57,2.05,16.62,6.11s6.09,9.67,6.09,16.69S77.7,37,70.77,44.14L44.07,70.52A4.73,4.73,0,0,1,40.61,72Z"/><path class="cls-2" d="M22.65,5.63c-11.5-1.12-20.77,15-11.9,23.5,2,1.95,5.14-1.15,3.1-3.11-3-2.88-2.69-7.35-.68-10.72S18.71,9.63,22.65,10a2.2,2.2,0,0,0,2.19-2.19,2.24,2.24,0,0,0-2.19-2.2Z"/><path class="cls-2" d="M18.89,37.8c2.83,0,2.83-4.39,0-4.39s-2.82,4.39,0,4.39Z"/></g></g></svg>