<svg xmlns="http://www.w3.org/2000/svg" xmlns:xlink="http://www.w3.org/1999/xlink" viewBox="0 0 156.81 95.42"><defs><style>.cls-1{fill:none;}.cls-2{fill:#fff;}.cls-3{clip-path:url(#clip-path);}.cls-4{fill:#7d6eeb;}.cls-5{fill:#604deb;}</style><clipPath id="clip-path"><path class="cls-1" d="M78.58,0C42.86,0,12.33,19.91,0,48.05,12.55,75.77,42.84,95.42,78.23,95.42c35.71,0,66.24-20,78.58-48.14C144.26,19.55,114,0,78.58,0Z"/></clipPath></defs><g id="Layer_2" data-name="Layer 2"><g id="Layer_12" data-name="Layer 12"><path class="cls-2" d="M78.58,0C42.86,0,12.33,19.91,0,48.05,12.55,75.77,42.84,95.42,78.23,95.42c35.71,0,66.24-20,78.58-48.14C144.26,19.55,114,0,78.58,0Z"/><g class="cls-3"><circle class="cls-4" cx="102.81" cy="47.25" r="44.86"/></g><circle class="cls-5" cx="106.06" cy="47.12" r="26.07"/><circle class="cls-2" cx="88.16" cy="35.85" r="14.17"/></g></g></svg>