<svg xmlns="http://www.w3.org/2000/svg" xmlns:xlink="http://www.w3.org/1999/xlink" viewBox="0 0 117.6 120.65"><defs><style>.cls-1{fill:#f9b233;}.cls-2{clip-path:url(#clip-path);}.cls-3{fill:#004b74;}.cls-4{fill:#013958;}.cls-5{fill:#dda778;}.cls-6{fill:#f9bb8d;}</style><clipPath id="clip-path"><path class="cls-1" d="M117.6,58.8A58.8,58.8,0,1,1,58.8,0,58.8,58.8,0,0,1,117.6,58.8Z"/></clipPath></defs><g id="Layer_2" data-name="Layer 2"><g id="Capa_1" data-name="Capa 1"><path class="cls-1" d="M117.6,58.8A58.8,58.8,0,1,1,58.8,0,58.8,58.8,0,0,1,117.6,58.8Z"/><g class="cls-2"><path class="cls-3" d="M93.45,94.78c-4-4.61-35.2-14.72-35.2-14.72S27.66,91.25,23.05,94.78s-6.33,25.87-6.33,25.87H98.88S97.4,99.39,93.45,94.78Z"/><path class="cls-4" d="M72.48,86.53,58.25,92,44,86.53V79.27A48.82,48.82,0,0,1,58.6,77a41.53,41.53,0,0,1,13.88,2.28Z"/><polygon class="cls-5" points="70.34 79.86 58.25 85.29 46.16 79.86 46.16 70.32 70.34 70.32 70.34 79.86"/><path d="M82.62,51.6V38.48c0-18.38-7.36-30.71-24-30.71s-24,12.33-24,30.71V51.6a71.36,71.36,0,0,0,7-6.82c1.52-1.72-3.64-11.14-2.07-15.09,1.91-4.8,6.79-8.22,6.79-8.22s2,2.34,11,3.16c9.18.84,12.37-4.22,12.37-4.22s.78,21,2.83,23.75A20.66,20.66,0,0,0,82.62,51.6Z"/><path class="cls-6" d="M83.83,46.09c0,4.09-2.9,9.71-4.85,9.71s-3.54-3.32-3.54-7.41A8.79,8.79,0,0,1,79,41C80.87,39.51,83.83,41,83.83,46.09Z"/><path class="cls-6" d="M33.21,46.09c0,4.09,2.89,9.71,4.85,9.71s3.53-3.32,3.53-7.41A8.79,8.79,0,0,0,38.06,41C36.17,39.51,33.21,41,33.21,46.09Z"/><path class="cls-6" d="M58.6,13.69c-13.73,0-19.8,9.62-19.8,24v18c0,2.63,1,9.43,2,11.52C44,73.85,53.65,81.29,58.21,81.29s15.41-7.36,18-13.73c1-2.46,2.22-10,2.22-13.08V37.66C78.4,23.31,72.33,13.69,58.6,13.69Z"/><path d="M78.4,47.9l1.23-7.45C80.51,23.51,72.33,11,58.6,11S37.4,25.32,37.93,40.45l.87,7.45s0-5.59,2.79-8.55c1.25-1.34,0-5.46,1.28-8.55,1.57-3.75,5.6-6.42,5.6-6.42s1.67,1.83,9,2.47c7.57.66,10.2-3.29,10.2-3.29s4.51.34,7,6.13c1.6,3.74.37,5.46.25,7.81S78.4,47.9,78.4,47.9Z"/></g></g></g></svg>