<svg xmlns="http://www.w3.org/2000/svg" viewBox="0 0 136.21 112.23"><defs><style>.cls-1{fill:#ddd;}.cls-2{fill:#fff;}.cls-3{fill:#7d6eeb;}.cls-4{fill:#604deb;}</style></defs><g id="Layer_2" data-name="Layer 2"><g id="Layer_12" data-name="Layer 12"><rect class="cls-1" x="0.48" width="135.5" height="90.34" rx="9.12"/><rect class="cls-2" x="6" y="3.68" width="124.48" height="82.99" rx="8.38"/><path class="cls-3" d="M98.76,43.05,53.18,16.74A3.8,3.8,0,0,0,47.49,20V72.65a3.79,3.79,0,0,0,5.69,3.29L98.76,49.63A3.8,3.8,0,0,0,98.76,43.05Z"/><rect class="cls-4" y="102.95" width="136.21" height="4.3" rx="2.15"/><circle class="cls-2" cx="26" cy="105.28" r="6.95"/><path class="cls-2" d="M65.21,33.8Q74.83,39,84.54,44A2.56,2.56,0,0,0,88,43.07a2.52,2.52,0,0,0-.89-3.42q-9.72-5-19.34-10.16a2.55,2.55,0,0,0-3.42.89,2.52,2.52,0,0,0,.9,3.42Z"/><path class="cls-2" d="M93,47.92c3.22,0,3.22-5,0-5s-3.22,5,0,5Z"/></g></g></svg>